<svg xmlns="http://www.w3.org/2000/svg" xmlns:xlink="http://www.w3.org/1999/xlink" width="500" zoomAndPan="magnify" viewBox="0 0 375 374.999991" height="500" preserveAspectRatio="xMidYMid meet" version="1.0"><defs><clipPath id="500d58dbc1"><path d="M 7.550781 98 L 367.550781 98 L 367.550781 277 L 7.550781 277 Z M 7.550781 98 " clip-rule="nonzero"/></clipPath></defs><g clip-path="url(#500d58dbc1)"><path fill="#ffffff" d="M 100.042969 98.199219 C 46.585938 98.199219 7.550781 136.199219 7.550781 187.707031 C 7.550781 239.203125 46.585938 276.796875 100.042969 276.796875 C 132.792969 276.796875 158.347656 261.410156 186.644531 230.640625 C 209.585938 261.125 247.179688 277.667969 274.96875 276.796875 C 328.441406 276.796875 367.445312 239.261719 367.445312 187.707031 C 367.445312 136.152344 328.441406 98.183594 274.953125 98.183594 C 232.003906 98.183594 197.90625 134.546875 188.414062 145.765625 C 177.015625 132.269531 163.308594 120.796875 148.195312 111.664062 C 132.914062 102.847656 116.945312 98.199219 100.042969 98.199219 Z M 143.15625 117.738281 C 160.492188 126.660156 172.425781 139.03125 182.730469 152.289062 C 174.722656 161.734375 164.058594 174.527344 156.652344 183.328125 C 148.253906 173.460938 132.957031 154.730469 117.527344 148.71875 Z M 100.3125 153.054688 C 115.578125 153.457031 127.457031 159.921875 151.824219 189.164062 C 134.457031 209.828125 118.804688 222.8125 100.3125 222.8125 C 77.671875 222.8125 64.175781 207.964844 64.175781 188.171875 C 64.175781 168.378906 77.761719 152.453125 100.3125 153.054688 Z M 273.289062 153.054688 C 295.929688 153.054688 309.398438 168.4375 309.398438 188.171875 C 309.398438 207.890625 296.472656 222.675781 273.378906 222.8125 C 264.816406 222.257812 250.449219 222.421875 221.761719 188.113281 L 222.871094 186.761719 L 222.902344 186.792969 C 239.726562 166.878906 254.347656 153.054688 273.289062 153.054688 Z M 216.875 194.109375 C 226.023438 204.308594 243.792969 223.921875 257.558594 227.699219 L 232.304688 257.933594 L 232.273438 257.933594 C 220.984375 252.367188 201.820312 240.925781 191.546875 224.71875 L 216.875 194.125 Z M 216.875 194.109375 " fill-opacity="1" fill-rule="nonzero"/></g></svg>