<svg xmlns="http://www.w3.org/2000/svg" xmlns:xlink="http://www.w3.org/1999/xlink" width="500" zoomAndPan="magnify" viewBox="0 0 375 374.999991" height="500" preserveAspectRatio="xMidYMid meet" version="1.0"><defs><clipPath id="8912fd5465"><path d="M 6.679688 43 L 368.179688 43 L 368.179688 332 L 6.679688 332 Z M 6.679688 43 " clip-rule="nonzero"/></clipPath></defs><g clip-path="url(#8912fd5465)"><path fill="#ffffff" d="M 184.027344 176.042969 L 156.695312 176.042969 L 156.695312 130.265625 L 189.121094 130.265625 C 206.75 130.265625 216.757812 138.132812 216.757812 152.355469 C 216.757812 167.546875 205.109375 176.042969 184 176.042969 Z M 188.910156 194.214844 L 156.710938 194.214844 L 156.710938 244.664062 L 190.328125 244.664062 C 212.3125 244.664062 223.960938 235.847656 223.960938 219.273438 C 223.960938 202.699219 211.980469 194.214844 188.910156 194.214844 Z M 368.308594 178.304688 L 368.308594 196.65625 C 351.3125 198.285156 340.929688 210.878906 334.769531 230.828125 C 328.636719 250.703125 327.792969 275.085938 328.441406 293.902344 C 329.117188 313.492188 313.855469 331.574219 293.226562 331.574219 L 81.792969 331.574219 C 61.152344 331.574219 45.886719 313.492188 46.582031 293.902344 C 47.226562 275.085938 46.382812 250.703125 40.25 230.828125 C 34.074219 210.878906 23.675781 198.285156 6.679688 196.65625 L 6.679688 178.304688 C 23.675781 176.675781 34.089844 164.078125 40.238281 144.128906 C 46.382812 124.253906 47.226562 99.875 46.566406 81.054688 C 45.886719 61.46875 61.152344 43.386719 81.792969 43.386719 L 293.226562 43.386719 C 313.867188 43.386719 329.117188 61.46875 328.441406 81.054688 C 327.792969 99.875 328.636719 124.253906 334.769531 144.128906 C 340.929688 164.078125 351.3125 176.675781 368.308594 178.304688 Z M 248.867188 220.75 C 248.867188 200.347656 234.507812 185.597656 213.1875 183.261719 L 213.1875 182.402344 C 228.855469 179.855469 241.152344 165.300781 241.152344 149.058594 C 241.152344 125.898438 222.875 110.8125 195.015625 110.8125 L 132.332031 110.8125 L 132.332031 264.085938 L 195.332031 264.085938 C 228.75 264.085938 248.867188 247.722656 248.867188 220.75 Z M 248.867188 220.75 " fill-opacity="1" fill-rule="nonzero"/></g></svg>