<svg xmlns="http://www.w3.org/2000/svg" xmlns:xlink="http://www.w3.org/1999/xlink" width="500" zoomAndPan="magnify" viewBox="0 0 375 374.999991" height="500" preserveAspectRatio="xMidYMid meet" version="1.0"><defs><clipPath id="51e3fb7489"><path d="M 9.488281 9.488281 L 365.738281 9.488281 L 365.738281 365.738281 L 9.488281 365.738281 Z M 9.488281 9.488281 " clip-rule="nonzero"/></clipPath></defs><g clip-path="url(#51e3fb7489)"><path fill="#ffffff" d="M 187.496094 9.488281 C 88.878906 9.488281 9.488281 88.878906 9.488281 187.496094 C 9.488281 286.113281 88.878906 365.503906 187.496094 365.503906 C 286.113281 365.503906 365.503906 286.113281 365.503906 187.496094 C 365.503906 88.878906 286.113281 9.488281 187.496094 9.488281 Z M 229.03125 73.761719 C 230.957031 73.703125 232.710938 75.78125 231.566406 77.886719 L 186.414062 160.660156 C 186.296875 160.871094 186.210938 161.09375 186.15625 161.328125 C 186.097656 161.558594 186.074219 161.796875 186.078125 162.035156 C 186.082031 162.277344 186.117188 162.511719 186.183594 162.742188 C 186.25 162.972656 186.34375 163.191406 186.46875 163.398438 C 186.589844 163.605469 186.738281 163.792969 186.90625 163.960938 C 187.078125 164.128906 187.269531 164.269531 187.476562 164.390625 C 187.683594 164.507812 187.90625 164.597656 188.136719 164.660156 C 188.371094 164.722656 188.605469 164.753906 188.84375 164.753906 L 266.871094 164.753906 C 269.394531 164.753906 270.609375 167.824219 268.769531 169.546875 L 132 297.191406 C 129.554688 299.476562 125.917969 296.257812 127.878906 293.542969 L 192.613281 204.226562 C 192.914062 203.804688 193.085938 203.335938 193.125 202.820312 C 193.164062 202.300781 193.066406 201.8125 192.828125 201.351562 C 192.59375 200.886719 192.253906 200.519531 191.8125 200.25 C 191.371094 199.976562 190.890625 199.839844 190.371094 199.835938 L 107.792969 199.835938 C 107.230469 199.835938 106.714844 199.679688 106.25 199.363281 C 105.785156 199.050781 105.445312 198.632812 105.230469 198.113281 C 105.019531 197.59375 104.96875 197.058594 105.082031 196.507812 C 105.191406 195.957031 105.449219 195.484375 105.847656 195.089844 L 227.191406 74.59375 C 227.695312 74.066406 228.316406 73.789062 229.046875 73.761719 Z M 229.03125 73.761719 " fill-opacity="1" fill-rule="nonzero"/></g></svg>