<svg xmlns="http://www.w3.org/2000/svg" xmlns:xlink="http://www.w3.org/1999/xlink" width="500" zoomAndPan="magnify" viewBox="0 0 375 374.999991" height="500" preserveAspectRatio="xMidYMid meet" version="1.0"><defs><clipPath id="be40ef8872"><path d="M 30 5.839844 L 345 5.839844 L 345 368.839844 L 30 368.839844 Z M 30 5.839844 " clip-rule="nonzero"/></clipPath></defs><g clip-path="url(#be40ef8872)"><path fill="#ffffff" d="M 187.496094 5.839844 L 30.136719 96.667969 L 30.136719 278.324219 L 187.496094 369.15625 L 344.859375 278.324219 L 344.859375 96.667969 Z M 187.496094 27.183594 L 326.34375 107.339844 L 326.34375 267.652344 L 187.496094 347.808594 L 48.648438 267.652344 L 48.648438 107.339844 Z M 95.183594 132 C 75.414062 132 65.164062 146.472656 56.21875 168.484375 L 56.21875 263.277344 L 187.496094 339.089844 L 318.773438 263.277344 L 318.773438 172.886719 C 312.007812 168.890625 305.242188 166.652344 298.550781 166.652344 C 233.835938 166.652344 238.453125 240.601562 196.867188 254.453125 C 155.265625 268.335938 143.71875 132 95.183594 132 Z M 282.351562 138.917969 C 238.453125 138.917969 250.003906 210.550781 201.484375 210.550781 C 176.808594 210.550781 163.335938 190.613281 148.847656 180.5625 C 151.089844 185.5 153.390625 190.480469 155.539062 195.398438 C 162.609375 211.566406 169.496094 227.039062 176.414062 236.785156 C 179.867188 241.660156 183.304688 244.976562 186.164062 246.535156 C 186.773438 246.929688 187.425781 247.242188 188.109375 247.480469 C 188.796875 247.71875 189.503906 247.867188 190.226562 247.933594 C 190.949219 248 191.671875 247.980469 192.390625 247.871094 C 193.109375 247.761719 193.804688 247.570312 194.476562 247.292969 C 202.921875 244.460938 209.128906 238.648438 215.0625 230.457031 C 220.96875 222.269531 226.265625 211.867188 232.53125 201.453125 C 238.785156 191.039062 246.066406 180.488281 256.601562 172.417969 C 267.125 164.335938 280.929688 159.082031 298.535156 159.082031 C 305.574219 159.082031 312.28125 161.140625 318.773438 164.410156 L 318.773438 162.578125 C 309.191406 149.726562 298.367188 138.917969 282.351562 138.917969 Z M 181.230469 141.21875 C 168.089844 141.21875 158.660156 153.632812 149.800781 172.402344 C 151.226562 173.234375 152.707031 174.007812 153.996094 174.933594 C 170.042969 186.453125 181.214844 202.984375 201.484375 202.984375 C 211.746094 202.984375 217.636719 199.683594 222.949219 194.128906 C 212.019531 170.722656 201.273438 141.265625 181.230469 141.21875 Z M 181.230469 141.21875 " fill-opacity="1" fill-rule="nonzero"/></g></svg>