<svg xmlns="http://www.w3.org/2000/svg" xmlns:xlink="http://www.w3.org/1999/xlink" width="500" zoomAndPan="magnify" viewBox="0 0 375 374.999991" height="500" preserveAspectRatio="xMidYMid meet" version="1.0"><defs><clipPath id="dfa27f9f3c"><path d="M 73 7.523438 L 302 7.523438 L 302 367.523438 L 73 367.523438 Z M 73 7.523438 " clip-rule="nonzero"/></clipPath></defs><g clip-path="url(#dfa27f9f3c)"><path fill="#ffffff" d="M 187.5 7.523438 C 124.925781 7.539062 73.453125 59.011719 73.4375 121.582031 C 73.453125 184.15625 124.925781 235.628906 187.5 235.644531 C 250.070312 235.628906 301.542969 184.15625 301.558594 121.582031 C 301.542969 59.011719 250.070312 7.539062 187.5 7.523438 Z M 187.5 11.8125 C 247.730469 11.8125 297.285156 61.367188 297.285156 121.597656 C 297.269531 181.816406 247.714844 231.351562 187.5 231.351562 C 127.28125 231.351562 77.726562 181.800781 77.714844 121.582031 C 77.714844 61.351562 127.265625 11.796875 187.5 11.796875 Z M 187.5 72.402344 C 185.890625 72.410156 184.285156 72.496094 182.6875 72.660156 C 181.085938 72.824219 179.496094 73.066406 177.921875 73.386719 C 176.34375 73.703125 174.785156 74.101562 173.25 74.570312 C 171.710938 75.042969 170.199219 75.589844 168.714844 76.207031 C 167.230469 76.824219 165.777344 77.515625 164.359375 78.277344 C 162.941406 79.039062 161.566406 79.867188 160.230469 80.761719 C 158.894531 81.65625 157.601562 82.613281 156.359375 83.636719 C 155.117188 84.65625 153.925781 85.734375 152.789062 86.875 C 151.652344 88.011719 150.574219 89.199219 149.550781 90.445312 C 148.53125 91.6875 147.574219 92.976562 146.675781 94.3125 C 145.78125 95.648438 144.953125 97.027344 144.191406 98.445312 C 143.433594 99.863281 142.742188 101.3125 142.125 102.796875 C 141.503906 104.28125 140.960938 105.792969 140.488281 107.332031 C 140.015625 108.871094 139.621094 110.425781 139.300781 112.003906 C 138.984375 113.582031 138.742188 115.167969 138.578125 116.769531 C 138.414062 118.371094 138.328125 119.972656 138.320312 121.582031 L 138.320312 121.597656 C 138.328125 123.207031 138.417969 124.808594 138.582031 126.410156 C 138.746094 128.007812 138.988281 129.597656 139.308594 131.171875 C 139.628906 132.746094 140.027344 134.304688 140.5 135.839844 C 140.96875 137.378906 141.515625 138.890625 142.136719 140.375 C 142.753906 141.855469 143.445312 143.308594 144.207031 144.722656 C 144.96875 146.140625 145.796875 147.515625 146.691406 148.851562 C 147.585938 150.1875 148.546875 151.476562 149.566406 152.71875 C 150.585938 153.960938 151.667969 155.152344 152.804688 156.289062 C 153.941406 157.425781 155.132812 158.503906 156.375 159.523438 C 157.617188 160.546875 158.90625 161.503906 160.242188 162.398438 C 161.578125 163.292969 162.953125 164.121094 164.371094 164.882812 C 165.789062 165.640625 167.238281 166.332031 168.722656 166.953125 C 170.207031 167.570312 171.71875 168.117188 173.253906 168.585938 C 174.792969 169.058594 176.347656 169.453125 177.925781 169.773438 C 179.5 170.09375 181.089844 170.335938 182.6875 170.5 C 184.289062 170.667969 185.890625 170.753906 187.5 170.761719 C 189.109375 170.753906 190.710938 170.667969 192.3125 170.503906 C 193.914062 170.339844 195.5 170.097656 197.078125 169.777344 C 198.65625 169.460938 200.210938 169.066406 201.75 168.59375 C 203.289062 168.121094 204.800781 167.578125 206.285156 166.957031 C 207.769531 166.339844 209.21875 165.648438 210.636719 164.886719 C 212.054688 164.128906 213.433594 163.300781 214.769531 162.40625 C 216.105469 161.507812 217.394531 160.550781 218.636719 159.53125 C 219.878906 158.507812 221.070312 157.429688 222.207031 156.292969 C 223.34375 155.152344 224.425781 153.964844 225.445312 152.722656 C 226.46875 151.476562 227.425781 150.1875 228.320312 148.851562 C 229.214844 147.515625 230.042969 146.136719 230.804688 144.722656 C 231.566406 143.304688 232.253906 141.851562 232.875 140.367188 C 233.492188 138.882812 234.039062 137.371094 234.511719 135.832031 C 234.980469 134.296875 235.375 132.738281 235.695312 131.160156 C 236.015625 129.585938 236.257812 127.996094 236.421875 126.394531 C 236.585938 124.796875 236.671875 123.191406 236.675781 121.582031 C 236.671875 119.972656 236.585938 118.371094 236.421875 116.769531 C 236.257812 115.167969 236.015625 113.582031 235.695312 112.003906 C 235.375 110.425781 234.980469 108.871094 234.511719 107.332031 C 234.039062 105.792969 233.492188 104.28125 232.875 102.796875 C 232.253906 101.3125 231.566406 99.863281 230.804688 98.445312 C 230.042969 97.027344 229.214844 95.648438 228.320312 94.3125 C 227.425781 92.976562 226.46875 91.6875 225.445312 90.445312 C 224.425781 89.199219 223.34375 88.011719 222.207031 86.875 C 221.070312 85.734375 219.878906 84.65625 218.636719 83.636719 C 217.394531 82.613281 216.105469 81.65625 214.769531 80.761719 C 213.433594 79.867188 212.054688 79.039062 210.636719 78.277344 C 209.21875 77.515625 207.769531 76.824219 206.285156 76.207031 C 204.800781 75.589844 203.289062 75.042969 201.75 74.570312 C 200.210938 74.101562 198.65625 73.703125 197.078125 73.386719 C 195.5 73.066406 193.914062 72.824219 192.3125 72.660156 C 190.710938 72.496094 189.109375 72.410156 187.5 72.402344 Z M 132.605469 257.703125 L 132.484375 257.703125 C 130.695312 257.714844 128.90625 257.808594 127.125 257.992188 C 125.34375 258.175781 123.574219 258.445312 121.820312 258.800781 C 120.0625 259.15625 118.328125 259.597656 116.617188 260.125 C 114.902344 260.648438 113.21875 261.257812 111.566406 261.945312 C 109.914062 262.636719 108.296875 263.402344 106.71875 264.25 C 105.140625 265.097656 103.609375 266.019531 102.121094 267.019531 C 100.632812 268.015625 99.195312 269.082031 97.8125 270.21875 C 96.425781 271.355469 95.101562 272.558594 93.835938 273.824219 C 92.566406 275.09375 91.367188 276.417969 90.226562 277.800781 C 89.089844 279.1875 88.023438 280.621094 87.027344 282.109375 C 86.03125 283.597656 85.105469 285.132812 84.257812 286.710938 C 83.414062 288.289062 82.644531 289.90625 81.953125 291.558594 C 81.265625 293.210938 80.65625 294.894531 80.132812 296.609375 C 79.605469 298.320312 79.164062 300.054688 78.808594 301.8125 C 78.453125 303.566406 78.183594 305.335938 78 307.117188 C 77.816406 308.898438 77.722656 310.6875 77.714844 312.476562 L 77.714844 312.703125 C 77.722656 314.492188 77.816406 316.28125 78 318.0625 C 78.183594 319.84375 78.453125 321.613281 78.808594 323.371094 C 79.164062 325.125 79.605469 326.859375 80.132812 328.574219 C 80.65625 330.285156 81.265625 331.96875 81.953125 333.621094 C 82.644531 335.273438 83.414062 336.890625 84.257812 338.46875 C 85.105469 340.046875 86.03125 341.582031 87.027344 343.070312 C 88.023438 344.558594 89.089844 345.992188 90.226562 347.378906 C 91.367188 348.761719 92.566406 350.085938 93.835938 351.355469 C 95.101562 352.621094 96.425781 353.824219 97.8125 354.960938 C 99.195312 356.097656 100.632812 357.164062 102.121094 358.164062 C 103.609375 359.160156 105.140625 360.082031 106.71875 360.929688 C 108.296875 361.777344 109.914062 362.546875 111.566406 363.234375 C 113.21875 363.925781 114.902344 364.53125 116.617188 365.058594 C 118.328125 365.582031 120.0625 366.023438 121.820312 366.378906 C 123.574219 366.734375 125.34375 367.003906 127.125 367.1875 C 128.90625 367.371094 130.695312 367.464844 132.484375 367.476562 L 242.511719 367.476562 C 244.304688 367.464844 246.089844 367.371094 247.871094 367.1875 C 249.652344 367.003906 251.421875 366.734375 253.179688 366.378906 C 254.933594 366.023438 256.667969 365.582031 258.382812 365.058594 C 260.09375 364.53125 261.777344 363.925781 263.429688 363.234375 C 265.085938 362.546875 266.699219 361.777344 268.277344 360.929688 C 269.855469 360.082031 271.390625 359.160156 272.878906 358.164062 C 274.367188 357.164062 275.804688 356.097656 277.1875 354.960938 C 278.570312 353.824219 279.898438 352.621094 281.164062 351.355469 C 282.429688 350.085938 283.632812 348.761719 284.769531 347.378906 C 285.90625 345.992188 286.972656 344.558594 287.972656 343.070312 C 288.96875 341.582031 289.890625 340.046875 290.738281 338.46875 C 291.585938 336.890625 292.355469 335.273438 293.042969 333.621094 C 293.734375 331.96875 294.339844 330.285156 294.867188 328.574219 C 295.390625 326.859375 295.832031 325.125 296.1875 323.371094 C 296.542969 321.613281 296.8125 319.84375 296.996094 318.0625 C 297.179688 316.28125 297.277344 314.492188 297.285156 312.703125 L 297.285156 312.460938 C 297.277344 310.671875 297.179688 308.882812 296.996094 307.101562 C 296.8125 305.320312 296.542969 303.550781 296.1875 301.796875 C 295.832031 300.039062 295.390625 298.304688 294.867188 296.59375 C 294.339844 294.878906 293.734375 293.195312 293.042969 291.542969 C 292.355469 289.890625 291.585938 288.273438 290.738281 286.695312 C 289.890625 285.117188 288.96875 283.585938 287.972656 282.097656 C 286.972656 280.609375 285.90625 279.171875 284.769531 277.789062 C 283.632812 276.402344 282.429688 275.078125 281.164062 273.8125 C 279.898438 272.542969 278.570312 271.34375 277.1875 270.203125 C 275.804688 269.066406 274.367188 268 272.878906 267.003906 C 271.390625 266.003906 269.855469 265.082031 268.277344 264.234375 C 266.699219 263.390625 265.085938 262.621094 263.429688 261.929688 C 261.777344 261.242188 260.09375 260.632812 258.382812 260.109375 C 256.667969 259.582031 254.933594 259.140625 253.179688 258.785156 C 251.421875 258.429688 249.652344 258.160156 247.871094 257.976562 C 246.089844 257.792969 244.304688 257.699219 242.511719 257.691406 L 242.390625 257.691406 Z M 132.605469 257.703125 " fill-opacity="1" fill-rule="nonzero"/></g></svg>