<svg xmlns="http://www.w3.org/2000/svg" xmlns:xlink="http://www.w3.org/1999/xlink" width="500" zoomAndPan="magnify" viewBox="0 0 375 374.999991" height="500" preserveAspectRatio="xMidYMid meet" version="1.0"><defs><clipPath id="b61cfc47b0"><path d="M 7.945312 58 L 367.195312 58 L 367.195312 317 L 7.945312 317 Z M 7.945312 58 " clip-rule="nonzero"/></clipPath></defs><g clip-path="url(#b61cfc47b0)"><path fill="#ffffff" d="M 217.167969 173.703125 L 248.875 173.703125 C 249.242188 173.703125 249.597656 173.632812 249.9375 173.492188 C 250.277344 173.351562 250.578125 173.152344 250.839844 172.890625 C 251.097656 172.632812 251.300781 172.332031 251.441406 171.996094 C 251.585938 171.65625 251.65625 171.300781 251.660156 170.933594 L 251.660156 142.699219 C 251.660156 142.332031 251.589844 141.976562 251.445312 141.632812 C 251.304688 141.292969 251.105469 140.992188 250.84375 140.730469 C 250.582031 140.46875 250.28125 140.269531 249.941406 140.128906 C 249.601562 139.988281 249.246094 139.917969 248.875 139.917969 L 217.167969 139.917969 C 216.800781 139.917969 216.449219 139.988281 216.109375 140.125 C 215.769531 140.265625 215.472656 140.46875 215.210938 140.726562 C 214.953125 140.988281 214.753906 141.285156 214.613281 141.625 C 214.472656 141.964844 214.402344 142.316406 214.402344 142.683594 L 214.402344 170.933594 C 214.402344 172.460938 215.644531 173.703125 217.167969 173.703125 M 172.96875 92.453125 L 204.660156 92.453125 C 205.03125 92.453125 205.382812 92.382812 205.726562 92.242188 C 206.066406 92.101562 206.367188 91.898438 206.628906 91.640625 C 206.890625 91.378906 207.089844 91.078125 207.230469 90.734375 C 207.375 90.394531 207.445312 90.039062 207.445312 89.671875 L 207.445312 61.421875 C 207.441406 61.054688 207.371094 60.699219 207.226562 60.359375 C 207.085938 60.019531 206.882812 59.722656 206.625 59.460938 C 206.363281 59.203125 206.0625 59.003906 205.722656 58.863281 C 205.382812 58.722656 205.027344 58.652344 204.660156 58.652344 L 172.96875 58.652344 C 172.601562 58.652344 172.25 58.722656 171.910156 58.863281 C 171.570312 59.003906 171.269531 59.203125 171.011719 59.464844 C 170.753906 59.722656 170.550781 60.023438 170.410156 60.363281 C 170.269531 60.699219 170.199219 61.054688 170.199219 61.421875 L 170.199219 89.671875 C 170.199219 91.195312 171.429688 92.4375 172.96875 92.4375 M 172.96875 133.078125 L 204.660156 133.078125 C 205.027344 133.074219 205.382812 133.003906 205.722656 132.863281 C 206.0625 132.71875 206.363281 132.519531 206.625 132.257812 C 206.882812 132 207.085938 131.699219 207.226562 131.359375 C 207.371094 131.019531 207.441406 130.664062 207.445312 130.296875 L 207.445312 102.058594 C 207.441406 101.691406 207.371094 101.339844 207.226562 101 C 207.085938 100.660156 206.882812 100.359375 206.625 100.101562 C 206.363281 99.84375 206.0625 99.644531 205.722656 99.503906 C 205.382812 99.363281 205.027344 99.292969 204.660156 99.292969 L 172.96875 99.292969 C 172.601562 99.292969 172.25 99.363281 171.910156 99.503906 C 171.570312 99.644531 171.269531 99.84375 171.011719 100.101562 C 170.753906 100.363281 170.550781 100.660156 170.410156 101 C 170.269531 101.339844 170.199219 101.691406 170.199219 102.058594 L 170.199219 130.296875 C 170.199219 131.820312 171.429688 133.0625 172.96875 133.078125 M 129.128906 133.078125 L 160.847656 133.078125 C 161.214844 133.074219 161.566406 133 161.90625 132.859375 C 162.242188 132.714844 162.539062 132.511719 162.796875 132.253906 C 163.054688 131.992188 163.253906 131.691406 163.394531 131.351562 C 163.53125 131.015625 163.601562 130.660156 163.601562 130.296875 L 163.601562 102.058594 C 163.601562 101.691406 163.53125 101.339844 163.390625 101 C 163.25 100.660156 163.050781 100.363281 162.792969 100.101562 C 162.53125 99.84375 162.234375 99.644531 161.894531 99.503906 C 161.554688 99.363281 161.203125 99.292969 160.835938 99.292969 L 129.144531 99.292969 C 128.777344 99.292969 128.421875 99.363281 128.082031 99.503906 C 127.746094 99.644531 127.445312 99.84375 127.183594 100.101562 C 126.925781 100.363281 126.726562 100.660156 126.585938 101 C 126.445312 101.339844 126.375 101.691406 126.375 102.058594 L 126.375 130.296875 C 126.375 131.820312 127.617188 133.0625 129.144531 133.078125 M 84.792969 133.078125 L 116.5 133.078125 C 116.867188 133.074219 117.21875 133.003906 117.558594 132.863281 C 117.898438 132.71875 118.199219 132.519531 118.457031 132.257812 C 118.71875 131.996094 118.917969 131.695312 119.058594 131.355469 C 119.195312 131.015625 119.265625 130.664062 119.265625 130.296875 L 119.265625 102.058594 C 119.265625 101.691406 119.195312 101.339844 119.058594 101 C 118.917969 100.660156 118.714844 100.363281 118.457031 100.101562 C 118.195312 99.84375 117.898438 99.644531 117.558594 99.503906 C 117.21875 99.363281 116.867188 99.292969 116.5 99.292969 L 84.792969 99.292969 C 84.425781 99.292969 84.070312 99.363281 83.730469 99.503906 C 83.390625 99.644531 83.089844 99.84375 82.832031 100.101562 C 82.570312 100.359375 82.367188 100.660156 82.226562 101 C 82.082031 101.339844 82.011719 101.691406 82.011719 102.058594 L 82.011719 130.296875 C 82.011719 131.820312 83.265625 133.0625 84.792969 133.078125 M 172.96875 173.703125 L 204.660156 173.703125 C 205.027344 173.703125 205.382812 173.632812 205.722656 173.492188 C 206.0625 173.351562 206.363281 173.152344 206.625 172.890625 C 206.882812 172.632812 207.085938 172.332031 207.226562 171.996094 C 207.371094 171.65625 207.441406 171.300781 207.445312 170.933594 L 207.445312 142.699219 C 207.445312 142.332031 207.375 141.976562 207.230469 141.632812 C 207.089844 141.292969 206.890625 140.992188 206.628906 140.730469 C 206.367188 140.46875 206.066406 140.269531 205.726562 140.128906 C 205.382812 139.988281 205.03125 139.917969 204.660156 139.917969 L 172.96875 139.917969 C 172.601562 139.917969 172.25 139.988281 171.910156 140.125 C 171.570312 140.265625 171.269531 140.46875 171.011719 140.726562 C 170.753906 140.988281 170.550781 141.285156 170.410156 141.625 C 170.269531 141.964844 170.199219 142.316406 170.199219 142.683594 L 170.199219 170.933594 C 170.199219 172.460938 171.429688 173.703125 172.96875 173.703125 M 129.128906 173.703125 L 160.847656 173.703125 C 161.214844 173.699219 161.566406 173.628906 161.902344 173.488281 C 162.242188 173.347656 162.539062 173.144531 162.796875 172.886719 C 163.054688 172.628906 163.253906 172.328125 163.394531 171.988281 C 163.53125 171.652344 163.601562 171.300781 163.601562 170.933594 L 163.601562 142.699219 C 163.605469 142.332031 163.535156 141.980469 163.398438 141.640625 C 163.257812 141.300781 163.058594 141 162.800781 140.738281 C 162.542969 140.476562 162.246094 140.273438 161.90625 140.132812 C 161.570312 139.992188 161.214844 139.917969 160.847656 139.917969 L 129.128906 139.917969 C 128.761719 139.917969 128.410156 139.988281 128.074219 140.132812 C 127.734375 140.273438 127.4375 140.472656 127.179688 140.730469 C 126.921875 140.992188 126.722656 141.289062 126.585938 141.628906 C 126.445312 141.964844 126.375 142.320312 126.375 142.683594 L 126.375 170.933594 C 126.375 172.460938 127.617188 173.703125 129.144531 173.703125 M 84.792969 173.703125 L 116.5 173.703125 C 116.867188 173.703125 117.21875 173.632812 117.558594 173.492188 C 117.898438 173.351562 118.195312 173.152344 118.457031 172.890625 C 118.714844 172.632812 118.917969 172.332031 119.058594 171.992188 C 119.195312 171.65625 119.265625 171.300781 119.265625 170.933594 L 119.265625 142.699219 C 119.269531 142.332031 119.199219 141.980469 119.0625 141.640625 C 118.921875 141.300781 118.726562 141 118.46875 140.738281 C 118.210938 140.476562 117.910156 140.273438 117.574219 140.132812 C 117.234375 139.992188 116.882812 139.917969 116.515625 139.917969 L 84.792969 139.917969 C 84.425781 139.917969 84.070312 139.988281 83.726562 140.128906 C 83.386719 140.269531 83.085938 140.46875 82.824219 140.730469 C 82.5625 140.992188 82.363281 141.292969 82.222656 141.632812 C 82.082031 141.976562 82.011719 142.332031 82.011719 142.699219 L 82.011719 170.933594 C 82.011719 172.460938 83.265625 173.703125 84.792969 173.703125 M 41.101562 173.703125 L 72.824219 173.703125 C 73.1875 173.699219 73.539062 173.628906 73.878906 173.488281 C 74.214844 173.347656 74.511719 173.144531 74.769531 172.886719 C 75.027344 172.628906 75.226562 172.328125 75.367188 171.988281 C 75.507812 171.652344 75.574219 171.300781 75.574219 170.933594 L 75.574219 142.699219 C 75.578125 142.332031 75.507812 141.980469 75.371094 141.640625 C 75.230469 141.300781 75.035156 141 74.777344 140.738281 C 74.515625 140.476562 74.21875 140.273438 73.878906 140.132812 C 73.542969 139.992188 73.191406 139.917969 72.824219 139.917969 L 41.101562 139.917969 C 40.734375 139.917969 40.382812 139.988281 40.046875 140.132812 C 39.710938 140.273438 39.410156 140.472656 39.152344 140.730469 C 38.894531 140.992188 38.695312 141.289062 38.558594 141.628906 C 38.417969 141.964844 38.347656 142.320312 38.347656 142.683594 L 38.347656 170.933594 C 38.347656 172.460938 39.574219 173.703125 41.117188 173.703125 M 363.507812 155.925781 C 362.535156 155.164062 353.453125 148.296875 334.269531 148.296875 C 329.210938 148.308594 324.152344 148.746094 319.15625 149.597656 C 315.445312 124.160156 294.421875 111.742188 293.480469 111.203125 L 288.332031 108.226562 L 284.953125 113.117188 C 280.703125 119.671875 277.621094 126.914062 275.792969 134.515625 C 272.351562 149.027344 274.449219 162.675781 281.824219 174.332031 C 272.921875 179.296875 258.632812 180.511719 255.730469 180.617188 L 19.179688 180.617188 C 18.445312 180.617188 17.71875 180.6875 16.996094 180.832031 C 16.273438 180.976562 15.574219 181.1875 14.894531 181.46875 C 14.214844 181.753906 13.570312 182.097656 12.957031 182.503906 C 12.347656 182.914062 11.78125 183.375 11.261719 183.894531 C 10.738281 184.414062 10.273438 184.980469 9.863281 185.589844 C 9.453125 186.203125 9.109375 186.847656 8.824219 187.523438 C 8.542969 188.203125 8.328125 188.902344 8.183594 189.625 C 8.035156 190.34375 7.960938 191.070312 7.957031 191.808594 C 7.820312 202.167969 8.621094 212.457031 10.359375 222.667969 C 12.101562 232.882812 14.75 242.855469 18.3125 252.585938 C 26.46875 273.953125 38.585938 289.695312 54.375 299.332031 C 72.03125 310.148438 100.757812 316.34375 133.300781 316.34375 C 148.011719 316.386719 162.675781 315.058594 177.144531 312.363281 C 187.191406 310.519531 197.015625 307.851562 206.613281 304.363281 C 216.214844 300.875 225.457031 296.613281 234.347656 291.578125 C 249.011719 283.097656 262.179688 272.308594 273.398438 259.621094 C 292.132812 238.402344 303.296875 214.777344 311.601562 193.78125 L 314.90625 193.78125 C 335.4375 193.78125 348.050781 185.566406 355.007812 178.683594 C 359.632812 174.300781 363.238281 168.960938 365.585938 163.035156 L 367.054688 158.722656 Z M 363.507812 155.925781 " fill-opacity="1" fill-rule="nonzero"/></g></svg>