<svg xmlns="http://www.w3.org/2000/svg" xmlns:xlink="http://www.w3.org/1999/xlink" width="500" zoomAndPan="magnify" viewBox="0 0 375 374.999991" height="500" preserveAspectRatio="xMidYMid meet" version="1.0"><defs><clipPath id="7e80eb1120"><path d="M 7.804688 25 L 367.054688 25 L 367.054688 350 L 7.804688 350 Z M 7.804688 25 " clip-rule="nonzero"/></clipPath></defs><g clip-path="url(#7e80eb1120)"><path fill="#ffffff" d="M 7.804688 308.554688 C 8.445312 316.488281 11.246094 324.472656 18.554688 335.179688 C 27.238281 347.890625 42.15625 354.871094 53.042969 343.667969 C 60.378906 336.105469 139.804688 197.277344 178.078125 144.65625 C 178.339844 144.28125 178.625 143.921875 178.929688 143.582031 C 179.234375 143.242188 179.558594 142.921875 179.902344 142.621094 C 180.242188 142.316406 180.605469 142.039062 180.980469 141.777344 C 181.359375 141.519531 181.75 141.285156 182.15625 141.074219 C 182.558594 140.863281 182.976562 140.675781 183.402344 140.515625 C 183.832031 140.355469 184.265625 140.21875 184.710938 140.109375 C 185.15625 140.003906 185.605469 139.921875 186.058594 139.867188 C 186.511719 139.8125 186.964844 139.785156 187.421875 139.785156 C 187.878906 139.785156 188.335938 139.8125 188.789062 139.867188 C 189.242188 139.921875 189.691406 140.003906 190.136719 140.109375 C 190.578125 140.21875 191.015625 140.355469 191.445312 140.515625 C 191.871094 140.675781 192.289062 140.863281 192.691406 141.074219 C 193.097656 141.285156 193.488281 141.519531 193.867188 141.777344 C 194.242188 142.039062 194.601562 142.316406 194.945312 142.621094 C 195.289062 142.921875 195.613281 143.242188 195.917969 143.582031 C 196.222656 143.921875 196.507812 144.28125 196.769531 144.65625 C 235.042969 197.277344 314.46875 336.105469 321.804688 343.667969 C 332.691406 354.871094 347.605469 347.890625 356.292969 335.179688 C 364.828125 322.675781 367.195312 313.914062 367.195312 304.539062 C 367.195312 298.160156 243.503906 67.972656 231.042969 48.804688 C 219.066406 30.386719 215.410156 26.371094 195.152344 25.710938 L 179.695312 25.710938 C 159.4375 26.371094 155.78125 30.371094 143.789062 48.804688 C 131.597656 67.566406 12.746094 288.695312 7.804688 303.851562 Z M 7.804688 308.554688 " fill-opacity="1" fill-rule="nonzero"/></g></svg>