<svg xmlns="http://www.w3.org/2000/svg" xmlns:xlink="http://www.w3.org/1999/xlink" width="500" zoomAndPan="magnify" viewBox="0 0 375 374.999991" height="500" preserveAspectRatio="xMidYMid meet" version="1.0"><defs><clipPath id="29323f915c"><path d="M 6.457031 82 L 370.207031 82 L 370.207031 294 L 6.457031 294 Z M 6.457031 82 " clip-rule="nonzero"/></clipPath></defs><g clip-path="url(#29323f915c)"><path fill="#ffffff" d="M 370.335938 288 C 369.679688 288.246094 369.015625 288.464844 368.339844 288.652344 C 367.664062 288.839844 366.984375 288.996094 366.292969 289.121094 C 365.605469 289.246094 364.910156 289.34375 364.214844 289.40625 C 363.515625 289.46875 362.816406 289.5 362.117188 289.5 C 361.414062 289.496094 360.714844 289.464844 360.019531 289.402344 C 359.320312 289.339844 358.628906 289.242188 357.9375 289.117188 C 357.25 288.988281 356.570312 288.832031 355.894531 288.644531 C 355.21875 288.453125 354.554688 288.234375 353.898438 287.988281 C 353.246094 287.738281 352.601562 287.460938 351.972656 287.152344 C 351.34375 286.847656 350.730469 286.511719 350.128906 286.148438 C 349.53125 285.785156 348.949219 285.398438 348.386719 284.980469 C 347.820312 284.566406 347.277344 284.125 346.753906 283.660156 C 346.230469 283.195312 345.726562 282.710938 345.246094 282.199219 C 344.765625 281.6875 344.3125 281.15625 343.878906 280.605469 C 343.449219 280.054688 343.042969 279.484375 342.660156 278.894531 C 342.28125 278.308594 341.929688 277.703125 341.601562 277.082031 L 289.296875 204.746094 L 281.714844 194.632812 L 221.023438 277.175781 C 220.410156 278.363281 219.695312 279.492188 218.878906 280.554688 C 218.0625 281.617188 217.15625 282.597656 216.164062 283.492188 C 215.167969 284.390625 214.105469 285.195312 212.964844 285.898438 C 211.824219 286.605469 210.632812 287.203125 209.386719 287.691406 C 208.140625 288.183594 206.859375 288.558594 205.542969 288.816406 C 204.230469 289.074219 202.902344 289.210938 201.5625 289.230469 C 200.222656 289.25 198.894531 289.148438 197.574219 288.925781 C 196.253906 288.703125 194.960938 288.363281 193.703125 287.910156 L 271.90625 182.988281 L 199.160156 88.214844 C 200.457031 87.746094 201.785156 87.394531 203.144531 87.152344 C 204.503906 86.910156 205.875 86.789062 207.253906 86.78125 C 208.632812 86.777344 210.003906 86.886719 211.363281 87.117188 C 212.722656 87.34375 214.054688 87.6875 215.359375 88.144531 C 216.660156 88.601562 217.914062 89.164062 219.121094 89.835938 C 220.324219 90.507812 221.464844 91.273438 222.539062 92.140625 C 223.613281 93.007812 224.605469 93.957031 225.515625 94.996094 C 226.429688 96.03125 227.246094 97.136719 227.96875 98.3125 L 282.183594 171.542969 L 336.707031 98.617188 C 337.324219 97.445312 338.042969 96.339844 338.859375 95.300781 C 339.679688 94.265625 340.585938 93.308594 341.578125 92.433594 C 342.574219 91.5625 343.636719 90.785156 344.773438 90.105469 C 345.90625 89.425781 347.09375 88.855469 348.332031 88.390625 C 349.570312 87.929688 350.84375 87.582031 352.144531 87.351562 C 353.449219 87.117188 354.761719 87.007812 356.082031 87.015625 C 357.40625 87.023438 358.714844 87.152344 360.015625 87.398438 C 361.316406 87.644531 362.582031 88.007812 363.816406 88.488281 L 335.585938 125.953125 L 297.347656 175.726562 C 296.816406 176.203125 296.339844 176.726562 295.921875 177.300781 C 295.5 177.875 295.144531 178.484375 294.851562 179.132812 C 294.5625 179.785156 294.34375 180.457031 294.195312 181.152344 C 294.046875 181.847656 293.972656 182.550781 293.972656 183.261719 C 293.972656 183.972656 294.046875 184.679688 294.195312 185.375 C 294.34375 186.070312 294.5625 186.742188 294.851562 187.390625 C 295.144531 188.039062 295.5 188.652344 295.921875 189.226562 C 296.339844 189.800781 296.816406 190.324219 297.347656 190.796875 L 370.183594 288.015625 Z M 6.484375 181.6875 L 12.855469 150.226562 C 30.351562 88.019531 101.671875 62.136719 150.734375 100.648438 C 179.464844 123.222656 186.636719 155.183594 185.226562 191.207031 L 23.375 191.207031 C 20.753906 255.539062 67.179688 294.382812 126.535156 274.535156 C 128.933594 273.671875 131.265625 272.667969 133.539062 271.515625 C 135.808594 270.363281 138.003906 269.078125 140.117188 267.65625 C 142.230469 266.234375 144.246094 264.6875 146.167969 263.015625 C 148.089844 261.34375 149.902344 259.5625 151.601562 257.664062 C 153.304688 255.769531 154.882812 253.777344 156.339844 251.6875 C 157.792969 249.597656 159.113281 247.425781 160.300781 245.171875 C 161.488281 242.917969 162.53125 240.601562 163.433594 238.21875 C 164.332031 235.835938 165.082031 233.40625 165.683594 230.929688 C 168.820312 220.832031 173.992188 219.105469 183.484375 222.015625 C 183.089844 225.085938 182.523438 228.121094 181.785156 231.128906 C 181.046875 234.132812 180.144531 237.089844 179.070312 239.992188 C 178 242.894531 176.769531 245.726562 175.378906 248.492188 C 173.984375 251.257812 172.441406 253.933594 170.75 256.523438 C 169.054688 259.113281 167.21875 261.597656 165.242188 263.980469 C 163.269531 266.363281 161.164062 268.625 158.933594 270.769531 C 156.703125 272.914062 154.359375 274.925781 151.898438 276.804688 C 149.441406 278.683594 146.882812 280.421875 144.230469 282.011719 C 142.046875 283.203125 139.820312 284.3125 137.550781 285.328125 C 135.28125 286.347656 132.976562 287.277344 130.632812 288.117188 C 128.292969 288.953125 125.921875 289.699219 123.519531 290.351562 C 121.117188 291.003906 118.695312 291.558594 116.25 292.023438 C 113.808594 292.484375 111.347656 292.851562 108.875 293.117188 C 106.402344 293.386719 103.921875 293.558594 101.433594 293.632812 C 98.949219 293.707031 96.460938 293.683594 93.976562 293.5625 C 91.492188 293.441406 89.015625 293.226562 86.550781 292.910156 C 84.082031 292.59375 81.628906 292.183594 79.195312 291.675781 C 76.757812 291.167969 74.347656 290.566406 71.957031 289.871094 C 69.570312 289.171875 67.214844 288.382812 64.886719 287.5 C 62.5625 286.621094 60.273438 285.648438 58.023438 284.585938 C 55.773438 283.523438 53.566406 282.378906 51.40625 281.140625 C 49.25 279.90625 47.140625 278.589844 45.082031 277.191406 C 43.027344 275.792969 41.027344 274.3125 39.089844 272.757812 C 37.148438 271.199219 35.269531 269.570312 33.457031 267.863281 C 29.871094 263.824219 26.632812 259.523438 23.742188 254.957031 C 20.855469 250.394531 18.351562 245.625 16.238281 240.652344 C 14.125 235.679688 12.429688 230.570312 11.144531 225.324219 C 9.863281 220.074219 9.011719 214.757812 8.59375 209.371094 C 8.59375 205.808594 7.378906 202.472656 6.5625 199.273438 C 6.488281 193.417969 6.453125 187.558594 6.457031 181.703125 Z M 23.574219 177.351562 L 169.945312 177.351562 C 169.035156 130.710938 139.605469 97.628906 100.351562 97.328125 C 56.65625 96.71875 25.394531 129.074219 23.46875 177.136719 Z M 23.574219 177.351562 " fill-opacity="1" fill-rule="nonzero"/></g></svg>