<svg xmlns="http://www.w3.org/2000/svg" xmlns:xlink="http://www.w3.org/1999/xlink" width="500" zoomAndPan="magnify" viewBox="0 0 375 374.999991" height="500" preserveAspectRatio="xMidYMid meet" version="1.0"><defs><clipPath id="4dccaeccc4"><path d="M 62 7.382812 L 313 7.382812 L 313 367.382812 L 62 367.382812 Z M 62 7.382812 " clip-rule="nonzero"/></clipPath></defs><g clip-path="url(#4dccaeccc4)"><path fill="#ffffff" d="M 245.316406 142.183594 L 176.453125 142.183594 L 176.453125 7.382812 L 245.316406 7.382812 C 282.480469 7.382812 312.710938 37.613281 312.710938 74.777344 C 312.710938 111.941406 282.480469 142.183594 245.316406 142.183594 Z M 198.53125 120.105469 L 245.316406 120.105469 C 270.308594 120.105469 290.632812 99.765625 290.632812 74.789062 C 290.632812 49.816406 270.292969 29.476562 245.316406 29.476562 L 198.53125 29.476562 Z M 198.53125 142.183594 L 129.683594 142.183594 C 92.515625 142.183594 62.289062 111.957031 62.289062 74.789062 C 62.289062 37.625 92.515625 7.382812 129.683594 7.382812 L 198.546875 7.382812 L 198.546875 142.183594 Z M 129.683594 29.460938 C 104.691406 29.460938 84.367188 49.800781 84.367188 74.777344 C 84.367188 99.753906 104.691406 120.105469 129.683594 120.105469 L 176.46875 120.105469 L 176.46875 29.460938 Z M 198.53125 254.894531 L 129.683594 254.894531 C 92.515625 254.894531 62.289062 224.664062 62.289062 187.5 C 62.289062 150.335938 92.515625 120.105469 129.683594 120.105469 L 198.546875 120.105469 L 198.546875 254.894531 Z M 129.683594 142.183594 C 104.691406 142.183594 84.367188 162.523438 84.367188 187.5 C 84.367188 212.476562 104.707031 232.8125 129.683594 232.8125 L 176.46875 232.8125 L 176.46875 142.183594 Z M 130.042969 367.617188 C 92.683594 367.617188 62.273438 337.386719 62.273438 300.222656 C 62.273438 263.058594 92.503906 232.828125 129.667969 232.828125 L 198.53125 232.828125 L 198.53125 299.488281 C 198.53125 337.054688 167.804688 367.617188 130.042969 367.617188 Z M 129.683594 254.894531 C 128.199219 254.894531 126.71875 254.96875 125.242188 255.117188 C 123.765625 255.265625 122.300781 255.484375 120.84375 255.773438 C 119.390625 256.066406 117.953125 256.425781 116.535156 256.859375 C 115.113281 257.289062 113.71875 257.789062 112.351562 258.359375 C 110.980469 258.925781 109.640625 259.5625 108.332031 260.261719 C 107.023438 260.960938 105.753906 261.722656 104.519531 262.546875 C 103.289062 263.375 102.097656 264.257812 100.949219 265.199219 C 99.804688 266.140625 98.707031 267.132812 97.65625 268.183594 C 96.609375 269.230469 95.613281 270.328125 94.671875 271.476562 C 93.730469 272.625 92.847656 273.8125 92.023438 275.046875 C 91.199219 276.28125 90.433594 277.550781 89.734375 278.859375 C 89.035156 280.167969 88.402344 281.503906 87.832031 282.875 C 87.265625 284.246094 86.765625 285.640625 86.332031 287.058594 C 85.898438 288.480469 85.539062 289.917969 85.246094 291.371094 C 84.957031 292.824219 84.738281 294.292969 84.589844 295.769531 C 84.445312 297.242188 84.371094 298.722656 84.367188 300.207031 C 84.367188 325.199219 104.855469 345.523438 130.058594 345.523438 C 155.648438 345.523438 176.480469 324.867188 176.480469 299.472656 L 176.480469 254.894531 Z M 245.316406 254.894531 L 243.847656 254.894531 C 206.683594 254.894531 176.453125 224.664062 176.453125 187.5 C 176.453125 150.335938 206.683594 120.105469 243.847656 120.105469 L 245.316406 120.105469 C 282.480469 120.105469 312.710938 150.335938 312.710938 187.5 C 312.710938 224.664062 282.480469 254.894531 245.316406 254.894531 Z M 243.859375 142.183594 C 218.871094 142.183594 198.546875 162.523438 198.546875 187.5 C 198.546875 212.476562 218.882812 232.8125 243.859375 232.8125 L 245.332031 232.8125 C 270.324219 232.8125 290.644531 212.476562 290.644531 187.5 C 290.644531 162.523438 270.308594 142.183594 245.332031 142.183594 Z M 243.859375 142.183594 " fill-opacity="1" fill-rule="nonzero"/></g></svg>