<svg xmlns="http://www.w3.org/2000/svg" xmlns:xlink="http://www.w3.org/1999/xlink" width="500" zoomAndPan="magnify" viewBox="0 0 375 374.999991" height="500" preserveAspectRatio="xMidYMid meet" version="1.0"><defs><clipPath id="42b9fd4ddb"><path d="M 44 8.503906 L 331 8.503906 L 331 366.253906 L 44 366.253906 Z M 44 8.503906 " clip-rule="nonzero"/></clipPath></defs><g clip-path="url(#42b9fd4ddb)"><path fill="#ffffff" d="M 298.695312 133.335938 C 290.671875 122.179688 272.175781 99.253906 243.789062 65.1875 C 231.46875 50.402344 220.894531 37.859375 215.6875 31.699219 C 213.269531 28.828125 210.84375 25.964844 208.410156 23.109375 L 205.320312 19.453125 L 203.636719 17.46875 L 203.308594 16.992188 L 203.160156 16.917969 L 196 8.503906 L 186.914062 15.785156 C 163.722656 34.371094 144.734375 58.308594 132.007812 84.996094 C 124.207031 100.863281 119.121094 116.390625 116.453125 132.367188 C 115.75 135.960938 115.140625 139.660156 114.648438 143.375 C 111.53125 143.121094 108.367188 142.957031 105.21875 142.882812 C 104.953125 142.867188 104.699219 142.851562 104.339844 142.839844 C 92.792969 142.433594 81.457031 143.796875 70.332031 146.925781 L 65.601562 148.253906 L 63.171875 152.519531 C 51.761719 172.535156 45.300781 195.3125 44.496094 218.386719 C 43.453125 248.371094 51.613281 277.367188 68.109375 302.289062 C 84.25 326.648438 107.039062 345.277344 134.039062 356.152344 L 137.558594 357.570312 L 138.617188 357.941406 L 138.660156 357.925781 C 152.839844 363.0625 167.460938 365.886719 182.53125 366.398438 C 184.230469 366.460938 185.929688 366.488281 187.632812 366.488281 C 206.621094 366.488281 225.113281 362.773438 242.671875 355.421875 L 242.789062 355.480469 L 247.460938 353.320312 C 253.351562 350.59375 259.035156 347.480469 264.503906 343.984375 C 269.976562 340.488281 275.1875 336.640625 280.136719 332.4375 C 285.085938 328.234375 289.726562 323.714844 294.0625 318.882812 C 298.398438 314.050781 302.390625 308.945312 306.035156 303.574219 C 321.101562 281.347656 329.558594 255.335938 330.511719 228.367188 C 331.628906 196.132812 320.921875 164.167969 298.695312 133.335938 M 193.046875 233.199219 C 197.9375 251.753906 196.984375 269.59375 190.195312 286.269531 C 173.265625 269.566406 160.855469 251.1875 153.28125 231.605469 C 145.179688 210.660156 140.304688 190.734375 138.75 172.3125 C 145.910156 174.65625 152.503906 177.773438 158.367188 181.589844 C 175.25 192.582031 186.914062 209.960938 193.046875 233.214844 Z M 196.132812 323.023438 C 203.324219 328.511719 210.898438 333.644531 218.703125 338.359375 C 207.199219 341.488281 195.359375 342.863281 183.367188 342.429688 C 181.507812 342.363281 179.652344 342.253906 177.800781 342.101562 C 184.632812 336.226562 190.765625 329.824219 196.117188 323.023438 Z M 216.226562 227.097656 C 208.527344 197.910156 193.449219 175.832031 171.449219 161.5 C 161.796875 155.21875 150.789062 150.445312 138.722656 147.328125 C 138.886719 145.328125 139.109375 143.332031 139.363281 141.363281 C 139.570312 139.675781 139.8125 138.140625 140.050781 136.691406 C 142.03125 126.414062 145 116.257812 148.835938 106.488281 C 150.3125 102.757812 151.90625 99.046875 153.621094 95.449219 L 153.683594 95.332031 C 156.324219 89.992188 159.289062 84.605469 162.78125 78.847656 L 164.152344 76.582031 L 164.109375 76.566406 C 172.222656 63.875 181.964844 52.296875 193.074219 42.097656 L 197.371094 47.183594 C 207.394531 59.054688 216.820312 70.273438 225.382812 80.550781 C 244.640625 103.652344 269.625 133.992188 279.261719 147.371094 C 298.308594 173.789062 307.496094 200.757812 306.558594 227.546875 C 305.824219 248.355469 299.679688 268.640625 288.730469 286.210938 C 278.378906 302.859375 263.957031 316.789062 246.96875 326.605469 C 237.480469 321.859375 223.714844 314.089844 209.09375 302.753906 C 220.878906 279.261719 223.296875 253.828125 216.242188 227.097656 Z M 177.816406 307.601562 C 167.003906 321.605469 154.144531 330.71875 146.640625 335.285156 C 145.433594 334.851562 144.210938 334.390625 143.015625 333.898438 L 142.046875 333.511719 C 119.824219 324.320312 101.074219 308.808594 87.828125 288.613281 C 74.300781 267.96875 67.601562 243.96875 68.46875 219.207031 C 69.078125 201.457031 73.507812 184.5 81.625 168.808594 C 86.335938 167.761719 91.140625 167.105469 95.941406 166.851562 L 97.195312 166.824219 C 99.613281 166.777344 102.027344 166.777344 104.324219 166.824219 C 107.710938 166.988281 111.097656 167.34375 114.421875 167.867188 C 115.511719 190.433594 121.0625 214.777344 130.90625 240.238281 C 140.40625 264.761719 156.171875 287.40625 177.800781 307.585938 Z M 177.816406 307.601562 " fill-opacity="1" fill-rule="nonzero"/></g></svg>