<svg xmlns="http://www.w3.org/2000/svg" xmlns:xlink="http://www.w3.org/1999/xlink" width="500" zoomAndPan="magnify" viewBox="0 0 375 374.999991" height="500" preserveAspectRatio="xMidYMid meet" version="1.0"><defs><clipPath id="8336da39bd"><path d="M 8.140625 12 L 367.390625 12 L 367.390625 364 L 8.140625 364 Z M 8.140625 12 " clip-rule="nonzero"/></clipPath></defs><g clip-path="url(#8336da39bd)"><path fill="#ffffff" d="M 187.695312 12.863281 C 88.492188 12.863281 8.140625 93.261719 8.140625 192.417969 C 8.140625 271.765625 59.582031 339.054688 130.910156 362.773438 C 139.886719 364.460938 143.179688 358.910156 143.179688 354.136719 C 143.179688 349.875 143.03125 338.578125 142.957031 323.613281 C 93.007812 334.445312 82.476562 299.523438 82.476562 299.523438 C 74.304688 278.800781 62.5 273.265625 62.5 273.265625 C 46.234375 262.132812 63.757812 262.355469 63.757812 262.355469 C 81.789062 263.613281 91.257812 280.851562 91.257812 280.851562 C 107.269531 308.308594 133.289062 300.375 143.554688 295.78125 C 145.171875 284.171875 149.792969 276.257812 154.925781 271.765625 C 115.050781 267.277344 73.140625 251.835938 73.140625 183.039062 C 73.140625 163.4375 80.097656 147.425781 91.617188 134.855469 C 89.597656 130.324219 83.539062 112.070312 93.1875 87.335938 C 93.1875 87.335938 108.226562 82.515625 142.566406 105.738281 C 156.929688 101.746094 172.191406 99.769531 187.457031 99.679688 C 202.71875 99.769531 217.980469 101.746094 232.34375 105.738281 C 266.460938 82.515625 281.496094 87.335938 281.496094 87.335938 C 291.148438 112.070312 285.089844 130.324219 283.292969 134.855469 C 294.738281 147.425781 301.695312 163.4375 301.695312 183.039062 C 301.695312 252.015625 259.726562 267.203125 219.773438 271.617188 C 226.058594 277.003906 231.894531 288.015625 231.894531 304.835938 C 231.894531 328.867188 231.671875 348.167969 231.671875 354.003906 C 231.671875 358.71875 234.8125 364.328125 244.015625 362.53125 C 315.851562 338.980469 367.25 271.648438 367.25 192.417969 C 367.25 93.261719 286.855469 12.863281 187.695312 12.863281 " fill-opacity="1" fill-rule="nonzero"/></g></svg>