<svg xmlns="http://www.w3.org/2000/svg" xmlns:xlink="http://www.w3.org/1999/xlink" width="500" zoomAndPan="magnify" viewBox="0 0 375 374.999991" height="500" preserveAspectRatio="xMidYMid meet" version="1.0"><defs><clipPath id="6691d0635d"><path d="M 7.578125 43 L 365.328125 43 L 365.328125 331 L 7.578125 331 Z M 7.578125 43 " clip-rule="nonzero"/></clipPath></defs><g clip-path="url(#6691d0635d)"><path fill="#ffffff" d="M 189.40625 43.359375 C 187.476562 43.316406 185.546875 43.308594 183.617188 43.34375 C 181.6875 43.382812 179.761719 43.457031 177.835938 43.570312 C 175.910156 43.6875 173.984375 43.84375 172.066406 44.039062 C 170.148438 44.234375 168.230469 44.46875 166.320312 44.742188 C 164.414062 45.019531 162.507812 45.332031 160.613281 45.6875 C 158.714844 46.039062 156.828125 46.433594 154.945312 46.867188 C 153.066406 47.296875 151.195312 47.769531 149.335938 48.277344 C 147.472656 48.789062 145.625 49.335938 143.785156 49.925781 C 141.949219 50.511719 140.121094 51.136719 138.308594 51.796875 C 136.5 52.460938 134.699219 53.160156 132.917969 53.898438 C 131.132812 54.636719 129.367188 55.410156 127.617188 56.222656 C 125.867188 57.03125 124.132812 57.878906 122.417969 58.761719 C 120.699219 59.644531 119.003906 60.5625 117.328125 61.515625 C 115.648438 62.46875 113.992188 63.457031 112.355469 64.476562 C 110.71875 65.5 109.101562 66.554688 107.511719 67.644531 C 105.917969 68.734375 104.347656 69.855469 102.800781 71.007812 C 101.253906 72.164062 99.734375 73.347656 98.238281 74.566406 C 96.742188 75.785156 95.269531 77.03125 93.824219 78.308594 C 92.378906 79.589844 90.960938 80.894531 89.570312 82.234375 C 88.179688 83.570312 86.816406 84.9375 85.484375 86.332031 C 84.148438 87.726562 82.84375 89.144531 81.570312 90.59375 C 80.292969 92.042969 79.050781 93.515625 77.835938 95.015625 C 76.621094 96.515625 75.441406 98.039062 74.289062 99.589844 C 73.136719 101.136719 72.019531 102.710938 70.933594 104.304688 C 69.851562 105.902344 68.796875 107.519531 67.78125 109.15625 C 66.761719 110.796875 65.777344 112.457031 64.828125 114.136719 C 63.878906 115.816406 62.964844 117.515625 62.085938 119.234375 C 61.210938 120.949219 60.367188 122.6875 59.558594 124.4375 C 58.753906 126.191406 57.984375 127.960938 57.25 129.746094 C 56.519531 131.53125 55.820312 133.328125 55.164062 135.144531 C 54.503906 136.957031 53.886719 138.785156 53.300781 140.625 C 52.71875 142.460938 52.175781 144.3125 51.671875 146.175781 C 52.460938 145.878906 50.851562 146.371094 51.671875 146.175781 C -6.128906 184.226562 -6.832031 267.144531 47.984375 309.371094 L 48.074219 309.265625 L 47.972656 309.714844 C 52.320312 312.996094 56.90625 315.90625 61.726562 318.441406 C 66.550781 320.976562 71.546875 323.101562 76.714844 324.820312 C 81.886719 326.539062 87.160156 327.828125 92.542969 328.6875 C 97.921875 329.546875 103.335938 329.964844 108.785156 329.941406 L 185.945312 329.941406 L 186.390625 330.386719 L 263.835938 330.386719 C 363.578125 331.179688 403.6875 202.035156 321.039062 146.175781 C 319.269531 139.648438 317.035156 133.285156 314.339844 127.082031 C 311.648438 120.878906 308.519531 114.902344 304.957031 109.15625 C 301.394531 103.40625 297.433594 97.945312 293.078125 92.773438 C 288.722656 87.597656 284.019531 82.769531 278.960938 78.277344 L 278.320312 78.917969 L 278.410156 78.171875 C 275.359375 75.484375 272.195312 72.929688 268.921875 70.515625 C 265.648438 68.105469 262.277344 65.839844 258.804688 63.71875 C 255.332031 61.601562 251.773438 59.636719 248.132812 57.832031 C 244.488281 56.023438 240.773438 54.378906 236.984375 52.898438 C 233.195312 51.417969 229.351562 50.105469 225.449219 48.960938 C 221.546875 47.816406 217.601562 46.84375 213.613281 46.042969 C 209.625 45.242188 205.609375 44.621094 201.566406 44.171875 C 197.523438 43.722656 193.472656 43.453125 189.40625 43.359375 Z M 184.066406 105.203125 C 202.621094 104.605469 221.625 110.691406 236.0625 122.355469 C 238.277344 124.203125 240.378906 126.167969 242.375 128.253906 C 244.371094 130.335938 246.242188 132.523438 247.992188 134.816406 C 249.742188 137.109375 251.355469 139.492188 252.839844 141.964844 C 254.324219 144.441406 255.664062 146.988281 256.859375 149.613281 C 258.058594 152.234375 259.105469 154.917969 260.003906 157.660156 C 260.902344 160.398438 261.644531 163.183594 262.230469 166.007812 C 262.820312 168.828125 263.246094 171.675781 263.515625 174.550781 C 263.78125 177.421875 263.890625 180.296875 263.835938 183.183594 L 263.835938 190.910156 C 316.488281 189.863281 316.488281 269.398438 263.835938 268.367188 L 186.375 268.367188 L 186.257812 268.5 L 186.257812 267.90625 L 108.785156 267.90625 C 103.230469 267.90625 97.925781 266.761719 92.867188 264.472656 L 92.882812 264.472656 C 92.171875 264.152344 91.472656 263.808594 90.785156 263.445312 C 90.09375 263.082031 89.417969 262.699219 88.75 262.292969 C 88.085938 261.890625 87.429688 261.464844 86.789062 261.019531 C 86.152344 260.578125 85.523438 260.113281 84.910156 259.632812 C 84.296875 259.148438 83.703125 258.648438 83.117188 258.132812 C 82.535156 257.613281 81.96875 257.078125 81.421875 256.527344 C 80.871094 255.976562 80.335938 255.40625 79.820312 254.820312 C 79.304688 254.238281 78.808594 253.636719 78.328125 253.023438 C 77.847656 252.410156 77.386719 251.78125 76.945312 251.140625 C 76.503906 250.496094 76.082031 249.84375 75.679688 249.175781 C 75.277344 248.507812 74.894531 247.828125 74.535156 247.136719 C 74.175781 246.445312 73.832031 245.746094 73.515625 245.035156 C 73.195312 244.324219 72.898438 243.601562 72.625 242.875 C 72.347656 242.144531 72.09375 241.40625 71.863281 240.664062 C 71.632812 239.917969 71.425781 239.167969 71.238281 238.410156 C 71.054688 237.65625 70.890625 236.890625 70.75 236.125 C 70.613281 235.359375 70.496094 234.589844 70.402344 233.816406 C 70.308594 233.039062 70.238281 232.265625 70.191406 231.488281 C 70.148438 230.707031 70.125 229.929688 70.125 229.152344 C 70.125 228.371094 70.148438 227.59375 70.199219 226.816406 C 70.246094 226.035156 70.316406 225.261719 70.410156 224.488281 C 70.503906 223.714844 70.625 222.945312 70.765625 222.175781 C 70.90625 221.410156 71.070312 220.648438 71.257812 219.890625 C 71.445312 219.136719 71.652344 218.386719 71.886719 217.640625 C 72.117188 216.898438 72.371094 216.160156 72.648438 215.433594 C 72.925781 214.703125 73.222656 213.984375 73.542969 213.273438 C 73.863281 212.5625 74.207031 211.863281 74.566406 211.171875 C 74.929688 210.480469 75.3125 209.804688 75.71875 209.136719 C 76.121094 208.46875 76.542969 207.816406 76.988281 207.175781 C 77.429688 206.535156 77.890625 205.90625 78.371094 205.292969 C 78.851562 204.679688 79.351562 204.082031 79.867188 203.496094 C 80.386719 202.914062 80.917969 202.347656 81.46875 201.796875 C 82.023438 201.246094 82.589844 200.710938 83.171875 200.191406 C 83.753906 199.675781 84.355469 199.175781 84.96875 198.695312 C 85.582031 198.214844 86.207031 197.753906 86.851562 197.3125 C 87.492188 196.867188 88.144531 196.445312 88.8125 196.042969 C 89.480469 195.636719 90.15625 195.253906 90.847656 194.894531 C 91.539062 194.53125 92.238281 194.1875 92.949219 193.867188 C 93.660156 193.550781 94.378906 193.25 95.105469 192.972656 C 95.835938 192.695312 96.574219 192.441406 97.316406 192.210938 C 98.058594 191.976562 98.8125 191.769531 99.566406 191.582031 C 100.324219 191.394531 101.085938 191.230469 101.851562 191.089844 C 102.617188 190.949219 103.390625 190.832031 104.164062 190.734375 C 104.9375 190.640625 105.710938 190.570312 106.488281 190.523438 C 107.269531 190.472656 108.046875 190.449219 108.824219 190.449219 C 109.605469 190.449219 110.382812 190.472656 111.160156 190.519531 C 111.941406 190.5625 112.714844 190.632812 113.488281 190.726562 C 114.265625 190.820312 115.035156 190.9375 115.800781 191.078125 C 116.566406 191.214844 117.328125 191.378906 118.085938 191.5625 C 118.84375 191.75 119.59375 191.957031 120.339844 192.1875 C 121.082031 192.417969 121.820312 192.671875 122.550781 192.949219 C 123.277344 193.222656 124 193.519531 124.710938 193.839844 C 125.421875 194.160156 126.121094 194.5 126.8125 194.859375 C 127.503906 195.222656 128.183594 195.601562 128.851562 196.003906 C 129.515625 196.40625 130.171875 196.828125 130.816406 197.269531 C 131.457031 197.710938 132.085938 198.171875 132.699219 198.652344 C 133.3125 199.132812 133.914062 199.628906 134.496094 200.144531 C 135.082031 200.660156 135.648438 201.195312 136.203125 201.746094 C 136.753906 202.292969 137.289062 202.859375 137.808594 203.445312 C 138.324219 204.027344 138.824219 204.625 139.308594 205.234375 C 139.789062 205.847656 140.253906 206.476562 140.695312 207.117188 C 141.140625 207.757812 141.566406 208.410156 141.96875 209.074219 C 142.375 209.742188 142.757812 210.417969 143.121094 211.109375 C 143.484375 211.796875 143.828125 212.496094 144.148438 213.207031 L 189.089844 168.28125 C 185.390625 163.453125 181.28125 159 176.773438 154.917969 C 172.261719 150.835938 167.421875 147.191406 162.25 143.988281 C 157.078125 140.785156 151.660156 138.070312 145.996094 135.851562 C 140.335938 133.628906 134.519531 131.933594 128.546875 130.765625 C 128.816406 130.617188 129.144531 130.378906 129.351562 130.425781 C 131.09375 128.515625 132.921875 126.699219 134.84375 124.976562 C 136.761719 123.25 138.765625 121.625 140.847656 120.101562 C 142.933594 118.578125 145.085938 117.160156 147.3125 115.851562 C 149.539062 114.542969 151.824219 113.347656 154.167969 112.269531 C 156.511719 111.191406 158.90625 110.230469 161.347656 109.390625 C 163.789062 108.550781 166.265625 107.832031 168.777344 107.242188 C 171.289062 106.648438 173.824219 106.183594 176.386719 105.84375 C 178.945312 105.507812 181.515625 105.296875 184.09375 105.214844 Z M 184.066406 105.203125 " fill-opacity="1" fill-rule="nonzero"/></g></svg>