<svg xmlns="http://www.w3.org/2000/svg" xmlns:xlink="http://www.w3.org/1999/xlink" width="500" zoomAndPan="magnify" viewBox="0 0 375 374.999991" height="500" preserveAspectRatio="xMidYMid meet" version="1.0"><defs><clipPath id="2830922288"><path d="M 8.644531 7.523438 L 367.144531 7.523438 L 367.144531 366.023438 L 8.644531 366.023438 Z M 8.644531 7.523438 " clip-rule="nonzero"/></clipPath></defs><g clip-path="url(#2830922288)"><path fill="#ffffff" d="M 8.644531 7.523438 L 367.191406 7.523438 L 367.191406 366.070312 L 8.644531 366.070312 Z M 337.820312 280.554688 C 335.207031 264.195312 324.554688 250.453125 292.957031 237.636719 C 281.960938 232.480469 269.742188 228.894531 266.113281 220.605469 C 264.753906 215.675781 264.542969 212.984375 265.425781 210.070312 C 267.664062 200.421875 279.09375 197.523438 288.058594 200.210938 C 293.882812 202.003906 299.261719 206.484375 302.640625 213.65625 C 318.085938 203.558594 318.085938 203.558594 328.859375 196.851562 C 324.824219 190.574219 322.820312 187.871094 320.101562 185.199219 C 310.691406 174.664062 298.15625 169.285156 277.765625 169.75 L 267.230469 171.078125 C 257.132812 173.542969 247.511719 178.921875 241.6875 186.09375 C 224.65625 205.378906 229.570312 238.996094 250.1875 252.886719 C 270.578125 268.125 300.398438 271.472656 304.207031 285.828125 C 307.792969 303.308594 291.210938 308.910156 274.835938 306.894531 C 262.71875 304.203125 256.011719 298.140625 248.617188 286.933594 L 221.277344 302.636719 C 224.414062 309.808594 228 312.929688 233.378906 319.203125 C 259.375 345.4375 324.359375 344.09375 336.027344 304.203125 C 336.460938 302.859375 339.613281 293.671875 337.132812 279.554688 Z M 203.621094 172.320312 L 170.035156 172.320312 C 170.035156 201.273438 169.902344 230.046875 169.902344 259.042969 C 169.902344 277.449219 170.84375 294.34375 167.839844 299.542969 C 162.910156 309.835938 150.210938 308.523438 144.445312 306.714844 C 138.527344 303.785156 135.527344 299.753906 132.046875 293.941406 C 131.105469 292.371094 130.402344 291.011719 130.148438 291.011719 L 102.882812 307.820312 C 107.441406 317.230469 114.089844 325.328125 122.664062 330.484375 C 135.4375 338.101562 152.601562 340.566406 170.574219 336.535156 C 182.273438 333.15625 192.355469 326.210938 197.628906 315.453125 C 205.25 301.5625 203.636719 284.53125 203.558594 265.46875 C 203.738281 234.78125 203.558594 204.082031 203.558594 173.15625 Z M 203.621094 172.320312 " fill-opacity="1" fill-rule="nonzero"/></g></svg>