<svg xmlns="http://www.w3.org/2000/svg" xmlns:xlink="http://www.w3.org/1999/xlink" width="500" zoomAndPan="magnify" viewBox="0 0 375 374.999991" height="500" preserveAspectRatio="xMidYMid meet" version="1.0"><defs><clipPath id="332d28bb30"><path d="M 26 10.105469 L 351 10.105469 L 351 367.105469 L 26 367.105469 Z M 26 10.105469 " clip-rule="nonzero"/></clipPath></defs><g clip-path="url(#332d28bb30)"><path fill="#ffffff" d="M 340.9375 185.996094 C 340.9375 184.726562 340.882812 183.460938 340.773438 182.195312 C 340.667969 180.929688 340.511719 179.671875 340.300781 178.417969 C 340.089844 177.167969 339.832031 175.925781 339.519531 174.695312 C 339.207031 173.464844 338.847656 172.246094 338.433594 171.046875 C 338.023438 169.84375 337.5625 168.664062 337.054688 167.5 C 336.546875 166.335938 335.992188 165.195312 335.386719 164.078125 C 334.785156 162.960938 334.140625 161.867188 333.449219 160.804688 C 332.753906 159.738281 332.023438 158.707031 331.246094 157.699219 C 330.46875 156.695312 329.652344 155.726562 328.796875 154.789062 C 327.9375 153.851562 327.046875 152.949219 326.113281 152.085938 C 325.183594 151.222656 324.21875 150.398438 323.222656 149.613281 C 322.222656 148.828125 321.195312 148.085938 320.136719 147.386719 C 319.078125 146.6875 317.992188 146.03125 316.878906 145.421875 C 315.765625 144.808594 314.628906 144.246094 313.46875 143.726562 C 312.3125 143.207031 311.132812 142.738281 309.933594 142.320312 C 308.738281 141.898438 307.523438 141.527344 306.296875 141.207031 L 350.757812 10.105469 L 130.417969 10.105469 L 175 141.621094 C 173.808594 141.96875 172.628906 142.363281 171.46875 142.808594 C 170.308594 143.25 169.164062 143.738281 168.042969 144.273438 C 166.921875 144.808594 165.820312 145.386719 164.746094 146.007812 C 163.671875 146.632812 162.621094 147.296875 161.597656 148.003906 C 160.578125 148.710938 159.585938 149.457031 158.621094 150.246094 C 157.660156 151.03125 156.730469 151.855469 155.835938 152.71875 C 154.941406 153.578125 154.078125 154.476562 153.257812 155.40625 C 152.433594 156.335938 151.648438 157.300781 150.902344 158.292969 C 150.152344 159.285156 149.449219 160.308594 148.785156 161.359375 C 148.121094 162.410156 147.5 163.484375 146.921875 164.585938 C 146.34375 165.6875 145.8125 166.808594 145.324219 167.953125 C 144.835938 169.097656 144.394531 170.257812 144 171.4375 C 143.605469 172.613281 143.261719 173.808594 142.964844 175.015625 C 142.664062 176.222656 142.414062 177.4375 142.214844 178.664062 C 142.015625 179.890625 141.863281 181.125 141.761719 182.363281 C 141.660156 183.601562 141.609375 184.84375 141.609375 186.085938 C 141.609375 201.605469 149.347656 215.355469 161.148438 223.824219 C 156.386719 230.53125 151.011719 236.703125 145.015625 242.335938 C 139.515625 247.574219 133.578125 252.253906 127.195312 256.375 C 120.816406 260.496094 114.105469 263.984375 107.070312 266.84375 C 94.660156 258.464844 89.289062 243.691406 94.140625 230.445312 C 95.445312 230.039062 96.730469 229.578125 97.996094 229.058594 C 99.261719 228.535156 100.503906 227.960938 101.71875 227.332031 C 102.933594 226.703125 104.117188 226.019531 105.269531 225.285156 C 106.425781 224.550781 107.542969 223.765625 108.628906 222.929688 C 109.714844 222.097656 110.757812 221.214844 111.765625 220.289062 C 112.773438 219.363281 113.734375 218.390625 114.65625 217.378906 C 115.574219 216.367188 116.449219 215.316406 117.277344 214.226562 C 118.105469 213.136719 118.882812 212.011719 119.609375 210.851562 C 120.335938 209.695312 121.011719 208.503906 121.632812 207.285156 C 122.253906 206.066406 122.820312 204.824219 123.332031 203.554688 C 123.84375 202.285156 124.300781 200.996094 124.695312 199.6875 C 125.09375 198.378906 125.433594 197.054688 125.710938 195.714844 C 125.992188 194.375 126.210938 193.027344 126.371094 191.667969 C 126.53125 190.308594 126.632812 188.945312 126.671875 187.578125 C 126.710938 186.210938 126.6875 184.84375 126.609375 183.476562 C 126.527344 182.113281 126.382812 180.75 126.179688 179.398438 C 125.976562 178.046875 125.714844 176.703125 125.394531 175.375 C 125.074219 174.042969 124.695312 172.730469 124.253906 171.433594 C 123.816406 170.136719 123.324219 168.863281 122.773438 167.613281 C 122.222656 166.359375 121.617188 165.132812 120.957031 163.933594 C 120.296875 162.734375 119.585938 161.570312 118.820312 160.433594 C 118.058594 159.296875 117.246094 158.199219 116.386719 157.132812 C 115.523438 156.070312 114.617188 155.046875 113.667969 154.066406 C 112.714844 153.082031 111.722656 152.140625 110.6875 151.246094 C 109.652344 150.351562 108.578125 149.503906 107.46875 148.703125 C 106.359375 147.90625 105.214844 147.15625 104.039062 146.457031 C 102.863281 145.757812 101.660156 145.113281 100.425781 144.519531 C 99.191406 143.929688 97.933594 143.394531 96.652344 142.914062 C 95.371094 142.433594 94.070312 142.011719 92.753906 141.644531 C 91.433594 141.28125 90.101562 140.976562 88.753906 140.726562 C 87.410156 140.480469 86.054688 140.292969 84.695312 140.167969 C 83.332031 140.042969 81.964844 139.976562 80.597656 139.96875 C 79.082031 139.972656 77.566406 140.046875 76.058594 140.199219 C 74.550781 140.347656 73.050781 140.574219 71.5625 140.871094 C 70.078125 141.167969 68.609375 141.535156 67.15625 141.976562 C 65.707031 142.417969 64.28125 142.929688 62.878906 143.511719 C 61.476562 144.09375 60.109375 144.742188 58.773438 145.457031 C 57.433594 146.171875 56.136719 146.953125 54.875 147.796875 C 53.613281 148.636719 52.398438 149.539062 51.226562 150.503906 C 50.054688 151.464844 48.929688 152.484375 47.859375 153.554688 C 46.785156 154.628906 45.769531 155.75 44.808594 156.921875 C 43.84375 158.09375 42.941406 159.3125 42.097656 160.570312 C 41.253906 161.832031 40.476562 163.132812 39.761719 164.46875 C 39.046875 165.804688 38.398438 167.175781 37.816406 168.574219 C 37.234375 169.976562 36.722656 171.402344 36.28125 172.855469 C 35.839844 174.304688 35.46875 175.773438 35.171875 177.261719 C 34.875 178.746094 34.652344 180.246094 34.5 181.753906 C 34.351562 183.265625 34.273438 184.777344 34.273438 186.292969 C 34.273438 198.914062 39.4375 210.492188 47.710938 218.765625 C 46.996094 220.207031 46.265625 221.664062 45.539062 223.214844 C 38.617188 237.484375 30.761719 253.613281 27.753906 271.710938 C 21.757812 307.902344 31.578125 336.949219 55.269531 353.390625 C 58.457031 355.636719 61.796875 357.628906 65.289062 359.359375 C 68.785156 361.089844 72.390625 362.546875 76.105469 363.71875 C 79.824219 364.894531 83.609375 365.777344 87.464844 366.371094 C 91.320312 366.960938 95.195312 367.253906 99.09375 367.246094 C 126.28125 367.246094 153.886719 353.597656 180.566406 340.355469 C 199.601562 330.949219 219.242188 321.128906 238.574219 316.367188 C 245.714844 314.613281 253.15625 313.585938 261.011719 312.4375 C 276.933594 310.164062 293.378906 307.796875 308.15625 299.195312 C 310.257812 297.988281 312.289062 296.671875 314.25 295.246094 C 316.210938 293.820312 318.085938 292.289062 319.878906 290.660156 C 321.671875 289.027344 323.371094 287.304688 324.976562 285.488281 C 326.582031 283.671875 328.082031 281.773438 329.480469 279.792969 C 330.878906 277.808594 332.167969 275.761719 333.339844 273.640625 C 334.515625 271.519531 335.570312 269.339844 336.507812 267.105469 C 337.445312 264.867188 338.257812 262.589844 338.945312 260.261719 C 339.632812 257.9375 340.195312 255.585938 340.625 253.199219 C 343.214844 238.40625 340.625 223.527344 334.019531 210.492188 C 338.453125 203.347656 340.9375 194.984375 340.9375 185.980469 Z M 320.773438 185.996094 C 320.773438 200.355469 309.09375 212.039062 294.734375 212.039062 C 293.390625 212.035156 292.054688 211.925781 290.726562 211.71875 C 289.398438 211.507812 288.09375 211.195312 286.816406 210.785156 C 285.535156 210.371094 284.296875 209.867188 283.097656 209.261719 C 281.894531 208.660156 280.746094 207.96875 279.652344 207.1875 C 278.558594 206.40625 277.53125 205.546875 276.570312 204.605469 C 275.609375 203.667969 274.726562 202.660156 273.921875 201.585938 C 273.117188 200.507812 272.398438 199.375 271.769531 198.191406 C 271.136719 197.003906 270.601562 195.773438 270.160156 194.503906 C 269.722656 193.234375 269.378906 191.941406 269.140625 190.617188 C 268.898438 189.296875 268.761719 187.964844 268.726562 186.621094 C 268.695312 185.277344 268.761719 183.9375 268.933594 182.605469 C 269.109375 181.273438 269.382812 179.960938 269.757812 178.671875 C 270.132812 177.378906 270.605469 176.125 271.171875 174.910156 C 271.742188 173.691406 272.402344 172.523438 273.148438 171.410156 C 273.898438 170.292969 274.730469 169.242188 275.640625 168.253906 C 276.550781 167.265625 277.535156 166.355469 278.585938 165.519531 L 278.691406 165.417969 C 279.523438 164.792969 280.449219 164.167969 281.371094 163.554688 C 281.371094 163.554688 281.488281 163.554688 281.488281 163.453125 C 281.90625 163.242188 282.308594 162.929688 282.722656 162.707031 C 282.828125 162.707031 282.933594 162.617188 283.035156 162.617188 C 283.453125 162.410156 283.972656 162.203125 284.480469 161.992188 C 285 161.785156 285.523438 161.59375 285.9375 161.382812 C 286.042969 161.382812 286.132812 161.28125 286.234375 161.28125 C 286.652344 161.175781 287.070312 160.96875 287.484375 160.863281 C 287.589844 160.863281 287.785156 160.757812 287.902344 160.757812 C 288.410156 160.65625 288.824219 160.550781 289.347656 160.460938 L 289.449219 160.460938 L 290.996094 160.132812 C 291.101562 160.132812 291.296875 160.132812 291.414062 160.03125 C 291.832031 160.03125 292.234375 159.925781 292.648438 159.925781 L 293.171875 159.925781 C 293.691406 159.925781 294.210938 159.820312 294.824219 159.820312 L 296.160156 159.820312 C 296.578125 159.820312 296.90625 159.820312 297.308594 159.925781 L 297.515625 159.925781 C 298.335938 160.03125 299.167969 160.132812 300 160.34375 C 301.457031 160.652344 302.878906 161.085938 304.261719 161.640625 C 305.644531 162.195312 306.972656 162.859375 308.242188 163.640625 C 309.511719 164.421875 310.707031 165.300781 311.828125 166.285156 C 312.945312 167.265625 313.976562 168.335938 314.914062 169.496094 C 315.851562 170.652344 316.683594 171.882812 317.414062 173.179688 C 318.144531 174.480469 318.757812 175.832031 319.257812 177.234375 C 319.753906 178.640625 320.132812 180.074219 320.386719 181.542969 C 320.640625 183.011719 320.769531 184.492188 320.773438 185.980469 Z M 159.273438 30.789062 L 321.921875 30.789062 L 284.585938 140.90625 C 283.035156 141.207031 281.488281 141.726562 279.941406 142.246094 L 240.65625 62.113281 L 201.25 141.726562 C 199.703125 141.21875 198.039062 140.90625 196.386719 140.59375 L 159.273438 30.773438 Z M 233.199219 176.992188 C 232.25 172.222656 230.582031 167.714844 228.195312 163.472656 C 225.8125 159.230469 222.828125 155.464844 219.242188 152.171875 L 240.640625 108.957031 L 262.25 153.109375 C 255.847656 159.507812 251.191406 167.691406 249.332031 176.992188 L 233.1875 176.992188 Z M 181.402344 160.65625 C 181.90625 160.550781 182.324219 160.445312 182.84375 160.355469 L 183.140625 160.355469 C 183.574219 160.238281 183.976562 160.238281 184.390625 160.132812 L 184.808594 160.132812 C 185.226562 160.132812 185.539062 160.03125 185.9375 160.03125 L 189.972656 160.03125 C 190.386719 160.03125 190.699219 160.132812 191.011719 160.132812 C 191.222656 160.132812 191.3125 160.132812 191.535156 160.238281 C 191.9375 160.34375 192.25 160.34375 192.664062 160.445312 C 192.769531 160.445312 192.875 160.445312 193.082031 160.550781 L 194.523438 160.847656 L 194.628906 160.847656 C 195.046875 160.96875 195.460938 161.070312 195.863281 161.28125 C 195.96875 161.28125 196.074219 161.382812 196.28125 161.382812 C 196.59375 161.488281 197.011719 161.59375 197.324219 161.785156 C 197.425781 161.785156 197.53125 161.890625 197.621094 161.890625 C 198.039062 162.097656 198.453125 162.203125 198.871094 162.410156 L 198.976562 162.410156 C 199.453125 162.589844 199.902344 162.835938 200.3125 163.140625 L 200.417969 163.140625 C 200.835938 163.347656 201.25 163.644531 201.667969 163.855469 C 201.773438 163.855469 201.773438 163.957031 201.863281 163.957031 C 202.277344 164.167969 202.605469 164.480469 203.007812 164.6875 L 203.113281 164.792969 C 204.347656 165.714844 205.492188 166.753906 206.625 167.78125 L 206.726562 167.886719 C 207.867188 169.089844 208.886719 170.386719 209.777344 171.785156 C 210.671875 173.183594 211.425781 174.652344 212.035156 176.191406 C 212.648438 177.734375 213.109375 179.316406 213.417969 180.945312 C 213.726562 182.574219 213.875 184.21875 213.871094 185.878906 C 213.84375 186.710938 213.773438 187.542969 213.664062 188.371094 C 213.558594 189.199219 213.410156 190.023438 213.222656 190.835938 C 213.035156 191.652344 212.808594 192.453125 212.546875 193.246094 C 212.28125 194.039062 211.980469 194.816406 211.640625 195.582031 C 211.300781 196.34375 210.925781 197.089844 210.515625 197.816406 C 210.105469 198.542969 209.660156 199.25 209.179688 199.9375 C 208.703125 200.621094 208.191406 201.28125 207.648438 201.917969 C 207.105469 202.550781 206.535156 203.160156 205.933594 203.742188 C 205.335938 204.320312 204.707031 204.871094 204.054688 205.390625 C 203.398438 205.914062 202.722656 206.402344 202.023438 206.855469 C 201.320312 207.3125 200.601562 207.730469 199.859375 208.117188 C 199.121094 208.503906 198.363281 208.855469 197.585938 209.167969 C 196.8125 209.480469 196.023438 209.753906 195.222656 209.992188 C 194.421875 210.230469 193.613281 210.429688 192.792969 210.589844 C 191.972656 210.746094 191.144531 210.867188 190.316406 210.949219 C 189.484375 211.027344 188.648438 211.066406 187.8125 211.066406 C 186.980469 211.066406 186.144531 211.027344 185.3125 210.949219 C 184.480469 210.867188 183.65625 210.746094 182.835938 210.589844 C 182.015625 210.429688 181.207031 210.230469 180.402344 209.992188 C 179.601562 209.753906 178.816406 209.480469 178.039062 209.167969 C 177.265625 208.855469 176.507812 208.503906 175.769531 208.117188 C 175.027344 207.730469 174.304688 207.3125 173.605469 206.855469 C 172.90625 206.402344 172.226562 205.914062 171.574219 205.390625 C 170.921875 204.871094 170.292969 204.320312 169.691406 203.742188 C 169.09375 203.160156 168.519531 202.550781 167.980469 201.917969 C 167.4375 201.28125 166.925781 200.621094 166.449219 199.9375 C 165.96875 199.25 165.523438 198.542969 165.113281 197.816406 C 164.703125 197.089844 164.328125 196.34375 163.988281 195.582031 C 163.648438 194.816406 163.347656 194.039062 163.082031 193.246094 C 162.816406 192.453125 162.59375 191.652344 162.40625 190.835938 C 162.21875 190.023438 162.070312 189.199219 161.960938 188.371094 C 161.855469 187.542969 161.785156 186.710938 161.757812 185.878906 C 161.753906 184.4375 161.867188 183.007812 162.101562 181.589844 C 162.335938 180.171875 162.6875 178.78125 163.152344 177.417969 C 163.617188 176.058594 164.191406 174.742188 164.875 173.476562 C 165.558594 172.210938 166.34375 171.011719 167.226562 169.878906 C 168.113281 168.742188 169.082031 167.6875 170.144531 166.714844 C 171.203125 165.742188 172.335938 164.863281 173.539062 164.078125 C 174.746094 163.292969 176.007812 162.613281 177.328125 162.039062 C 178.648438 161.464844 180.003906 161.003906 181.398438 160.65625 Z M 79.644531 159.925781 C 94.019531 159.925781 105.703125 171.621094 105.703125 185.980469 C 105.703125 200.339844 94.019531 212.039062 79.660156 212.039062 C 65.300781 212.039062 53.589844 200.355469 53.589844 185.996094 C 53.589844 171.636719 65.285156 159.925781 79.644531 159.925781 Z M 320.164062 249.582031 C 319.578125 252.890625 318.636719 256.09375 317.339844 259.195312 C 316.046875 262.292969 314.429688 265.214844 312.488281 267.957031 C 310.550781 270.703125 308.335938 273.199219 305.84375 275.457031 C 303.351562 277.710938 300.644531 279.664062 297.722656 281.324219 C 286.445312 287.839844 272.589844 289.910156 258.007812 291.976562 C 249.800781 293.027344 241.667969 294.472656 233.601562 296.308594 C 212.101562 301.589844 191.429688 311.933594 171.371094 321.859375 C 145.714844 334.566406 121.519531 346.5625 99.09375 346.5625 C 96.238281 346.578125 93.398438 346.371094 90.574219 345.941406 C 87.75 345.511719 84.976562 344.859375 82.253906 343.992188 C 79.53125 343.121094 76.894531 342.042969 74.34375 340.757812 C 71.792969 339.472656 69.359375 337.992188 67.039062 336.324219 C 44.289062 320.609375 45.417969 291.144531 48.113281 275.015625 C 50.597656 259.910156 57.515625 245.757812 64.140625 232.203125 C 64.554688 231.382812 64.867188 230.652344 65.285156 229.820312 C 67.546875 230.652344 69.929688 231.277344 72.414062 231.695312 C 68.484375 253.613281 79.644531 276.25 101.371094 287.425781 L 105.300781 289.492188 L 109.527344 287.945312 C 127.621094 281.53125 144.375 271.085938 159.167969 257.128906 C 167.367188 249.484375 174.535156 240.972656 180.671875 231.589844 C 183.050781 231.992188 185.433594 232.097656 187.8125 232.097656 C 189.082031 232.09375 190.347656 232.039062 191.613281 231.933594 C 192.878906 231.824219 194.136719 231.667969 195.386719 231.457031 C 196.636719 231.246094 197.878906 230.984375 199.109375 230.675781 C 200.339844 230.363281 201.554688 230 202.753906 229.589844 C 203.953125 229.175781 205.132812 228.71875 206.296875 228.207031 C 207.460938 227.699219 208.597656 227.144531 209.714844 226.542969 C 210.832031 225.941406 211.921875 225.292969 212.988281 224.601562 C 214.050781 223.910156 215.085938 223.175781 216.085938 222.402344 C 217.089844 221.625 218.0625 220.808594 218.996094 219.953125 C 219.933594 219.097656 220.835938 218.203125 221.699219 217.273438 C 222.5625 216.34375 223.382812 215.378906 224.167969 214.382812 C 224.953125 213.386719 225.695312 212.359375 226.394531 211.300781 C 227.09375 210.242188 227.75 209.15625 228.359375 208.042969 C 228.972656 206.933594 229.535156 205.796875 230.054688 204.640625 C 230.570312 203.480469 231.039062 202.304688 231.460938 201.105469 C 231.882812 199.910156 232.253906 198.695312 232.574219 197.46875 L 249.941406 197.46875 C 250.261719 198.699219 250.628906 199.914062 251.050781 201.113281 C 251.46875 202.308594 251.9375 203.488281 252.453125 204.648438 C 252.96875 205.808594 253.535156 206.945312 254.144531 208.0625 C 254.753906 209.175781 255.410156 210.261719 256.109375 211.320312 C 256.808594 212.382812 257.550781 213.410156 258.335938 214.410156 C 259.117188 215.40625 259.941406 216.371094 260.808594 217.304688 C 261.671875 218.234375 262.570312 219.128906 263.507812 219.984375 C 264.445312 220.839844 265.417969 221.65625 266.421875 222.433594 C 267.425781 223.210938 268.460938 223.945312 269.527344 224.636719 C 270.59375 225.328125 271.683594 225.976562 272.800781 226.578125 C 273.921875 227.179688 275.0625 227.734375 276.226562 228.242188 C 277.390625 228.75 278.574219 229.207031 279.773438 229.617188 C 280.976562 230.027344 282.195312 230.386719 283.425781 230.699219 C 284.65625 231.007812 285.898438 231.265625 287.152344 231.472656 C 288.40625 231.683594 289.664062 231.839844 290.929688 231.941406 C 292.195312 232.046875 293.464844 232.097656 294.734375 232.097656 C 303.304688 232.097656 311.25 229.714844 318.097656 225.699219 C 320.773438 233.4375 321.609375 241.515625 320.164062 249.582031 Z M 320.164062 249.582031 " fill-opacity="1" fill-rule="nonzero"/></g></svg>