<svg xmlns="http://www.w3.org/2000/svg" xmlns:xlink="http://www.w3.org/1999/xlink" width="500" zoomAndPan="magnify" viewBox="0 0 375 374.999991" height="500" preserveAspectRatio="xMidYMid meet" version="1.0"><defs><clipPath id="04d86dcf5e"><path d="M 10.46875 16 L 364.46875 16 L 364.46875 359 L 10.46875 359 Z M 10.46875 16 " clip-rule="nonzero"/></clipPath></defs><g clip-path="url(#04d86dcf5e)"><path fill="#ffffff" d="M 32.96875 97.066406 C 1.601562 142.121094 5.5 200.71875 29.472656 248.558594 C 30.015625 249.726562 30.621094 250.832031 31.210938 251.9375 C 31.550781 252.703125 31.933594 253.414062 32.347656 254.152344 C 32.539062 254.550781 32.804688 254.976562 33.039062 255.359375 C 33.425781 256.128906 33.835938 256.863281 34.234375 257.601562 L 36.550781 261.527344 C 36.996094 262.25 37.394531 262.957031 37.878906 263.679688 C 38.707031 265.066406 39.648438 266.4375 40.503906 267.824219 C 40.890625 268.417969 41.242188 268.976562 41.671875 269.550781 C 43.101562 271.804688 44.625 273.992188 46.246094 276.117188 C 47.394531 277.695312 48.546875 279.230469 49.785156 280.765625 C 50.183594 281.324219 50.640625 281.886719 51.054688 282.460938 L 54.300781 286.429688 C 54.710938 286.871094 55.109375 287.417969 55.539062 287.890625 C 56.984375 289.628906 58.519531 291.328125 60.050781 293.054688 L 60.125 293.140625 C 62.003906 295.511719 64.09375 297.671875 66.394531 299.632812 C 67.578125 300.855469 68.757812 302.066406 70.011719 303.246094 L 71.5 304.675781 C 73.136719 306.226562 74.789062 307.761719 76.515625 309.234375 C 76.546875 309.234375 76.5625 309.265625 76.589844 309.28125 L 77.429688 310.019531 C 78.9375 311.332031 80.457031 312.644531 82.003906 313.855469 L 83.847656 315.402344 C 85.101562 316.40625 86.414062 317.363281 87.683594 318.351562 L 89.703125 319.902344 C 91.078125 320.933594 92.539062 321.953125 93.9375 322.957031 C 94.457031 323.324219 94.972656 323.695312 95.503906 324.03125 L 95.945312 324.371094 L 100.074219 327.101562 L 101.847656 328.28125 C 104.03125 329.667969 106.183594 330.996094 108.335938 332.292969 C 108.941406 332.589844 109.578125 332.945312 110.152344 333.296875 C 111.746094 334.210938 113.398438 335.140625 115.003906 335.996094 C 115.890625 336.5 116.804688 336.925781 117.71875 337.382812 C 118.828125 338.003906 119.976562 338.609375 121.171875 339.226562 C 121.457031 339.316406 121.734375 339.429688 122 339.566406 C 122.484375 339.789062 122.941406 340.023438 123.414062 340.261719 C 125.183594 341.144531 127.027344 342 128.945312 342.84375 C 129.300781 342.988281 129.683594 343.136719 130.066406 343.34375 C 132.191406 344.273438 134.332031 345.160156 136.53125 346.027344 C 137.03125 346.175781 137.5625 346.425781 138.078125 346.617188 C 140.070312 347.371094 142.121094 348.136719 144.140625 348.859375 L 144.878906 349.125 C 147.152344 349.894531 149.378906 350.632812 151.664062 351.339844 C 152.195312 351.488281 152.742188 351.679688 153.304688 351.828125 C 155.664062 352.535156 157.933594 353.375 160.296875 353.847656 C 311.847656 381.464844 355.882812 262.722656 355.882812 262.722656 C 318.882812 310.902344 253.234375 323.605469 191.039062 309.472656 C 188.738281 308.941406 186.4375 308.203125 184.105469 307.523438 C 181.296875 306.691406 178.511719 305.796875 175.742188 304.839844 L 174.828125 304.484375 C 172.820312 303.808594 170.886719 303.054688 168.925781 302.300781 C 168.390625 302.085938 167.851562 301.890625 167.304688 301.710938 C 165.121094 300.828125 163.023438 299.925781 160.914062 298.996094 C 160.457031 298.851562 160.074219 298.644531 159.617188 298.46875 C 157.828125 297.644531 156.050781 296.808594 154.277344 295.960938 C 153.746094 295.722656 153.222656 295.46875 152.710938 295.191406 C 151.324219 294.542969 149.9375 293.789062 148.582031 293.082031 C 147.648438 292.632812 146.730469 292.164062 145.824219 291.667969 C 144.140625 290.78125 142.472656 289.820312 140.808594 288.90625 C 140.304688 288.554688 139.730469 288.257812 139.15625 287.933594 C 136.976562 286.640625 134.816406 285.3125 132.679688 283.949219 C 132.085938 283.585938 131.503906 283.203125 130.9375 282.800781 C 129.371094 281.828125 127.839844 280.8125 126.335938 279.746094 C 125.820312 279.40625 125.347656 279.039062 124.816406 278.667969 C 123.34375 277.652344 121.894531 276.613281 120.464844 275.542969 C 119.84375 275.039062 119.179688 274.566406 118.515625 274.066406 C 117.21875 273.035156 115.90625 272.074219 114.605469 270.996094 L 112.867188 269.597656 C 111.191406 268.253906 109.542969 266.875 107.925781 265.464844 C 107.757812 265.296875 107.574219 265.144531 107.378906 265.007812 L 102.257812 260.347656 L 100.785156 258.960938 C 99.574219 257.71875 98.335938 256.539062 97.097656 255.332031 L 95.648438 253.855469 C 94.089844 252.304688 92.570312 250.714844 91.089844 249.089844 L 90.871094 248.855469 C 89.308594 247.144531 87.773438 245.386719 86.253906 243.617188 C 85.855469 243.175781 85.472656 242.671875 85.074219 242.1875 L 81.722656 238.101562 C 80.023438 235.914062 78.351562 233.707031 76.707031 231.476562 C 42.21875 184.402344 29.738281 119.402344 57.339844 66.101562 M 130.257812 59.125 C 107.539062 91.742188 108.808594 135.378906 126.511719 169.882812 C 129.441406 175.699219 132.777344 181.269531 136.515625 186.597656 C 139.90625 191.46875 143.65625 197.234375 148.214844 201.175781 C 149.792969 202.972656 151.503906 204.714844 153.289062 206.484375 L 154.617188 207.8125 C 156.296875 209.4375 158.039062 211.015625 159.777344 212.609375 L 160.015625 212.800781 C 162.003906 214.535156 164.042969 216.21875 166.121094 217.84375 C 166.625 218.183594 167.050781 218.582031 167.539062 218.921875 C 169.605469 220.515625 171.699219 222.050781 173.851562 223.582031 L 174.074219 223.714844 C 174.988281 224.378906 175.960938 224.984375 176.996094 225.632812 C 177.410156 225.898438 177.878906 226.253906 178.324219 226.519531 C 179.886719 227.523438 181.421875 228.464844 183.015625 229.425781 C 183.265625 229.527344 183.484375 229.660156 183.722656 229.765625 C 185.050781 230.574219 186.496094 231.359375 187.882812 232.082031 C 188.371094 232.375 188.839844 232.597656 189.359375 232.878906 C 190.332031 233.363281 191.304688 233.878906 192.265625 234.382812 L 192.734375 234.589844 C 194.726562 235.578125 196.761719 236.492188 198.753906 237.390625 C 199.257812 237.597656 199.683594 237.761719 200.113281 237.96875 C 201.75 238.675781 203.417969 239.355469 205.070312 239.988281 C 205.808594 240.238281 206.5 240.535156 207.195312 240.753906 C 208.699219 241.316406 210.292969 241.832031 211.765625 242.347656 L 213.832031 243.011719 C 216 243.675781 218.183594 244.546875 220.457031 244.929688 C 337.441406 264.300781 364.527344 174.191406 364.527344 174.191406 C 340.140625 209.304688 292.949219 226.019531 242.660156 212.960938 C 240.433594 212.386719 238.222656 211.746094 236.035156 211.042969 C 235.328125 210.835938 234.707031 210.617188 234.027344 210.410156 C 232.492188 209.878906 230.914062 209.375 229.425781 208.800781 L 227.300781 208.003906 C 225.632812 207.339844 223.953125 206.722656 222.34375 206.011719 C 221.84375 205.792969 221.386719 205.644531 221 205.421875 C 218.9375 204.492188 216.855469 203.578125 214.835938 202.589844 L 211.796875 201.011719 L 210.039062 200.128906 C 208.71875 199.425781 207.414062 198.6875 206.132812 197.914062 C 205.816406 197.757812 205.511719 197.585938 205.214844 197.398438 C 203.652344 196.425781 202.015625 195.480469 200.523438 194.476562 C 200.023438 194.195312 199.566406 193.855469 199.09375 193.5625 L 196.027344 191.554688 C 193.902344 190.082031 191.820312 188.488281 189.710938 186.9375 C 189.238281 186.511719 188.78125 186.15625 188.324219 185.773438 C 166.210938 168.394531 148.773438 144.613281 140.496094 117.71875 C 131.792969 89.734375 133.710938 58.371094 148.757812 32.894531 M 212.078125 30.726562 C 198.667969 50.40625 197.382812 74.835938 206.617188 96.519531 C 216.429688 119.578125 236.476562 137.679688 259.84375 146.238281 C 260.804688 146.605469 261.734375 146.914062 262.738281 147.269531 L 264.035156 147.667969 C 265.390625 148.109375 266.765625 148.597656 268.164062 148.90625 C 332.796875 161.371094 350.292969 115.714844 355 109.015625 C 339.613281 131.113281 313.808594 136.410156 282.152344 128.710938 C 279.570312 128.066406 277.03125 127.277344 274.539062 126.351562 C 271.433594 125.261719 268.394531 124.011719 265.421875 122.601562 C 259.785156 119.875 254.464844 116.628906 249.460938 112.867188 C 221.105469 91.371094 203.535156 50.375 222.035156 16.976562 " fill-opacity="1" fill-rule="nonzero"/></g></svg>