<svg xmlns="http://www.w3.org/2000/svg" xmlns:xlink="http://www.w3.org/1999/xlink" width="500" zoomAndPan="magnify" viewBox="0 0 375 374.999991" height="500" preserveAspectRatio="xMidYMid meet" version="1.0"><defs><clipPath id="ddfd8335d2"><path d="M 106 6.289062 L 269 6.289062 L 269 368.539062 L 106 368.539062 Z M 106 6.289062 " clip-rule="nonzero"/></clipPath></defs><g clip-path="url(#ddfd8335d2)"><path fill="#ffffff" d="M 265.910156 150.574219 C 246.824219 66.3125 201.703125 38.617188 196.855469 28.03125 C 192.628906 22.082031 188.855469 13.625 185.757812 6.289062 C 185.214844 13.761719 184.925781 16.632812 177.859375 24.167969 C 166.941406 32.714844 110.84375 79.765625 106.285156 175.472656 C 102.023438 264.75 170.761719 317.949219 180.09375 324.730469 L 181.152344 325.484375 C 183.09375 339.855469 184.757812 354.261719 186.136719 368.703125 L 193.398438 368.703125 C 195.121094 353.117188 197.6875 337.65625 201.101562 322.34375 C 207.398438 317.871094 210.222656 315.351562 213.9375 311.878906 C 218.320312 307.820312 222.484375 303.546875 226.421875 299.050781 C 230.359375 294.558594 234.054688 289.875 237.5 284.992188 C 240.949219 280.113281 244.132812 275.066406 247.054688 269.855469 C 249.972656 264.644531 252.613281 259.292969 254.972656 253.804688 C 257.332031 248.3125 259.398438 242.71875 261.175781 237.011719 C 262.949219 231.304688 264.421875 225.523438 265.589844 219.664062 C 266.757812 213.804688 267.617188 207.902344 268.167969 201.953125 C 268.71875 196.003906 268.960938 190.039062 268.886719 184.066406 C 269.039062 171.773438 267.332031 158.96875 265.910156 150.574219 Z M 185.335938 274.324219 C 185.335938 274.324219 185.335938 149.125 189.488281 149.140625 C 192.703125 149.140625 196.886719 310.640625 196.886719 310.640625 C 191.132812 309.960938 185.335938 284.0625 185.335938 274.324219 Z M 185.335938 274.324219 " fill-opacity="1" fill-rule="nonzero"/></g></svg>