<svg xmlns="http://www.w3.org/2000/svg" xmlns:xlink="http://www.w3.org/1999/xlink" width="500" zoomAndPan="magnify" viewBox="0 0 375 374.999991" height="500" preserveAspectRatio="xMidYMid meet" version="1.0"><defs><clipPath id="8fefe22076"><path d="M 6.738281 29 L 368.988281 29 L 368.988281 347 L 6.738281 347 Z M 6.738281 29 " clip-rule="nonzero"/></clipPath></defs><g clip-path="url(#8fefe22076)"><path fill="#ffffff" d="M 104.753906 294.015625 L 101.28125 294.015625 L 84.214844 276.800781 L 84.214844 273.328125 L 110.34375 247.5 L 128.46875 247.5 L 130.730469 249.765625 L 130.730469 267.890625 L 104.90625 294.015625 Z M 84.214844 101.757812 L 84.214844 98.585938 L 101.28125 81.519531 L 104.753906 81.519531 L 130.582031 107.34375 L 130.582031 125.46875 L 128.316406 127.734375 L 110.191406 127.734375 Z M 234.640625 239.042969 L 209.722656 239.042969 L 207.605469 237.078125 L 207.605469 179.234375 C 207.605469 168.964844 203.527344 161.109375 190.992188 160.65625 C 184.648438 160.65625 177.402344 160.65625 169.394531 160.960938 L 168.339844 162.167969 L 168.339844 237.078125 L 166.222656 239.195312 L 141.152344 239.195312 L 139.191406 237.078125 L 139.191406 138.304688 L 141.152344 136.191406 L 197.035156 136.191406 C 198.324219 136.1875 199.609375 136.246094 200.894531 136.367188 C 202.175781 136.488281 203.453125 136.671875 204.71875 136.917969 C 205.980469 137.167969 207.230469 137.476562 208.46875 137.847656 C 209.703125 138.214844 210.914062 138.644531 212.109375 139.136719 C 213.300781 139.625 214.464844 140.171875 215.605469 140.777344 C 216.742188 141.382812 217.847656 142.042969 218.921875 142.757812 C 219.996094 143.46875 221.03125 144.234375 222.03125 145.050781 C 223.03125 145.867188 223.984375 146.730469 224.898438 147.636719 C 225.8125 148.546875 226.679688 149.5 227.5 150.496094 C 228.316406 151.492188 229.085938 152.523438 229.804688 153.59375 C 230.523438 154.667969 231.183594 155.769531 231.792969 156.90625 C 232.402344 158.042969 232.957031 159.207031 233.449219 160.394531 C 233.945312 161.585938 234.378906 162.800781 234.753906 164.03125 C 235.128906 165.265625 235.441406 166.515625 235.695312 167.78125 C 235.949219 169.042969 236.136719 170.316406 236.261719 171.601562 C 236.390625 172.882812 236.453125 174.167969 236.453125 175.457031 L 236.453125 237.078125 L 234.488281 239.195312 Z M 108.230469 202.191406 L 8.851562 202.191406 L 6.738281 200.078125 L 6.738281 175.308594 L 8.851562 173.191406 L 108.230469 173.191406 L 110.34375 175.308594 L 110.34375 200.078125 Z M 367.09375 202.191406 L 267.71875 202.191406 L 265.601562 200.078125 L 265.601562 175.308594 L 267.71875 173.191406 L 367.09375 173.191406 L 369.210938 175.308594 L 369.210938 200.078125 Z M 173.625 105.378906 L 173.625 31.226562 L 175.738281 29.109375 L 200.660156 29.109375 L 202.773438 31.226562 L 202.773438 105.230469 L 200.660156 107.34375 L 175.738281 107.34375 Z M 173.625 344.160156 L 173.625 270.15625 L 175.738281 268.039062 L 200.660156 268.039062 L 202.773438 270.003906 L 202.773438 344.160156 L 200.660156 346.273438 L 175.738281 346.273438 Z M 173.625 344.160156 " fill-opacity="1" fill-rule="nonzero"/></g></svg>