<svg xmlns="http://www.w3.org/2000/svg" xmlns:xlink="http://www.w3.org/1999/xlink" width="500" zoomAndPan="magnify" viewBox="0 0 375 374.999991" height="500" preserveAspectRatio="xMidYMid meet" version="1.0"><defs><clipPath id="78179ba7de"><path d="M 6.566406 6.566406 L 368.066406 6.566406 L 368.066406 368.066406 L 6.566406 368.066406 Z M 6.566406 6.566406 " clip-rule="nonzero"/></clipPath></defs><g clip-path="url(#78179ba7de)"><path fill="#ffffff" d="M 287.992188 337.945312 C 259.238281 357.199219 224.667969 368.429688 187.5 368.429688 C 87.640625 368.429688 6.566406 287.359375 6.566406 187.5 C 6.566406 87.640625 87.640625 6.566406 187.5 6.566406 C 287.359375 6.566406 368.429688 87.640625 368.429688 187.5 C 368.429688 241.523438 344.699219 290.042969 307.109375 323.214844 L 145.570312 115.128906 L 115.128906 115.128906 L 115.128906 259.8125 L 139.476562 259.8125 L 139.476562 146.050781 Z M 237.753906 209.285156 L 261.878906 240.363281 L 261.878906 115.128906 L 237.753906 115.128906 Z M 237.753906 209.285156 " fill-opacity="1" fill-rule="nonzero"/></g></svg>