<svg xmlns="http://www.w3.org/2000/svg" xmlns:xlink="http://www.w3.org/1999/xlink" width="500" zoomAndPan="magnify" viewBox="0 0 375 374.999991" height="500" preserveAspectRatio="xMidYMid meet" version="1.0"><defs><clipPath id="14e31165ed"><path d="M 27 7.523438 L 348 7.523438 L 348 367.523438 L 27 367.523438 Z M 27 7.523438 " clip-rule="nonzero"/></clipPath></defs><g clip-path="url(#14e31165ed)"><path fill="#ffffff" d="M 187.46875 367.476562 C 182.65625 367.476562 177.855469 366.214844 173.640625 363.769531 L 129.605469 337.71875 C 123.039062 334.042969 126.246094 332.738281 128.40625 331.976562 C 137.179688 328.929688 138.949219 328.226562 148.324219 322.917969 C 149.300781 322.363281 150.589844 322.570312 151.59375 323.171875 L 185.429688 343.253906 C 186.660156 343.929688 188.382812 343.929688 189.507812 343.253906 L 321.417969 267.125 C 322.644531 266.417969 323.425781 265.007812 323.425781 263.554688 L 323.425781 111.324219 C 323.425781 109.839844 322.632812 108.445312 321.371094 107.695312 L 189.523438 31.625 C 188.308594 30.917969 186.6875 30.917969 185.460938 31.625 L 53.640625 107.710938 C 52.367188 108.445312 51.558594 109.882812 51.558594 111.324219 L 51.558594 263.554688 C 51.558594 265.007812 52.367188 266.390625 53.640625 267.078125 L 89.773438 287.957031 C 109.375 297.765625 121.386719 286.214844 121.386719 274.609375 L 121.386719 124.3125 C 121.386719 122.183594 123.097656 120.519531 125.226562 120.519531 L 141.949219 120.519531 C 144.035156 120.519531 145.773438 122.199219 145.773438 124.3125 L 145.773438 274.609375 C 145.773438 300.777344 131.527344 315.777344 106.71875 315.777344 C 99.101562 315.777344 93.085938 315.777344 76.332031 307.511719 L 41.71875 287.609375 C 33.167969 282.675781 27.890625 273.4375 27.890625 263.554688 L 27.890625 111.324219 C 27.890625 101.441406 33.183594 92.203125 41.71875 87.28125 L 173.625 11.0625 C 181.980469 6.335938 193.0625 6.335938 201.34375 11.0625 L 333.234375 87.28125 C 341.785156 92.214844 347.09375 101.441406 347.09375 111.324219 L 347.09375 263.554688 C 347.09375 273.4375 341.785156 282.648438 333.234375 287.609375 L 201.34375 363.769531 C 197.144531 366.214844 192.359375 367.476562 187.46875 367.476562 Z M 293.96875 217.390625 C 293.96875 188.894531 274.710938 181.304688 234.171875 175.949219 C 193.214844 170.535156 189.042969 167.730469 189.042969 158.148438 C 189.042969 150.230469 192.570312 139.65625 222.910156 139.65625 C 250.011719 139.65625 260 145.488281 264.109375 163.757812 C 264.46875 165.480469 266.042969 166.742188 267.8125 166.742188 L 284.925781 166.742188 C 285.992188 166.742188 286.996094 166.277344 287.714844 165.527344 C 288.4375 164.71875 288.824219 163.683594 288.722656 162.585938 C 286.066406 131.121094 265.160156 116.453125 222.910156 116.453125 C 185.292969 116.453125 162.855469 132.320312 162.855469 158.941406 C 162.855469 187.8125 185.175781 195.792969 221.273438 199.363281 C 264.46875 203.59375 267.8125 209.90625 267.8125 218.394531 C 267.8125 233.136719 255.980469 239.421875 228.1875 239.421875 C 193.289062 239.421875 185.609375 230.664062 183.03125 213.296875 C 182.730469 211.4375 181.140625 210.070312 179.234375 210.070312 L 162.183594 210.070312 C 160.066406 210.070312 158.371094 211.75 158.371094 213.867188 C 158.371094 236.09375 170.460938 262.578125 228.1875 262.578125 C 270.003906 262.59375 293.96875 246.140625 293.96875 217.390625 Z M 293.96875 217.390625 " fill-opacity="1" fill-rule="nonzero"/></g></svg>