<svg xmlns="http://www.w3.org/2000/svg" xmlns:xlink="http://www.w3.org/1999/xlink" width="500" zoomAndPan="magnify" viewBox="0 0 375 374.999991" height="500" preserveAspectRatio="xMidYMid meet" version="1.0"><defs><clipPath id="a9342d0eb7"><path d="M 6.566406 6.566406 L 368.066406 6.566406 L 368.066406 368.066406 L 6.566406 368.066406 Z M 6.566406 6.566406 " clip-rule="nonzero"/></clipPath></defs><g clip-path="url(#a9342d0eb7)"><path fill="#ffffff" d="M 33.148438 6.566406 C 18.417969 6.566406 6.566406 18.417969 6.566406 33.148438 L 6.566406 341.847656 C 6.566406 356.582031 18.417969 368.429688 33.148438 368.429688 L 341.847656 368.429688 C 356.582031 368.429688 368.429688 356.582031 368.429688 341.847656 L 368.429688 33.148438 C 368.429688 18.417969 356.582031 6.566406 341.847656 6.566406 Z M 83.917969 86.828125 L 292.546875 87.113281 L 292.410156 295.726562 L 240.179688 295.726562 L 240.332031 139.191406 L 188.222656 139.191406 L 188.101562 295.605469 L 83.660156 295.605469 Z M 83.917969 86.828125 " fill-opacity="1" fill-rule="nonzero"/></g></svg>