<svg xmlns="http://www.w3.org/2000/svg" xmlns:xlink="http://www.w3.org/1999/xlink" width="500" zoomAndPan="magnify" viewBox="0 0 375 374.999991" height="500" preserveAspectRatio="xMidYMid meet" version="1.0"><defs><clipPath id="dc1a163915"><path d="M 7.242188 7.242188 L 367.992188 7.242188 L 367.992188 367.992188 L 7.242188 367.992188 Z M 7.242188 7.242188 " clip-rule="nonzero"/></clipPath></defs><g clip-path="url(#dc1a163915)"><path fill="#ffffff" d="M 7.242188 7.242188 L 7.242188 119.902344 L 119.902344 119.902344 L 119.902344 7.242188 Z M 131.167969 7.242188 L 131.167969 119.902344 L 243.800781 119.902344 L 243.800781 7.242188 Z M 255.097656 7.242188 L 255.097656 119.902344 L 367.757812 119.902344 L 367.757812 7.242188 Z M 131.167969 131.167969 L 131.167969 243.832031 L 243.800781 243.832031 L 243.800781 131.167969 Z M 255.097656 131.167969 L 255.097656 243.832031 L 367.757812 243.832031 L 367.757812 131.167969 Z M 7.242188 255.097656 L 7.242188 367.757812 L 119.902344 367.757812 L 119.902344 255.097656 Z M 131.167969 255.097656 L 131.167969 367.757812 L 243.800781 367.757812 L 243.800781 255.097656 Z M 255.097656 255.097656 L 255.097656 367.757812 L 367.757812 367.757812 L 367.757812 255.097656 Z M 255.097656 255.097656 " fill-opacity="1" fill-rule="nonzero"/></g></svg>