<svg xmlns="http://www.w3.org/2000/svg" xmlns:xlink="http://www.w3.org/1999/xlink" width="500" zoomAndPan="magnify" viewBox="0 0 375 374.999991" height="500" preserveAspectRatio="xMidYMid meet" version="1.0"><defs><clipPath id="80fe642149"><path d="M 6.539062 6.539062 L 368.789062 6.539062 L 368.789062 368.789062 L 6.539062 368.789062 Z M 6.539062 6.539062 " clip-rule="nonzero"/></clipPath></defs><g clip-path="url(#80fe642149)"><path fill="#ffffff" d="M 210.523438 8.03125 C 111.417969 -4.679688 20.746094 65.351562 8.03125 164.46875 C -4.679688 263.570312 65.335938 354.230469 164.453125 366.957031 C 263.570312 379.667969 354.261719 309.640625 366.941406 210.523438 C 379.667969 111.417969 309.65625 20.761719 210.523438 8.03125 Z M 247.785156 120.902344 C 246.105469 120.925781 244.492188 121.261719 242.945312 121.914062 C 241.398438 122.566406 240.027344 123.488281 238.839844 124.671875 L 171.691406 191.824219 L 167.0625 187.195312 L 157.367188 177.496094 C 223.550781 111.507812 235.476562 110.875 247.785156 120.902344 Z M 174.453125 194.207031 L 241.40625 127.253906 C 241.84375 126.792969 242.324219 126.378906 242.847656 126.019531 C 243.371094 125.65625 243.921875 125.351562 244.507812 125.101562 C 245.09375 124.851562 245.699219 124.664062 246.320312 124.539062 C 246.945312 124.414062 247.574219 124.351562 248.210938 124.355469 C 248.84375 124.355469 249.472656 124.425781 250.097656 124.554688 C 250.71875 124.6875 251.320312 124.878906 251.902344 125.132812 C 252.488281 125.386719 253.039062 125.695312 253.558594 126.0625 C 254.078125 126.429688 254.554688 126.84375 254.988281 127.308594 C 255.425781 127.769531 255.808594 128.273438 256.140625 128.816406 C 256.472656 129.359375 256.746094 129.929688 256.964844 130.527344 C 257.179688 131.125 257.332031 131.738281 257.425781 132.367188 C 257.515625 132.996094 257.542969 133.628906 257.503906 134.261719 C 257.464844 134.898438 257.363281 135.523438 257.199219 136.136719 C 257.03125 136.75 256.808594 137.339844 256.519531 137.910156 C 256.234375 138.476562 255.894531 139.011719 255.5 139.507812 C 255.105469 140.007812 254.664062 140.460938 254.175781 140.867188 L 183.316406 203.070312 Z M 179.425781 204.671875 L 162.839844 208.257812 C 162.636719 208.304688 162.441406 208.285156 162.25 208.195312 C 162.0625 208.101562 161.921875 207.964844 161.828125 207.777344 C 161.726562 207.597656 161.6875 207.40625 161.714844 207.199219 C 161.746094 206.996094 161.832031 206.820312 161.980469 206.675781 L 171.707031 196.949219 Z M 137.160156 197.75 L 154.832031 180.074219 L 168.085938 193.316406 L 138.246094 199.738281 C 137.988281 199.804688 137.742188 199.785156 137.5 199.671875 C 137.257812 199.5625 137.082031 199.390625 136.964844 199.152344 C 136.816406 198.925781 136.765625 198.679688 136.800781 198.414062 C 136.839844 198.148438 136.957031 197.925781 137.160156 197.75 Z M 82.179688 289.101562 C 82.027344 289.089844 81.882812 289.046875 81.746094 288.976562 C 81.613281 288.902344 81.496094 288.808594 81.398438 288.691406 C 81.300781 288.574219 81.230469 288.441406 81.183594 288.296875 C 81.140625 288.152344 81.125 288 81.140625 287.851562 C 81.167969 287.578125 81.277344 287.347656 81.46875 287.15625 L 81.5 287.15625 L 95.765625 272.890625 L 114.191406 291.316406 Z M 118.746094 270.160156 C 118.40625 270.339844 118.101562 270.566406 117.835938 270.84375 C 117.570312 271.121094 117.359375 271.4375 117.199219 271.785156 C 117.039062 272.136719 116.941406 272.503906 116.902344 272.886719 C 116.867188 273.269531 116.894531 273.648438 116.984375 274.023438 L 120.042969 287.066406 C 120.144531 287.480469 120.113281 287.878906 119.941406 288.269531 C 119.769531 288.660156 119.5 288.957031 119.128906 289.164062 C 118.753906 289.371094 118.359375 289.441406 117.9375 289.378906 C 117.519531 289.320312 117.160156 289.136719 116.863281 288.828125 L 116.816406 288.828125 L 102.734375 274.746094 L 98.300781 270.296875 L 155.027344 213.628906 L 182.472656 207.703125 L 195.652344 220.882812 C 176.726562 237.5 150.851562 254.070312 118.746094 270.160156 Z M 198.351562 218.46875 L 198.324219 218.46875 L 185.671875 205.816406 L 256.53125 143.613281 C 257.1875 143.03125 257.785156 142.390625 258.324219 141.699219 C 256.09375 161.980469 227.726562 190.632812 198.351562 218.46875 Z M 253.5 121.054688 L 253.453125 121.023438 C 252.835938 120.40625 252.25 119.757812 251.699219 119.082031 C 251.144531 118.410156 250.621094 117.707031 250.132812 116.984375 C 249.648438 116.257812 249.195312 115.511719 248.777344 114.746094 C 248.363281 113.976562 247.980469 113.191406 247.640625 112.390625 C 247.300781 111.585938 246.996094 110.765625 246.734375 109.933594 C 246.46875 109.101562 246.246094 108.257812 246.0625 107.402344 C 245.878906 106.550781 245.738281 105.6875 245.636719 104.820312 C 245.535156 103.953125 245.476562 103.082031 245.457031 102.210938 C 245.441406 101.335938 245.464844 100.464844 245.527344 99.59375 C 245.59375 98.722656 245.699219 97.859375 245.847656 96.996094 C 245.996094 96.136719 246.183594 95.285156 246.414062 94.441406 C 246.640625 93.597656 246.910156 92.769531 247.21875 91.949219 C 247.527344 91.132812 247.871094 90.332031 248.257812 89.550781 C 248.640625 88.765625 249.0625 88 249.519531 87.257812 C 249.976562 86.511719 250.46875 85.792969 250.996094 85.09375 C 251.519531 84.398438 252.078125 83.726562 252.667969 83.082031 C 253.257812 82.4375 253.878906 81.824219 254.527344 81.238281 C 255.175781 80.65625 255.851562 80.101562 256.550781 79.582031 C 257.253906 79.058594 257.976562 78.574219 258.726562 78.121094 C 259.472656 77.671875 260.238281 77.257812 261.027344 76.878906 C 261.816406 76.5 262.617188 76.160156 263.4375 75.859375 C 264.257812 75.558594 265.089844 75.292969 265.933594 75.074219 C 266.777344 74.851562 267.632812 74.667969 268.492188 74.527344 C 269.355469 74.386719 270.222656 74.289062 271.09375 74.230469 C 271.964844 74.171875 272.835938 74.152344 273.710938 74.179688 C 274.582031 74.203125 275.453125 74.269531 276.320312 74.378906 C 277.1875 74.484375 278.046875 74.636719 278.898438 74.824219 C 279.75 75.015625 280.59375 75.246094 281.421875 75.515625 C 282.253906 75.785156 283.070312 76.09375 283.871094 76.441406 C 284.671875 76.789062 285.457031 77.175781 286.21875 77.597656 C 286.984375 78.019531 287.726562 78.476562 288.445312 78.972656 C 289.167969 79.464844 289.863281 79.992188 290.535156 80.550781 L 266.253906 104.875 C 266.085938 105.042969 265.953125 105.238281 265.863281 105.457031 C 265.769531 105.679688 265.726562 105.910156 265.726562 106.148438 C 265.726562 106.386719 265.769531 106.617188 265.863281 106.839844 C 265.953125 107.058594 266.085938 107.253906 266.253906 107.421875 L 285.058594 126.226562 C 283.78125 126.859375 282.464844 127.390625 281.105469 127.820312 C 279.746094 128.246094 278.359375 128.566406 276.949219 128.78125 C 275.539062 128.992188 274.121094 129.09375 272.695312 129.082031 C 271.269531 129.074219 269.851562 128.953125 268.445312 128.722656 C 267.039062 128.492188 265.660156 128.15625 264.304688 127.707031 C 262.949219 127.261719 261.640625 126.714844 260.371094 126.0625 C 259.101562 125.410156 257.890625 124.667969 256.738281 123.828125 C 255.585938 122.988281 254.507812 122.0625 253.5 121.054688 Z M 292.375 121.054688 C 291.125 122.289062 289.761719 123.386719 288.289062 124.339844 L 288.273438 124.339844 L 270.070312 106.140625 L 293.1875 83.023438 C 303.15625 93.882812 302.792969 110.648438 292.375 121.054688 Z M 290.867188 97.773438 C 290.492188 98.039062 290.234375 98.394531 290.089844 98.828125 C 289.941406 99.261719 289.933594 99.699219 290.066406 100.140625 C 290.335938 100.683594 290.519531 101.253906 290.625 101.851562 C 290.726562 102.449219 290.742188 103.046875 290.671875 103.648438 C 290.601562 104.253906 290.445312 104.832031 290.207031 105.390625 C 289.96875 105.945312 289.65625 106.457031 289.265625 106.925781 C 289.09375 107.144531 288.96875 107.390625 288.890625 107.660156 C 288.8125 107.929688 288.792969 108.203125 288.824219 108.480469 C 288.855469 108.761719 288.941406 109.023438 289.078125 109.269531 C 289.214844 109.511719 289.394531 109.722656 289.613281 109.894531 C 289.984375 110.1875 290.410156 110.335938 290.878906 110.347656 C 291.53125 110.34375 292.0625 110.089844 292.480469 109.59375 C 293.125 108.816406 293.648438 107.960938 294.046875 107.03125 C 294.445312 106.101562 294.703125 105.132812 294.820312 104.125 C 294.9375 103.121094 294.910156 102.121094 294.734375 101.121094 C 294.558594 100.125 294.242188 99.175781 293.792969 98.269531 C 293.632812 98.039062 293.433594 97.851562 293.199219 97.703125 C 292.964844 97.550781 292.707031 97.453125 292.433594 97.40625 C 292.15625 97.359375 291.882812 97.367188 291.613281 97.433594 C 291.339844 97.496094 291.09375 97.609375 290.867188 97.773438 Z M 290.867188 97.773438 " fill-opacity="1" fill-rule="nonzero"/></g></svg>