<svg xmlns="http://www.w3.org/2000/svg" xmlns:xlink="http://www.w3.org/1999/xlink" width="500" zoomAndPan="magnify" viewBox="0 0 375 374.999991" height="500" preserveAspectRatio="xMidYMid meet" version="1.0"><defs><clipPath id="9b71491035"><path d="M 38 3.367188 L 337 3.367188 L 337 371.617188 L 38 371.617188 Z M 38 3.367188 " clip-rule="nonzero"/></clipPath></defs><g clip-path="url(#9b71491035)"><path fill="#ffffff" d="M 168.707031 269.554688 L 92.464844 269.554688 C 92.179688 269.554688 91.898438 269.582031 91.621094 269.636719 C 91.34375 269.695312 91.074219 269.777344 90.8125 269.882812 C 90.550781 269.992188 90.300781 270.125 90.066406 270.285156 C 89.828125 270.441406 89.609375 270.621094 89.410156 270.820312 C 89.210938 271.019531 89.03125 271.238281 88.875 271.476562 C 88.714844 271.710938 88.582031 271.960938 88.472656 272.222656 C 88.367188 272.484375 88.285156 272.753906 88.226562 273.03125 C 88.171875 273.308594 88.144531 273.589844 88.144531 273.875 C 88.144531 274.160156 88.171875 274.4375 88.226562 274.71875 C 88.285156 274.996094 88.367188 275.265625 88.472656 275.527344 C 88.582031 275.789062 88.714844 276.039062 88.875 276.273438 C 89.03125 276.511719 89.210938 276.730469 89.410156 276.929688 C 89.609375 277.128906 89.828125 277.308594 90.066406 277.464844 C 90.300781 277.625 90.550781 277.757812 90.8125 277.867188 C 91.074219 277.972656 91.34375 278.054688 91.621094 278.109375 C 91.898438 278.167969 92.179688 278.195312 92.464844 278.195312 L 168.707031 278.195312 C 168.992188 278.195312 169.273438 278.167969 169.550781 278.109375 C 169.828125 278.054688 170.097656 277.972656 170.363281 277.867188 C 170.625 277.757812 170.871094 277.625 171.109375 277.464844 C 171.34375 277.308594 171.5625 277.128906 171.761719 276.929688 C 171.964844 276.730469 172.140625 276.511719 172.300781 276.273438 C 172.457031 276.039062 172.589844 275.789062 172.699219 275.527344 C 172.808594 275.265625 172.890625 274.996094 172.945312 274.71875 C 173 274.4375 173.027344 274.160156 173.027344 273.875 C 173.027344 273.589844 173 273.308594 172.945312 273.03125 C 172.890625 272.753906 172.808594 272.484375 172.699219 272.222656 C 172.589844 271.960938 172.457031 271.710938 172.300781 271.476562 C 172.140625 271.238281 171.964844 271.019531 171.761719 270.820312 C 171.5625 270.621094 171.34375 270.441406 171.109375 270.285156 C 170.871094 270.125 170.625 269.992188 170.363281 269.882812 C 170.097656 269.777344 169.828125 269.695312 169.550781 269.636719 C 169.273438 269.582031 168.992188 269.554688 168.707031 269.554688 Z M 281.019531 269.554688 L 204.777344 269.554688 C 204.496094 269.554688 204.214844 269.582031 203.9375 269.636719 C 203.65625 269.695312 203.386719 269.777344 203.125 269.882812 C 202.863281 269.992188 202.613281 270.125 202.378906 270.285156 C 202.144531 270.441406 201.925781 270.621094 201.722656 270.820312 C 201.523438 271.019531 201.34375 271.238281 201.1875 271.476562 C 201.027344 271.710938 200.894531 271.960938 200.789062 272.222656 C 200.679688 272.484375 200.597656 272.753906 200.542969 273.03125 C 200.488281 273.308594 200.457031 273.589844 200.457031 273.875 C 200.457031 274.160156 200.488281 274.4375 200.542969 274.71875 C 200.597656 274.996094 200.679688 275.265625 200.789062 275.527344 C 200.894531 275.789062 201.027344 276.039062 201.1875 276.273438 C 201.34375 276.511719 201.523438 276.730469 201.722656 276.929688 C 201.925781 277.128906 202.144531 277.308594 202.378906 277.464844 C 202.613281 277.625 202.863281 277.757812 203.125 277.867188 C 203.386719 277.972656 203.65625 278.054688 203.9375 278.109375 C 204.214844 278.167969 204.496094 278.195312 204.777344 278.195312 L 281.019531 278.195312 C 281.304688 278.195312 281.585938 278.167969 281.863281 278.109375 C 282.140625 278.054688 282.410156 277.972656 282.671875 277.867188 C 282.9375 277.757812 283.183594 277.625 283.421875 277.464844 C 283.65625 277.308594 283.875 277.128906 284.074219 276.929688 C 284.277344 276.730469 284.453125 276.511719 284.613281 276.273438 C 284.769531 276.039062 284.902344 275.789062 285.011719 275.527344 C 285.121094 275.265625 285.203125 274.996094 285.257812 274.71875 C 285.3125 274.4375 285.339844 274.160156 285.339844 273.875 C 285.339844 273.589844 285.3125 273.308594 285.257812 273.03125 C 285.203125 272.753906 285.121094 272.484375 285.011719 272.222656 C 284.902344 271.960938 284.769531 271.710938 284.613281 271.476562 C 284.453125 271.238281 284.277344 271.019531 284.074219 270.820312 C 283.875 270.621094 283.65625 270.441406 283.421875 270.285156 C 283.183594 270.125 282.9375 269.992188 282.671875 269.882812 C 282.410156 269.777344 282.140625 269.695312 281.863281 269.636719 C 281.585938 269.582031 281.304688 269.554688 281.019531 269.554688 Z M 168.492188 170.203125 L 92.464844 170.203125 C 92.179688 170.199219 91.898438 170.226562 91.621094 170.28125 C 91.34375 170.339844 91.070312 170.417969 90.808594 170.527344 C 90.546875 170.636719 90.296875 170.769531 90.0625 170.925781 C 89.824219 171.085938 89.605469 171.261719 89.40625 171.464844 C 89.203125 171.664062 89.023438 171.882812 88.867188 172.117188 C 88.707031 172.355469 88.574219 172.605469 88.464844 172.867188 C 88.359375 173.128906 88.277344 173.398438 88.21875 173.675781 C 88.164062 173.957031 88.136719 174.238281 88.136719 174.519531 C 88.136719 174.804688 88.164062 175.085938 88.21875 175.363281 C 88.277344 175.644531 88.359375 175.914062 88.464844 176.175781 C 88.574219 176.4375 88.707031 176.6875 88.867188 176.921875 C 89.023438 177.160156 89.203125 177.378906 89.40625 177.578125 C 89.605469 177.777344 89.824219 177.957031 90.0625 178.117188 C 90.296875 178.273438 90.546875 178.40625 90.808594 178.515625 C 91.070312 178.621094 91.34375 178.703125 91.621094 178.757812 C 91.898438 178.8125 92.179688 178.839844 92.464844 178.839844 L 168.492188 178.839844 C 168.777344 178.839844 169.058594 178.8125 169.335938 178.757812 C 169.613281 178.703125 169.886719 178.621094 170.148438 178.515625 C 170.410156 178.40625 170.660156 178.273438 170.894531 178.117188 C 171.132812 177.957031 171.351562 177.777344 171.550781 177.578125 C 171.753906 177.378906 171.933594 177.160156 172.089844 176.921875 C 172.25 176.6875 172.382812 176.4375 172.492188 176.175781 C 172.597656 175.914062 172.679688 175.644531 172.738281 175.363281 C 172.792969 175.085938 172.820312 174.804688 172.820312 174.519531 C 172.820312 174.238281 172.792969 173.957031 172.738281 173.675781 C 172.679688 173.398438 172.597656 173.128906 172.492188 172.867188 C 172.382812 172.605469 172.25 172.355469 172.089844 172.117188 C 171.933594 171.882812 171.753906 171.664062 171.550781 171.464844 C 171.351562 171.261719 171.132812 171.085938 170.894531 170.925781 C 170.660156 170.769531 170.410156 170.636719 170.148438 170.527344 C 169.886719 170.417969 169.613281 170.339844 169.335938 170.28125 C 169.058594 170.226562 168.777344 170.199219 168.492188 170.203125 Z M 280.804688 170.203125 L 204.777344 170.203125 C 204.496094 170.199219 204.214844 170.226562 203.933594 170.28125 C 203.65625 170.339844 203.386719 170.417969 203.121094 170.527344 C 202.859375 170.636719 202.609375 170.769531 202.375 170.925781 C 202.136719 171.085938 201.917969 171.261719 201.71875 171.464844 C 201.515625 171.664062 201.339844 171.882812 201.179688 172.117188 C 201.023438 172.355469 200.890625 172.605469 200.78125 172.867188 C 200.671875 173.128906 200.589844 173.398438 200.535156 173.675781 C 200.476562 173.957031 200.449219 174.238281 200.449219 174.519531 C 200.449219 174.804688 200.476562 175.085938 200.535156 175.363281 C 200.589844 175.644531 200.671875 175.914062 200.78125 176.175781 C 200.890625 176.4375 201.023438 176.6875 201.179688 176.921875 C 201.339844 177.160156 201.515625 177.378906 201.71875 177.578125 C 201.917969 177.777344 202.136719 177.957031 202.375 178.117188 C 202.609375 178.273438 202.859375 178.40625 203.121094 178.515625 C 203.386719 178.621094 203.65625 178.703125 203.933594 178.757812 C 204.214844 178.8125 204.496094 178.839844 204.777344 178.839844 L 280.804688 178.839844 C 281.085938 178.839844 281.367188 178.8125 281.644531 178.757812 C 281.921875 178.699219 282.191406 178.617188 282.453125 178.507812 C 282.714844 178.398438 282.964844 178.265625 283.199219 178.109375 C 283.433594 177.953125 283.652344 177.773438 283.851562 177.570312 C 284.054688 177.371094 284.230469 177.152344 284.390625 176.917969 C 284.546875 176.683594 284.679688 176.433594 284.789062 176.171875 C 284.894531 175.910156 284.976562 175.640625 285.03125 175.363281 C 285.085938 175.085938 285.117188 174.804688 285.117188 174.519531 C 285.117188 174.238281 285.085938 173.957031 285.03125 173.679688 C 284.976562 173.402344 284.894531 173.132812 284.789062 172.871094 C 284.679688 172.609375 284.546875 172.359375 284.390625 172.125 C 284.230469 171.886719 284.054688 171.671875 283.851562 171.46875 C 283.652344 171.269531 283.433594 171.089844 283.199219 170.933594 C 282.964844 170.773438 282.714844 170.640625 282.453125 170.53125 C 282.191406 170.425781 281.921875 170.339844 281.644531 170.285156 C 281.367188 170.230469 281.085938 170.203125 280.804688 170.203125 Z M 289.269531 29.03125 L 222.660156 29.03125 C 222.070312 27.183594 221.335938 25.390625 220.464844 23.652344 C 219.589844 21.917969 218.582031 20.261719 217.445312 18.6875 C 216.308594 17.109375 215.058594 15.632812 213.6875 14.253906 C 212.316406 12.875 210.847656 11.613281 209.277344 10.46875 C 207.710938 9.320312 206.058594 8.304688 204.328125 7.417969 C 202.601562 6.535156 200.8125 5.789062 198.964844 5.1875 C 197.117188 4.585938 195.234375 4.128906 193.3125 3.824219 C 191.394531 3.519531 189.464844 3.367188 187.519531 3.367188 C 185.578125 3.367188 183.644531 3.519531 181.726562 3.824219 C 179.808594 4.128906 177.925781 4.585938 176.078125 5.1875 C 174.230469 5.789062 172.441406 6.535156 170.710938 7.417969 C 168.980469 8.304688 167.332031 9.320312 165.761719 10.46875 C 164.191406 11.613281 162.722656 12.875 161.355469 14.253906 C 159.984375 15.632812 158.730469 17.109375 157.59375 18.6875 C 156.457031 20.261719 155.453125 21.917969 154.578125 23.652344 C 153.703125 25.390625 152.96875 27.183594 152.378906 29.03125 L 85.726562 29.03125 C 59.484375 29.03125 38.207031 50.304688 38.207031 76.550781 L 38.207031 324.113281 C 38.207031 350.355469 59.484375 371.628906 85.726562 371.628906 L 289.269531 371.628906 C 315.515625 371.628906 336.789062 350.355469 336.789062 324.113281 L 336.789062 76.550781 C 336.789062 50.304688 315.515625 29.03125 289.269531 29.03125 Z M 155.707031 37.671875 C 156.207031 37.683594 156.699219 37.609375 157.171875 37.449219 C 157.648438 37.289062 158.085938 37.054688 158.480469 36.742188 C 158.875 36.429688 159.203125 36.0625 159.46875 35.636719 C 159.734375 35.210938 159.917969 34.75 160.023438 34.257812 C 160.367188 32.695312 160.835938 31.171875 161.433594 29.6875 C 162.035156 28.203125 162.753906 26.78125 163.597656 25.417969 C 164.4375 24.058594 165.386719 22.777344 166.445312 21.578125 C 167.503906 20.378906 168.660156 19.273438 169.90625 18.269531 C 171.152344 17.265625 172.472656 16.375 173.871094 15.597656 C 175.269531 14.816406 176.722656 14.160156 178.230469 13.628906 C 179.742188 13.097656 181.285156 12.695312 182.863281 12.425781 C 184.4375 12.15625 186.027344 12.019531 187.628906 12.019531 C 189.230469 12.019531 190.816406 12.15625 192.394531 12.425781 C 193.972656 12.695312 195.515625 13.097656 197.027344 13.628906 C 198.535156 14.160156 199.988281 14.816406 201.386719 15.597656 C 202.785156 16.375 204.105469 17.265625 205.351562 18.269531 C 206.597656 19.273438 207.75 20.378906 208.8125 21.578125 C 209.871094 22.777344 210.820312 24.058594 211.660156 25.417969 C 212.503906 26.78125 213.222656 28.203125 213.820312 29.6875 C 214.421875 31.171875 214.890625 32.695312 215.230469 34.257812 C 215.335938 34.75 215.523438 35.210938 215.789062 35.636719 C 216.054688 36.0625 216.382812 36.429688 216.777344 36.742188 C 217.171875 37.054688 217.605469 37.289062 218.082031 37.449219 C 218.558594 37.609375 219.050781 37.683594 219.550781 37.671875 L 242.792969 37.671875 L 242.792969 65.964844 C 242.792969 66.816406 242.710938 67.660156 242.542969 68.496094 C 242.378906 69.328125 242.132812 70.140625 241.804688 70.925781 C 241.480469 71.710938 241.082031 72.460938 240.609375 73.167969 C 240.136719 73.875 239.597656 74.527344 238.996094 75.128906 C 238.394531 75.730469 237.738281 76.269531 237.03125 76.742188 C 236.324219 77.214844 235.578125 77.613281 234.792969 77.941406 C 234.003906 78.265625 233.195312 78.511719 232.359375 78.675781 C 231.527344 78.84375 230.683594 78.925781 229.832031 78.925781 L 145.382812 78.925781 C 144.53125 78.925781 143.6875 78.84375 142.855469 78.675781 C 142.019531 78.511719 141.207031 78.265625 140.421875 77.941406 C 139.636719 77.613281 138.890625 77.214844 138.183594 76.742188 C 137.476562 76.269531 136.820312 75.730469 136.21875 75.128906 C 135.617188 74.527344 135.078125 73.875 134.605469 73.167969 C 134.132812 72.460938 133.734375 71.710938 133.410156 70.925781 C 133.082031 70.140625 132.835938 69.328125 132.671875 68.496094 C 132.503906 67.660156 132.421875 66.816406 132.421875 65.964844 L 132.421875 37.671875 Z M 328.148438 324.113281 C 328.148438 345.585938 310.742188 362.992188 289.269531 362.992188 L 85.726562 362.992188 C 64.253906 362.992188 46.847656 345.585938 46.847656 324.113281 L 46.847656 76.550781 C 46.847656 55.078125 64.253906 37.671875 85.726562 37.671875 L 123.785156 37.671875 L 123.785156 65.964844 C 123.785156 77.894531 133.453125 87.566406 145.382812 87.566406 L 229.617188 87.566406 C 241.542969 87.566406 251.214844 77.894531 251.214844 65.964844 L 251.214844 37.671875 L 289.269531 37.671875 C 310.742188 37.671875 328.148438 55.078125 328.148438 76.550781 Z M 328.148438 324.113281 " fill-opacity="1" fill-rule="nonzero"/></g></svg>