<svg xmlns="http://www.w3.org/2000/svg" xmlns:xlink="http://www.w3.org/1999/xlink" width="500" zoomAndPan="magnify" viewBox="0 0 375 374.999991" height="500" preserveAspectRatio="xMidYMid meet" version="1.0"><defs><clipPath id="65073b163a"><path d="M 8.925781 90 L 367.425781 90 L 367.425781 286 L 8.925781 286 Z M 8.925781 90 " clip-rule="nonzero"/></clipPath></defs><g clip-path="url(#65073b163a)"><path fill="#ffffff" d="M 189.960938 90.585938 C 186.804688 90.558594 183.703125 90.957031 180.65625 91.78125 C 176.5 92.78125 170.167969 96.738281 166.417969 100.488281 C 160.292969 106.808594 159.097656 109.585938 156.527344 122.4375 C 155.332031 128.753906 162.652344 143.800781 169.179688 148.339844 C 175.902344 153.078125 185.390625 155.839844 200.03125 157.425781 C 221.378906 159.8125 227.519531 166.925781 227.519531 190.246094 C 227.519531 210.816406 221.769531 216.34375 198.238281 218.71875 C 172.738281 221.289062 159.695312 231.179688 156.929688 250.347656 C 155.347656 262.015625 163.054688 276.640625 173.738281 281.585938 C 198.042969 293.058594 220.796875 278.628906 225.53125 248.777344 C 228.683594 229.597656 234.824219 224.25 255.382812 222.679688 C 279.105469 220.691406 291.371094 212.59375 295.914062 195.984375 C 300.066406 180.746094 291.371094 163.757812 276.535156 157.828125 C 272.59375 156.242188 263.496094 154.273438 256.367188 153.480469 C 234.035156 151.089844 228.296875 147.144531 225.921875 132.714844 C 222.558594 112.738281 221.1875 109.378906 214.058594 101.492188 C 212.546875 99.789062 210.871094 98.261719 209.039062 96.910156 C 207.203125 95.558594 205.246094 94.414062 203.171875 93.472656 C 201.09375 92.535156 198.945312 91.820312 196.71875 91.335938 C 194.492188 90.847656 192.242188 90.597656 189.960938 90.585938 Z M 118.476562 155.722656 C 115.972656 155.667969 113.5 155.910156 111.050781 156.4375 C 89.105469 161.1875 78.632812 187.078125 90.882812 205.664062 C 108.480469 232.167969 149.804688 219.902344 150.195312 188.078125 C 150.371094 170.257812 135.550781 156.066406 118.476562 155.722656 Z M 40.132812 220.917969 C 37.984375 220.96875 35.855469 221.226562 33.753906 221.695312 C 1.515625 228.804688 0.335938 275.863281 32.171875 284.171875 C 40.089844 286.335938 40.867188 286.335938 48.769531 284.363281 C 66.5625 279.613281 76.644531 262.613281 71.910156 245.417969 C 67.757812 230.179688 54.820312 220.558594 40.132812 220.917969 Z M 336.292969 221.035156 C 332.8125 221.066406 329.167969 221.902344 324.582031 223.457031 C 303.816406 230.582031 296.703125 254.710938 309.941406 273.292969 C 318.261719 285.15625 339.222656 289.101562 352.070312 281.003906 C 373.222656 267.945312 372.433594 235.332031 350.679688 225.039062 C 345.003906 222.261719 340.777344 220.992188 336.292969 221.035156 Z M 336.292969 221.035156 " fill-opacity="1" fill-rule="nonzero"/></g></svg>