<svg xmlns="http://www.w3.org/2000/svg" xmlns:xlink="http://www.w3.org/1999/xlink" width="500" zoomAndPan="magnify" viewBox="0 0 375 374.999991" height="500" preserveAspectRatio="xMidYMid meet" version="1.0"><defs><clipPath id="06c4c66944"><path d="M 4.714844 24 L 369.964844 24 L 369.964844 351 L 4.714844 351 Z M 4.714844 24 " clip-rule="nonzero"/></clipPath></defs><g clip-path="url(#06c4c66944)"><path fill="#ffffff" d="M 221.464844 187.558594 C 221.464844 188.675781 221.410156 189.789062 221.300781 190.898438 C 221.191406 192.007812 221.03125 193.109375 220.8125 194.203125 C 220.59375 195.296875 220.324219 196.375 220 197.445312 C 219.675781 198.511719 219.300781 199.558594 218.875 200.589844 C 218.449219 201.621094 217.972656 202.628906 217.445312 203.609375 C 216.921875 204.59375 216.347656 205.550781 215.730469 206.476562 C 215.109375 207.402344 214.445312 208.300781 213.738281 209.160156 C 213.03125 210.023438 212.285156 210.847656 211.496094 211.636719 C 210.707031 212.425781 209.882812 213.175781 209.019531 213.882812 C 208.160156 214.589844 207.265625 215.253906 206.335938 215.875 C 205.410156 216.492188 204.453125 217.066406 203.472656 217.589844 C 202.488281 218.117188 201.480469 218.59375 200.453125 219.019531 C 199.421875 219.449219 198.371094 219.824219 197.304688 220.148438 C 196.238281 220.472656 195.160156 220.742188 194.066406 220.960938 C 192.972656 221.179688 191.871094 221.34375 190.761719 221.453125 C 189.648438 221.5625 188.539062 221.617188 187.421875 221.617188 C 186.308594 221.617188 185.195312 221.5625 184.085938 221.453125 C 182.972656 221.34375 181.871094 221.179688 180.777344 220.964844 C 179.683594 220.746094 178.601562 220.476562 177.535156 220.152344 C 176.46875 219.828125 175.417969 219.453125 174.390625 219.027344 C 173.359375 218.597656 172.351562 218.121094 171.367188 217.597656 C 170.382812 217.070312 169.429688 216.5 168.5 215.878906 C 167.574219 215.257812 166.679688 214.59375 165.816406 213.886719 C 164.953125 213.179688 164.128906 212.429688 163.339844 211.644531 C 162.550781 210.855469 161.800781 210.027344 161.09375 209.167969 C 160.386719 208.304688 159.722656 207.410156 159.105469 206.480469 C 158.484375 205.554688 157.910156 204.597656 157.386719 203.613281 C 156.859375 202.632812 156.382812 201.625 155.957031 200.59375 C 155.53125 199.5625 155.15625 198.515625 154.832031 197.445312 C 154.507812 196.378906 154.234375 195.296875 154.019531 194.203125 C 153.800781 193.109375 153.636719 192.007812 153.527344 190.898438 C 153.417969 189.789062 153.363281 188.675781 153.363281 187.558594 C 153.363281 186.445312 153.417969 185.332031 153.527344 184.222656 C 153.636719 183.113281 153.800781 182.011719 154.019531 180.917969 C 154.234375 179.824219 154.507812 178.742188 154.828125 177.675781 C 155.152344 176.609375 155.527344 175.558594 155.957031 174.53125 C 156.382812 173.5 156.859375 172.492188 157.382812 171.507812 C 157.910156 170.523438 158.480469 169.570312 159.101562 168.640625 C 159.71875 167.714844 160.382812 166.820312 161.089844 165.957031 C 161.796875 165.097656 162.546875 164.269531 163.335938 163.480469 C 164.121094 162.691406 164.949219 161.945312 165.808594 161.238281 C 166.671875 160.53125 167.566406 159.867188 168.492188 159.246094 C 169.417969 158.625 170.375 158.054688 171.359375 157.527344 C 172.339844 157 173.347656 156.523438 174.378906 156.097656 C 175.410156 155.671875 176.457031 155.296875 177.523438 154.972656 C 178.589844 154.648438 179.671875 154.375 180.765625 154.15625 C 181.859375 153.941406 182.960938 153.777344 184.070312 153.667969 C 185.179688 153.558594 186.292969 153.5 187.40625 153.5 C 188.523438 153.5 189.636719 153.554688 190.746094 153.664062 C 191.855469 153.773438 192.957031 153.9375 194.050781 154.15625 C 195.144531 154.375 196.226562 154.644531 197.292969 154.96875 C 198.363281 155.292969 199.410156 155.667969 200.441406 156.09375 C 201.472656 156.519531 202.480469 156.996094 203.460938 157.523438 C 204.445312 158.046875 205.402344 158.621094 206.328125 159.242188 C 207.257812 159.859375 208.152344 160.523438 209.015625 161.230469 C 209.875 161.941406 210.703125 162.6875 211.492188 163.476562 C 212.277344 164.265625 213.027344 165.089844 213.734375 165.953125 C 214.441406 166.816406 215.105469 167.710938 215.726562 168.636719 C 216.347656 169.566406 216.917969 170.519531 217.445312 171.503906 C 217.96875 172.488281 218.445312 173.496094 218.875 174.527344 C 219.300781 175.554688 219.675781 176.605469 220 177.671875 C 220.324219 178.742188 220.59375 179.820312 220.8125 180.914062 C 221.027344 182.007812 221.191406 183.109375 221.300781 184.222656 C 221.410156 185.332031 221.464844 186.445312 221.464844 187.558594 Z M 261.800781 24.730469 C 241.296875 24.730469 214.472656 39.351562 187.347656 64.667969 C 160.234375 39.488281 133.394531 25.035156 112.90625 25.035156 C 106.664062 25.035156 100.980469 26.453125 96.0625 29.269531 C 75.117188 41.347656 70.425781 78.988281 81.242188 126.21875 C 34.875 140.539062 4.714844 163.433594 4.714844 187.558594 C 4.714844 211.777344 35.027344 234.734375 81.53125 248.945312 C 70.808594 296.363281 75.589844 334.058594 96.578125 346.125 C 101.453125 348.972656 107.089844 350.3125 113.363281 350.3125 C 133.851562 350.3125 160.691406 335.691406 187.820312 310.34375 C 214.929688 335.539062 241.769531 349.992188 262.257812 349.992188 C 268.503906 349.992188 274.183594 348.621094 279.105469 345.804688 C 300.03125 333.742188 304.738281 296.101562 293.925781 248.851562 C 340.121094 234.65625 370.28125 211.71875 370.28125 187.558594 C 370.28125 163.339844 339.96875 140.386719 293.46875 126.144531 C 304.191406 78.773438 299.40625 41.042969 278.417969 28.964844 C 273.574219 26.164062 267.9375 24.746094 261.785156 24.730469 Z M 261.722656 41.332031 L 261.722656 41.425781 C 265.152344 41.425781 267.90625 42.09375 270.222656 43.359375 C 280.367188 49.175781 284.769531 71.308594 281.34375 99.777344 C 280.519531 106.785156 279.179688 114.171875 277.535156 121.710938 C 262.910156 118.117188 246.980469 115.359375 230.210938 113.578125 C 220.15625 99.792969 209.722656 87.273438 199.210938 76.304688 C 223.460938 53.761719 246.234375 41.394531 261.738281 41.347656 Z M 112.90625 41.636719 C 128.324219 41.636719 151.199219 53.945312 175.511719 76.367188 C 165.0625 87.332031 154.644531 99.777344 144.742188 113.5625 C 127.882812 115.34375 111.933594 118.101562 97.324219 121.757812 C 95.621094 114.292969 94.355469 107.074219 93.457031 100.128906 C 89.953125 71.675781 94.28125 49.558594 104.332031 43.664062 C 107.226562 42.292969 110.425781 41.730469 112.90625 41.652344 Z M 187.269531 88.09375 C 194.199219 95.222656 201.132812 103.207031 207.984375 111.917969 C 201.285156 111.613281 194.429688 111.398438 187.5 111.398438 C 180.492188 111.398438 173.5625 111.550781 166.785156 111.917969 C 173.484375 103.207031 180.414062 95.222656 187.269531 88.078125 Z M 187.5 128.09375 C 198.769531 128.09375 209.996094 128.613281 221.039062 129.511719 C 227.222656 138.375 233.253906 147.835938 239.058594 157.84375 C 244.726562 167.589844 249.875 177.492188 254.566406 187.484375 C 249.875 197.460938 244.726562 207.4375 239.136719 217.1875 C 233.347656 227.238281 227.359375 236.804688 221.160156 245.667969 C 210.074219 246.628906 198.832031 247.164062 187.5 247.164062 C 176.226562 247.164062 165 246.628906 153.957031 245.746094 C 147.773438 236.878906 141.742188 227.40625 135.9375 217.414062 C 130.273438 207.664062 125.125 197.765625 120.433594 187.773438 C 125.046875 177.765625 130.273438 167.773438 135.863281 158.007812 C 141.652344 147.957031 147.636719 138.421875 153.835938 129.554688 C 164.925781 128.582031 176.167969 128.0625 187.5 128.0625 Z M 132.128906 131.964844 C 128.476562 137.707031 124.820312 143.585938 121.40625 149.632812 C 117.980469 155.574219 114.78125 161.542969 111.734375 167.515625 C 107.699219 157.523438 104.273438 147.5625 101.4375 137.859375 C 111.1875 135.574219 121.46875 133.546875 132.128906 131.976562 Z M 242.714844 131.964844 C 253.300781 133.53125 263.507812 135.464844 273.269531 137.859375 C 270.527344 147.484375 267.101562 157.386719 263.214844 167.300781 C 260.171875 161.359375 256.972656 155.375 253.46875 149.417969 C 250.042969 143.449219 246.386719 137.628906 242.730469 131.964844 Z M 289.371094 142.246094 C 296.742188 144.53125 303.75 147.074219 310.3125 149.832031 C 336.695312 161.101562 353.753906 175.847656 353.753906 187.542969 C 353.679688 199.242188 336.621094 214.046875 310.238281 225.242188 C 303.839844 227.984375 296.832031 230.453125 289.597656 232.753906 C 285.332031 218.160156 279.757812 202.960938 272.84375 187.363281 C 279.699219 171.871094 285.179688 156.746094 289.371094 142.214844 Z M 85.339844 142.304688 C 89.574219 156.929688 95.164062 172.113281 102.09375 187.695312 C 95.238281 203.1875 89.726562 218.3125 85.550781 232.84375 C 78.179688 230.558594 71.171875 228 64.683594 225.226562 C 38.300781 214.003906 21.242188 199.242188 21.242188 187.542969 C 21.242188 175.847656 38.300781 161.011719 64.683594 149.832031 C 71.082031 147.089844 78.085938 144.621094 85.339844 142.304688 Z M 263.214844 207.5 C 267.253906 217.503906 270.679688 227.484375 273.511719 237.171875 C 263.765625 239.5625 253.46875 241.585938 242.804688 243.109375 C 246.460938 237.398438 250.117188 231.503906 253.542969 225.472656 C 256.972656 219.53125 260.171875 213.46875 263.230469 207.5 Z M 111.734375 207.804688 C 114.78125 213.773438 117.980469 219.730469 121.484375 225.699219 C 124.988281 231.640625 128.566406 237.460938 132.222656 243.109375 C 121.636719 241.558594 111.429688 239.605469 101.667969 237.230469 C 104.410156 227.636719 107.851562 217.703125 111.71875 207.789062 Z M 277.671875 253.300781 C 279.378906 260.808594 280.71875 268.046875 281.539062 274.976562 C 285.042969 303.429688 280.71875 325.546875 270.664062 331.457031 C 268.425781 332.828125 265.515625 333.40625 262.089844 333.40625 C 246.675781 333.40625 223.796875 321.113281 199.484375 298.675781 C 209.933594 287.710938 220.355469 275.28125 230.253906 261.511719 C 247.117188 259.714844 263.0625 256.941406 277.671875 253.285156 Z M 97.476562 253.453125 C 112.101562 257.015625 128.035156 259.773438 144.804688 261.554688 C 154.855469 275.339844 165.289062 287.863281 175.800781 298.8125 C 151.503906 321.402344 128.703125 333.769531 113.199219 333.769531 C 109.847656 333.695312 107.011719 333.007812 104.773438 331.761719 C 94.628906 325.972656 90.226562 303.824219 93.65625 275.355469 C 94.476562 268.351562 95.816406 260.976562 97.460938 253.453125 Z M 166.9375 263.203125 C 173.636719 263.507812 180.492188 263.71875 187.421875 263.71875 C 194.429688 263.71875 201.359375 263.566406 208.136719 263.203125 C 201.4375 271.914062 194.503906 279.878906 187.652344 287.039062 C 180.71875 279.878906 173.789062 271.914062 166.9375 263.203125 Z M 166.9375 263.203125 " fill-opacity="1" fill-rule="nonzero"/></g></svg>