<svg xmlns="http://www.w3.org/2000/svg" xmlns:xlink="http://www.w3.org/1999/xlink" width="500" zoomAndPan="magnify" viewBox="0 0 375 374.999991" height="500" preserveAspectRatio="xMidYMid meet" version="1.0"><defs><clipPath id="18796417d4"><path d="M 6.398438 25 L 368.648438 25 L 368.648438 350 L 6.398438 350 Z M 6.398438 25 " clip-rule="nonzero"/></clipPath></defs><g clip-path="url(#18796417d4)"><path fill="#ffffff" d="M 110.976562 212.960938 C 113.453125 211.546875 116.636719 212.429688 118.050781 214.964844 L 118.996094 216.558594 C 126.246094 229.410156 133.792969 241.613281 141.632812 253.167969 C 150.886719 266.785156 161.320312 280.578125 172.933594 294.546875 C 173.152344 294.808594 173.347656 295.085938 173.511719 295.386719 C 173.675781 295.683594 173.808594 295.992188 173.910156 296.316406 C 174.015625 296.640625 174.085938 296.972656 174.125 297.308594 C 174.164062 297.648438 174.171875 297.984375 174.144531 298.324219 C 174.117188 298.664062 174.054688 298.996094 173.964844 299.324219 C 173.871094 299.652344 173.746094 299.964844 173.59375 300.269531 C 173.4375 300.574219 173.257812 300.859375 173.046875 301.125 C 172.835938 301.394531 172.601562 301.636719 172.34375 301.859375 L 171.226562 302.859375 C 132.847656 336.40625 107.972656 343.0625 96.476562 322.960938 C 85.21875 303.273438 89.285156 267.550781 108.679688 215.675781 C 109.113281 214.488281 109.882812 213.585938 110.976562 212.960938 Z M 274.269531 252.398438 C 277.042969 251.929688 279.695312 253.699219 280.222656 256.46875 L 280.519531 258 C 290.011719 307.578125 283.347656 332.394531 260.535156 332.394531 C 238.191406 332.394531 209.839844 311.230469 175.292969 268.964844 C 174.488281 267.988281 174.117188 266.867188 174.171875 265.605469 C 174.171875 262.773438 176.53125 260.476562 179.359375 260.476562 L 181.1875 260.476562 C 195.335938 260.585938 209.464844 260.097656 223.574219 259.003906 C 239.726562 257.703125 256.644531 255.523438 274.269531 252.398438 Z M 287.414062 147.113281 C 287.535156 146.792969 287.683594 146.484375 287.863281 146.191406 C 288.042969 145.894531 288.25 145.621094 288.480469 145.367188 C 288.714844 145.113281 288.96875 144.886719 289.246094 144.679688 C 289.523438 144.476562 289.816406 144.300781 290.128906 144.152344 C 290.4375 144.007812 290.761719 143.890625 291.09375 143.804688 C 291.429688 143.71875 291.765625 143.667969 292.109375 143.648438 C 292.453125 143.628906 292.796875 143.644531 293.136719 143.691406 C 293.476562 143.738281 293.8125 143.816406 294.136719 143.929688 L 295.667969 144.460938 C 344.894531 161.203125 363.640625 179.652344 351.789062 199.757812 C 340.234375 219.445312 306.632812 233.773438 250.925781 242.734375 C 249.6875 242.910156 248.390625 242.671875 247.328125 242.023438 C 244.792969 240.550781 243.910156 237.367188 245.441406 234.832031 L 246.386719 233.242188 C 253.992188 220.507812 260.828125 207.832031 267.019531 195.160156 C 274.210938 180.242188 281.050781 164.210938 287.417969 147.113281 Z M 124.066406 132.257812 C 125.304688 132.082031 126.601562 132.320312 127.664062 132.96875 C 130.199219 134.441406 131.082031 137.625 129.550781 140.160156 L 128.605469 141.75 C 121.195312 154.152344 114.316406 166.847656 107.972656 179.832031 C 100.78125 194.746094 93.941406 210.78125 87.574219 227.875 C 87.457031 228.199219 87.308594 228.507812 87.128906 228.800781 C 86.949219 229.09375 86.742188 229.367188 86.507812 229.621094 C 86.277344 229.875 86.023438 230.105469 85.746094 230.308594 C 85.46875 230.511719 85.175781 230.6875 84.863281 230.835938 C 84.554688 230.984375 84.230469 231.101562 83.898438 231.183594 C 83.5625 231.269531 83.226562 231.320312 82.882812 231.339844 C 82.539062 231.359375 82.195312 231.347656 81.855469 231.300781 C 81.515625 231.253906 81.179688 231.171875 80.855469 231.0625 L 79.324219 230.53125 C 30.097656 213.789062 11.351562 195.335938 23.203125 175.234375 C 34.757812 155.542969 68.359375 141.21875 124.066406 132.257812 Z M 203.765625 72.128906 C 242.144531 38.585938 267.019531 31.925781 278.515625 52.027344 C 289.773438 71.714844 285.707031 107.441406 266.3125 159.316406 C 265.878906 160.5 265.109375 161.40625 264.015625 162.027344 C 261.539062 163.445312 258.355469 162.558594 256.941406 160.023438 L 255.996094 158.433594 C 248.746094 145.582031 241.199219 133.378906 233.359375 121.824219 C 224.105469 108.207031 213.671875 94.414062 202.058594 80.441406 C 201.839844 80.183594 201.648438 79.902344 201.480469 79.605469 C 201.316406 79.308594 201.183594 78.996094 201.082031 78.671875 C 200.976562 78.347656 200.90625 78.019531 200.867188 77.679688 C 200.828125 77.34375 200.820312 77.003906 200.847656 76.664062 C 200.875 76.328125 200.9375 75.992188 201.03125 75.667969 C 201.121094 75.339844 201.246094 75.023438 201.398438 74.722656 C 201.554688 74.417969 201.734375 74.132812 201.945312 73.867188 C 202.15625 73.597656 202.390625 73.355469 202.648438 73.132812 Z M 116.34375 40.710938 C 138.6875 40.710938 167.097656 61.871094 201.585938 104.136719 C 202.367188 105.101562 202.761719 106.199219 202.765625 107.441406 C 202.707031 110.328125 200.40625 112.628906 197.519531 112.628906 L 195.75 112.570312 C 181.601562 112.503906 167.472656 113.015625 153.363281 114.101562 C 137.152344 115.398438 120.234375 117.582031 102.609375 120.703125 C 102.277344 120.761719 101.945312 120.785156 101.609375 120.777344 C 101.273438 120.769531 100.941406 120.726562 100.617188 120.65625 C 100.289062 120.582031 99.972656 120.480469 99.664062 120.34375 C 99.355469 120.210938 99.066406 120.046875 98.789062 119.855469 C 98.515625 119.664062 98.257812 119.449219 98.027344 119.207031 C 97.792969 118.96875 97.582031 118.707031 97.402344 118.425781 C 97.21875 118.144531 97.0625 117.851562 96.9375 117.539062 C 96.8125 117.226562 96.71875 116.90625 96.65625 116.578125 L 96.359375 115.105469 C 86.867188 65.527344 93.527344 40.707031 116.34375 40.707031 Z M 159.671875 128.425781 L 215.320312 128.425781 C 216.160156 128.425781 216.988281 128.535156 217.800781 128.753906 C 218.613281 128.96875 219.382812 129.285156 220.113281 129.707031 C 220.84375 130.125 221.503906 130.628906 222.101562 131.222656 C 222.699219 131.816406 223.210938 132.476562 223.632812 133.203125 L 251.515625 181.777344 C 251.921875 182.503906 252.230469 183.265625 252.441406 184.070312 C 252.648438 184.875 252.753906 185.691406 252.753906 186.523438 C 252.753906 187.355469 252.648438 188.171875 252.441406 188.976562 C 252.230469 189.777344 251.921875 190.542969 251.515625 191.269531 L 223.632812 239.902344 C 223.210938 240.628906 222.699219 241.289062 222.101562 241.882812 C 221.503906 242.472656 220.84375 242.980469 220.113281 243.398438 C 219.386719 243.816406 218.613281 244.136719 217.800781 244.351562 C 216.988281 244.570312 216.164062 244.675781 215.320312 244.679688 L 159.671875 244.679688 C 156.253906 244.679688 153.070312 242.851562 151.417969 239.902344 L 123.476562 191.269531 C 123.070312 190.542969 122.761719 189.777344 122.554688 188.972656 C 122.34375 188.171875 122.238281 187.351562 122.238281 186.523438 C 122.238281 185.691406 122.34375 184.875 122.554688 184.070312 C 122.761719 183.265625 123.070312 182.5 123.476562 181.777344 L 151.417969 133.203125 C 153.070312 130.253906 156.253906 128.425781 159.671875 128.425781 Z M 208.425781 140.394531 C 209.265625 140.394531 210.089844 140.503906 210.902344 140.71875 C 211.714844 140.9375 212.488281 141.253906 213.214844 141.671875 C 213.945312 142.09375 214.609375 142.597656 215.207031 143.191406 C 215.800781 143.78125 216.3125 144.441406 216.734375 145.167969 L 237.722656 181.777344 C 238.128906 182.503906 238.4375 183.265625 238.644531 184.070312 C 238.855469 184.875 238.960938 185.691406 238.960938 186.523438 C 238.960938 187.355469 238.855469 188.171875 238.644531 188.976562 C 238.4375 189.777344 238.128906 190.542969 237.722656 191.269531 L 216.734375 227.9375 C 216.3125 228.660156 215.800781 229.320312 215.207031 229.914062 C 214.609375 230.507812 213.945312 231.011719 213.214844 231.429688 C 212.488281 231.851562 211.714844 232.167969 210.902344 232.382812 C 210.089844 232.601562 209.265625 232.710938 208.425781 232.710938 L 166.570312 232.710938 C 163.148438 232.710938 159.96875 230.882812 158.316406 227.9375 L 137.273438 191.269531 C 136.867188 190.542969 136.558594 189.777344 136.347656 188.972656 C 136.136719 188.171875 136.03125 187.351562 136.03125 186.523438 C 136.03125 185.691406 136.136719 184.875 136.347656 184.070312 C 136.558594 183.265625 136.867188 182.5 137.273438 181.777344 L 158.316406 145.167969 C 159.96875 142.222656 163.148438 140.394531 166.570312 140.394531 Z M 200.996094 153.480469 L 173.996094 153.480469 C 170.578125 153.480469 167.453125 155.25 165.742188 158.257812 L 152.1875 181.777344 C 151.78125 182.503906 151.472656 183.265625 151.261719 184.070312 C 151.054688 184.875 150.949219 185.691406 150.949219 186.523438 C 150.949219 187.355469 151.054688 188.171875 151.261719 188.976562 C 151.472656 189.777344 151.78125 190.542969 152.1875 191.269531 L 165.746094 214.847656 C 166.160156 215.574219 166.667969 216.230469 167.257812 216.824219 C 167.847656 217.417969 168.507812 217.921875 169.230469 218.34375 C 169.957031 218.761719 170.722656 219.078125 171.53125 219.296875 C 172.339844 219.515625 173.160156 219.621094 173.996094 219.625 L 200.996094 219.625 C 201.832031 219.621094 202.65625 219.515625 203.464844 219.296875 C 204.273438 219.078125 205.039062 218.761719 205.761719 218.34375 C 206.488281 217.921875 207.144531 217.417969 207.738281 216.824219 C 208.328125 216.234375 208.832031 215.574219 209.25 214.847656 L 222.808594 191.269531 C 223.214844 190.542969 223.519531 189.777344 223.730469 188.972656 C 223.941406 188.171875 224.046875 187.351562 224.046875 186.523438 C 224.046875 185.691406 223.941406 184.875 223.730469 184.070312 C 223.519531 183.265625 223.214844 182.5 222.808594 181.777344 L 209.25 158.257812 C 207.539062 155.25 204.414062 153.480469 200.996094 153.480469 Z M 193.804688 165.976562 C 197.222656 165.976562 200.40625 167.804688 202.058594 170.753906 L 208.425781 181.777344 C 210.132812 184.726562 210.132812 188.378906 208.425781 191.269531 L 202.058594 202.351562 C 200.40625 205.296875 197.222656 207.125 193.804688 207.125 L 181.1875 207.125 C 180.351562 207.125 179.53125 207.015625 178.722656 206.800781 C 177.914062 206.582031 177.148438 206.261719 176.421875 205.84375 C 175.699219 205.425781 175.042969 204.917969 174.449219 204.328125 C 173.859375 203.734375 173.355469 203.078125 172.9375 202.351562 L 166.566406 191.269531 C 164.859375 188.378906 164.859375 184.726562 166.566406 181.777344 L 172.9375 170.753906 C 173.355469 170.027344 173.859375 169.371094 174.449219 168.777344 C 175.042969 168.183594 175.699219 167.679688 176.421875 167.261719 C 177.148438 166.839844 177.914062 166.523438 178.722656 166.304688 C 179.53125 166.089844 180.351562 165.980469 181.1875 165.976562 Z M 187.496094 178.296875 C 186.773438 178.300781 186.0625 178.394531 185.363281 178.585938 C 184.667969 178.773438 184.003906 179.046875 183.378906 179.410156 C 182.753906 179.773438 182.183594 180.210938 181.671875 180.71875 C 181.164062 181.230469 180.726562 181.800781 180.363281 182.425781 C 178.890625 184.960938 178.890625 188.085938 180.363281 190.679688 C 180.726562 191.300781 181.164062 191.863281 181.675781 192.371094 C 182.191406 192.878906 182.757812 193.3125 183.386719 193.667969 C 184.011719 194.023438 184.671875 194.292969 185.371094 194.476562 C 186.066406 194.660156 186.777344 194.75 187.496094 194.746094 C 188.21875 194.75 188.925781 194.660156 189.625 194.476562 C 190.320312 194.292969 190.984375 194.023438 191.609375 193.667969 C 192.234375 193.3125 192.804688 192.878906 193.316406 192.371094 C 193.828125 191.863281 194.265625 191.300781 194.628906 190.679688 C 196.101562 188.085938 196.101562 184.960938 194.628906 182.425781 C 194.269531 181.800781 193.832031 181.230469 193.320312 180.71875 C 192.808594 180.210938 192.238281 179.773438 191.613281 179.410156 C 190.988281 179.046875 190.324219 178.773438 189.628906 178.585938 C 188.929688 178.394531 188.21875 178.300781 187.496094 178.296875 Z M 120.765625 186.550781 L 135.5625 186.550781 M 292.839844 123.355469 C 298.734375 94.765625 300.03125 72.894531 296.199219 56.980469 C 293.960938 47.488281 289.835938 39.824219 283.527344 34.226562 C 276.863281 28.328125 268.433594 25.441406 259.003906 25.441406 C 243.378906 25.441406 226.992188 32.574219 209.484375 46.074219 C 202.351562 51.554688 194.921875 58.21875 187.261719 65.941406 C 186.609375 65.171875 185.960938 64.40625 185.195312 63.757812 C 163.382812 44.363281 145.050781 32.339844 129.371094 27.679688 C 120.058594 24.910156 111.332031 24.671875 103.375 27.328125 C 94.945312 30.15625 88.222656 35.992188 83.507812 44.1875 C 75.726562 57.6875 73.660156 75.488281 76.550781 97.421875 C 77.730469 106.320312 79.792969 116.046875 82.621094 126.597656 C 81.519531 126.730469 80.4375 126.964844 79.378906 127.308594 C 51.792969 136.5 32.222656 146.285156 20.371094 157.546875 C 13.355469 164.207031 8.757812 171.695312 7.046875 179.890625 C 5.339844 188.613281 7.046875 197.339844 11.765625 205.53125 C 19.546875 219.03125 33.871094 229.644531 54.269531 238.074219 C 62.460938 241.433594 71.714844 244.5 82.089844 247.269531 C 81.605469 248.367188 81.25 249.507812 81.03125 250.6875 C 75.136719 279.21875 73.839844 301.152344 77.671875 317.007812 C 79.910156 326.5 84.097656 334.222656 90.34375 339.761719 C 97.007812 345.660156 105.4375 348.546875 114.867188 348.546875 C 130.492188 348.546875 146.878906 341.414062 164.386719 327.972656 C 171.578125 322.371094 179.066406 315.652344 186.847656 307.8125 C 187.6875 309.074219 188.667969 310.214844 189.792969 311.230469 C 211.605469 330.625 229.941406 342.652344 245.621094 347.308594 C 254.933594 350.078125 263.660156 350.316406 271.617188 347.664062 C 280.046875 344.832031 286.769531 338.996094 291.484375 330.800781 C 299.265625 317.304688 301.328125 299.5 298.441406 277.570312 C 297.203125 268.316406 295.078125 258.234375 292.015625 247.210938 C 293.238281 247.09375 294.4375 246.859375 295.609375 246.503906 C 323.199219 237.308594 342.769531 227.523438 354.621094 216.261719 C 361.636719 209.601562 366.234375 202.113281 367.941406 193.917969 C 369.652344 185.195312 367.941406 176.46875 363.226562 168.277344 C 355.445312 154.777344 341.121094 144.164062 320.722656 135.734375 C 312.292969 132.257812 302.683594 129.074219 291.957031 126.304688 C 292.367188 125.355469 292.660156 124.375 292.839844 123.355469 Z M 292.839844 123.355469 " fill-opacity="1" fill-rule="nonzero"/></g></svg>