<svg xmlns="http://www.w3.org/2000/svg" xmlns:xlink="http://www.w3.org/1999/xlink" width="500" zoomAndPan="magnify" viewBox="0 0 375 374.999991" height="500" preserveAspectRatio="xMidYMid meet" version="1.0"><defs><clipPath id="ce866fb44c"><path d="M 5.980469 15 L 368.980469 15 L 368.980469 360 L 5.980469 360 Z M 5.980469 15 " clip-rule="nonzero"/></clipPath></defs><g clip-path="url(#ce866fb44c)"><path fill="#ffffff" d="M 257.59375 255.625 C 270.753906 254.492188 280.933594 242.917969 280.28125 229.09375 C 279.570312 215.269531 268.242188 204.164062 254.429688 204.164062 L 253.507812 204.164062 C 252.660156 204.195312 251.820312 204.265625 250.980469 204.378906 C 250.140625 204.492188 249.308594 204.648438 248.484375 204.839844 C 247.660156 205.035156 246.847656 205.269531 246.046875 205.546875 C 245.246094 205.820312 244.460938 206.132812 243.6875 206.484375 C 242.917969 206.835938 242.167969 207.226562 241.433594 207.652344 C 240.703125 208.074219 239.992188 208.535156 239.304688 209.03125 C 238.617188 209.527344 237.957031 210.054688 237.324219 210.613281 C 236.6875 211.175781 236.082031 211.765625 235.503906 212.382812 C 234.925781 213.003906 234.382812 213.648438 233.867188 214.324219 C 233.355469 214.996094 232.875 215.691406 232.429688 216.414062 C 231.984375 217.132812 231.574219 217.875 231.203125 218.636719 C 230.828125 219.394531 230.496094 220.171875 230.199219 220.964844 C 229.902344 221.757812 229.644531 222.566406 229.429688 223.382812 C 229.210938 224.203125 229.035156 225.03125 228.898438 225.867188 C 228.761719 226.703125 228.667969 227.542969 228.613281 228.386719 C 228.5625 229.230469 228.550781 230.078125 228.578125 230.925781 C 229.035156 238.167969 232 244.070312 236.050781 248.363281 C 220.199219 279.191406 196.40625 301.851562 160.34375 320.898438 C 136.097656 333.574219 110.488281 338.351562 85.558594 334.964844 C 64.714844 332.015625 48.410156 322.710938 38.425781 307.75 C 23.480469 285.078125 22.117188 260.617188 34.566406 236.144531 C 43.644531 218.445312 57.242188 205.542969 66.316406 199.1875 C 63.574219 191.578125 61.457031 183.800781 59.964844 175.847656 C -7.152344 223.921875 -0.3125 289.628906 20.078125 320.683594 C 35.261719 343.34375 66.316406 357.835938 100.308594 357.835938 C 109.382812 357.835938 118.914062 357.167969 128.183594 354.902344 C 187.132812 343.570312 231.769531 308.21875 257.378906 256.09375 Z M 338.488281 198.960938 C 303.394531 157.695312 251.691406 135.039062 192.761719 135.039062 L 185.046875 135.039062 C 181.21875 126.65625 172.386719 121.4375 162.386719 121.4375 L 161.707031 121.4375 C 147.441406 121.4375 136.324219 133.691406 136.792969 147.957031 C 137.246094 161.539062 148.800781 172.882812 162.628906 172.882812 L 163.746094 172.882812 C 164.96875 172.835938 166.175781 172.703125 167.378906 172.484375 C 168.578125 172.261719 169.757812 171.957031 170.914062 171.566406 C 172.070312 171.179688 173.195312 170.710938 174.285156 170.160156 C 175.375 169.609375 176.417969 168.984375 177.417969 168.285156 C 178.417969 167.585938 179.363281 166.816406 180.253906 165.980469 C 181.144531 165.144531 181.96875 164.25 182.730469 163.296875 C 183.492188 162.34375 184.183594 161.34375 184.800781 160.289062 C 185.421875 159.238281 185.960938 158.144531 186.421875 157.015625 L 194.816406 157.015625 C 229.746094 157.015625 262.8125 167.210938 292.957031 187.148438 C 316.054688 202.351562 332.621094 222.285156 341.921875 246.097656 C 350.058594 265.578125 349.621094 284.625 341.242188 300.507812 C 328.308594 325.417969 306.542969 338.578125 277.769531 338.578125 C 259.632812 338.578125 241.964844 332.90625 232.890625 328.839844 C 227.445312 333.34375 218.371094 340.832031 211.804688 345.371094 C 231.742188 354.417969 251.917969 359.636719 271.402344 359.636719 C 315.601562 359.636719 348.457031 334.722656 360.9375 310.6875 C 374.519531 283.488281 373.402344 237.714844 338.699219 198.507812 Z M 104.148438 263.765625 C 104.601562 277.363281 116.144531 288.691406 129.984375 288.691406 L 130.894531 288.691406 C 131.742188 288.671875 132.589844 288.613281 133.433594 288.507812 C 134.273438 288.40625 135.113281 288.257812 135.941406 288.070312 C 136.769531 287.886719 137.585938 287.65625 138.390625 287.386719 C 139.199219 287.121094 139.988281 286.8125 140.765625 286.464844 C 141.539062 286.117188 142.296875 285.730469 143.03125 285.308594 C 143.769531 284.882812 144.484375 284.425781 145.175781 283.929688 C 145.863281 283.4375 146.53125 282.910156 147.167969 282.347656 C 147.804688 281.789062 148.414062 281.195312 148.996094 280.574219 C 149.574219 279.953125 150.121094 279.304688 150.636719 278.628906 C 151.148438 277.953125 151.628906 277.253906 152.074219 276.527344 C 152.519531 275.804688 152.925781 275.058594 153.296875 274.296875 C 153.667969 273.53125 154 272.75 154.289062 271.953125 C 154.582031 271.15625 154.835938 270.34375 155.046875 269.519531 C 155.257812 268.699219 155.429688 267.867188 155.558594 267.027344 C 155.683594 266.1875 155.773438 265.34375 155.816406 264.496094 C 155.859375 263.644531 155.863281 262.796875 155.820312 261.949219 C 155.820312 248.335938 144.039062 237.035156 130.210938 237.035156 L 129.304688 237.035156 C 128.398438 237.035156 127.035156 237.035156 125.886719 237.472656 C 107.082031 205.738281 99.140625 171.71875 102.105469 135.039062 C 103.921875 107.386719 113 83.351562 129.289062 63.414062 C 142.902344 46.410156 168.511719 38 185.96875 37.578125 C 234.917969 36.65625 255.324219 97.644531 256.894531 121.894531 L 279.554688 128.699219 C 274.335938 54.339844 228.125 15.355469 183.925781 15.355469 C 142.417969 15.355469 104.148438 45.503906 88.71875 89.703125 C 67.648438 148.621094 81.476562 205.300781 107.324219 250.632812 C 105.058594 253.582031 103.695312 258.789062 104.148438 263.765625 Z M 104.148438 263.765625 " fill-opacity="1" fill-rule="nonzero"/></g></svg>