<svg xmlns="http://www.w3.org/2000/svg" xmlns:xlink="http://www.w3.org/1999/xlink" width="500" zoomAndPan="magnify" viewBox="0 0 375 374.999991" height="500" preserveAspectRatio="xMidYMid meet" version="1.0"><defs><clipPath id="6a4b506776"><path d="M 6.960938 7 L 369.210938 7 L 369.210938 368 L 6.960938 368 Z M 6.960938 7 " clip-rule="nonzero"/></clipPath></defs><g clip-path="url(#6a4b506776)"><path fill="#ffffff" d="M 311.140625 7.652344 C 356.914062 15.574219 369.890625 46.859375 368.925781 79.636719 L 369.152344 79.171875 L 348.554688 349.125 L 80.757812 367.472656 L 81 367.472656 C 58.769531 366.539062 9.226562 364.5 6.960938 295.230469 L 31.785156 249.957031 L 74.328125 349.351562 L 81.917969 367.035156 L 124.25 229.042969 L 123.796875 229.148438 L 124.039062 228.695312 L 263.710938 273.304688 L 242.640625 191.34375 L 227.703125 132.488281 L 360.808594 123.902344 L 351.527344 116.203125 L 255.96875 38.304688 L 311.1875 7.5 Z M 6.960938 294.476562 Z M 84.378906 82.957031 C 138.121094 29.640625 207.480469 -1.871094 234.117188 25.007812 C 260.707031 51.824219 232.53125 117.140625 178.683594 170.425781 C 124.914062 223.730469 56.398438 256.960938 29.824219 230.144531 C 3.171875 203.328125 30.503906 136.320312 84.335938 83.003906 Z M 84.378906 82.957031 " fill-opacity="1" fill-rule="nonzero"/></g></svg>