<svg xmlns="http://www.w3.org/2000/svg" xmlns:xlink="http://www.w3.org/1999/xlink" width="500" zoomAndPan="magnify" viewBox="0 0 375 374.999991" height="500" preserveAspectRatio="xMidYMid meet" version="1.0"><defs><clipPath id="52dad5c4cf"><path d="M 5.839844 5.839844 L 368.839844 5.839844 L 368.839844 368.839844 L 5.839844 368.839844 Z M 5.839844 5.839844 " clip-rule="nonzero"/></clipPath></defs><g clip-path="url(#52dad5c4cf)"><path fill="#ffffff" d="M 119.320312 5.839844 C 114.980469 5.839844 110.660156 5.839844 106.320312 5.867188 C 102.679688 5.898438 99.019531 5.914062 95.378906 6.019531 C 93.382812 6.066406 91.402344 6.15625 89.40625 6.246094 C 83.417969 6.480469 77.46875 7.097656 71.558594 8.105469 C 63.648438 9.503906 56.101562 11.996094 48.914062 15.585938 C 45.351562 17.402344 41.949219 19.480469 38.710938 21.832031 C 35.476562 24.179688 32.441406 26.769531 29.613281 29.59375 C 26.78125 32.421875 24.191406 35.453125 21.839844 38.6875 C 19.488281 41.921875 17.402344 45.320312 15.585938 48.886719 C 11.882812 56.140625 9.542969 63.578125 8.105469 71.558594 C 6.699219 79.417969 6.261719 87.425781 6.050781 95.378906 C 5.953125 99.023438 5.890625 102.671875 5.867188 106.320312 C 5.839844 110.660156 5.839844 114.980469 5.839844 119.320312 L 5.839844 255.109375 C 5.839844 259.449219 5.839844 263.800781 5.867188 268.140625 C 5.898438 271.765625 5.945312 275.410156 6.050781 279.050781 C 6.261719 287.003906 6.699219 295.027344 8.105469 302.875 C 9.542969 310.855469 11.882812 318.289062 15.585938 325.546875 C 17.402344 329.109375 19.484375 332.511719 21.835938 335.746094 C 24.1875 338.980469 26.777344 342.015625 29.605469 344.839844 C 32.4375 347.667969 35.46875 350.253906 38.707031 352.605469 C 41.945312 354.953125 45.347656 357.03125 48.914062 358.84375 C 56.171875 362.53125 63.578125 364.890625 71.558594 366.324219 C 79.417969 367.730469 87.425781 368.199219 95.378906 368.410156 C 99.019531 368.515625 102.679688 368.546875 106.320312 368.5625 C 110.660156 368.59375 114.980469 368.59375 119.320312 368.59375 L 255.109375 368.59375 C 259.449219 368.59375 263.769531 368.59375 268.109375 368.5625 C 271.753906 368.546875 275.410156 368.515625 279.050781 368.410156 C 287.054688 368.316406 295.003906 367.621094 302.902344 366.324219 C 310.824219 364.960938 318.371094 362.46875 325.546875 358.84375 C 329.109375 357.03125 332.507812 354.949219 335.742188 352.597656 C 338.976562 350.25 342.007812 347.660156 344.835938 344.835938 C 347.660156 342.007812 350.25 338.976562 352.597656 335.742188 C 354.949219 332.507812 357.03125 329.109375 358.84375 325.546875 C 362.546875 318.289062 364.890625 310.855469 366.324219 302.875 C 367.730469 295.011719 368.199219 287.003906 368.410156 279.050781 C 368.515625 275.410156 368.546875 271.78125 368.5625 268.140625 C 368.59375 263.800781 368.59375 259.449219 368.59375 255.109375 L 368.59375 119.320312 C 368.59375 114.980469 368.59375 110.660156 368.5625 106.320312 C 368.550781 102.671875 368.5 99.023438 368.410156 95.378906 C 368.316406 87.386719 367.621094 79.445312 366.324219 71.558594 C 364.964844 63.625 362.46875 56.070312 358.84375 48.886719 C 357.027344 45.324219 354.945312 41.925781 352.597656 38.691406 C 350.246094 35.457031 347.660156 32.425781 344.832031 29.597656 C 342.003906 26.769531 338.976562 24.183594 335.742188 21.832031 C 332.507812 19.484375 329.109375 17.402344 325.546875 15.585938 C 318.371094 11.960938 310.824219 9.46875 302.902344 8.105469 C 295.003906 6.808594 287.054688 6.113281 279.050781 6.019531 C 275.414062 5.933594 271.777344 5.882812 268.140625 5.867188 C 263.800781 5.839844 259.449219 5.839844 255.109375 5.839844 Z M 210.539062 57.378906 C 272.71875 94.714844 309.464844 165.632812 294.410156 225.621094 C 294.046875 227.027344 293.652344 228.359375 293.261719 229.734375 L 293.289062 229.75 C 324.457031 268.109375 315.960938 309.222656 311.972656 301.46875 C 295.769531 269.9375 265.628906 277.769531 250.183594 285.703125 C 248.785156 286.53125 247.371094 287.328125 245.9375 288.089844 L 245.632812 288.273438 L 245.605469 288.300781 C 213.636719 305.277344 170.679688 306.515625 127.527344 287.96875 C 118.792969 284.183594 110.390625 279.769531 102.320312 274.722656 C 94.25 269.671875 86.601562 264.050781 79.375 257.851562 C 72.152344 251.652344 65.429688 244.949219 59.210938 237.742188 C 52.992188 230.535156 47.351562 222.902344 42.28125 214.84375 C 52.089844 222.101562 62.683594 228.480469 73.976562 233.769531 C 119.605469 255.140625 165.433594 253.585938 197.871094 233.738281 C 151.710938 198.25 113.167969 151.996094 83.617188 114.527344 C 77.992188 107.964844 72.929688 100.992188 68.429688 93.609375 C 103.796875 125.984375 159.691406 166.613281 179.75 177.890625 C 137.183594 132.921875 99.671875 77.527344 101.425781 79.296875 C 168.472656 146.859375 230.324219 185.039062 230.324219 185.039062 C 232.648438 186.324219 234.402344 187.367188 235.765625 188.257812 C 237.046875 185.007812 238.183594 181.652344 239.148438 178.160156 C 249.851562 139.042969 237.789062 94.304688 210.539062 57.363281 Z M 210.539062 57.378906 " fill-opacity="1" fill-rule="nonzero"/></g></svg>