<svg xmlns="http://www.w3.org/2000/svg" xmlns:xlink="http://www.w3.org/1999/xlink" width="500" zoomAndPan="magnify" viewBox="0 0 375 374.999991" height="500" preserveAspectRatio="xMidYMid meet" version="1.0"><defs><clipPath id="1a51f70eae"><path d="M 3.3125 76 L 371.5625 76 L 371.5625 299 L 3.3125 299 Z M 3.3125 76 " clip-rule="nonzero"/></clipPath></defs><g clip-path="url(#1a51f70eae)"><path fill="#ffffff" d="M 187.511719 76.984375 C 138.394531 76.984375 107.699219 101.542969 95.417969 150.660156 C 113.835938 126.101562 135.324219 116.890625 159.882812 123.03125 C 173.898438 126.53125 183.902344 136.691406 195 147.957031 C 213.066406 166.285156 233.957031 187.496094 279.601562 187.496094 C 328.71875 187.496094 359.414062 162.9375 371.695312 113.824219 C 353.277344 138.378906 331.789062 147.589844 307.230469 141.449219 C 293.21875 137.949219 283.210938 127.789062 272.113281 116.523438 C 254.0625 98.199219 233.171875 76.984375 187.511719 76.984375 Z M 95.417969 187.496094 C 46.304688 187.496094 15.605469 212.054688 3.328125 261.167969 C 21.746094 236.609375 43.234375 227.402344 67.792969 233.542969 C 81.804688 237.042969 91.8125 247.203125 102.910156 258.46875 C 120.976562 276.792969 141.863281 298.003906 187.511719 298.003906 C 236.625 298.003906 267.324219 273.449219 279.601562 224.332031 C 261.183594 248.890625 239.695312 258.097656 215.136719 251.960938 C 201.125 248.460938 191.117188 238.300781 180.019531 227.035156 C 161.972656 208.707031 141.082031 187.496094 95.417969 187.496094 Z M 95.417969 187.496094 " fill-opacity="1" fill-rule="nonzero"/></g></svg>