<svg xmlns="http://www.w3.org/2000/svg" xmlns:xlink="http://www.w3.org/1999/xlink" width="500" zoomAndPan="magnify" viewBox="0 0 375 374.999991" height="500" preserveAspectRatio="xMidYMid meet" version="1.0"><defs><clipPath id="cdce1807a9"><path d="M 8 7.242188 L 367 7.242188 L 367 367.992188 L 8 367.992188 Z M 8 7.242188 " clip-rule="nonzero"/></clipPath></defs><g clip-path="url(#cdce1807a9)"><path fill="#ffffff" d="M 12.949219 7.242188 C 12.648438 7.246094 12.347656 7.285156 12.054688 7.355469 C 11.761719 7.429688 11.480469 7.53125 11.207031 7.667969 C 10.9375 7.804688 10.6875 7.96875 10.453125 8.160156 C 10.21875 8.351562 10.011719 8.570312 9.824219 8.808594 C 9.640625 9.046875 9.484375 9.304688 9.359375 9.582031 C 9.230469 9.855469 9.136719 10.140625 9.074219 10.4375 C 9.011719 10.734375 8.984375 11.03125 8.988281 11.335938 C 8.992188 11.636719 9.03125 11.933594 9.105469 12.230469 L 52.578125 188.21875 C 52.609375 188.425781 52.660156 188.625 52.726562 188.820312 L 96.140625 364.691406 C 96.3125 365.394531 96.648438 366.003906 97.148438 366.523438 C 97.648438 367.042969 98.246094 367.402344 98.9375 367.597656 C 99.632812 367.796875 100.328125 367.808594 101.027344 367.632812 C 101.726562 367.457031 102.335938 367.117188 102.855469 366.617188 L 364.78125 114.644531 C 364.910156 114.523438 365.027344 114.394531 365.136719 114.253906 C 365.246094 114.117188 365.34375 113.972656 365.433594 113.824219 C 365.527344 113.671875 365.605469 113.515625 365.675781 113.355469 C 365.746094 113.195312 365.804688 113.03125 365.851562 112.859375 C 365.902344 112.691406 365.9375 112.519531 365.964844 112.347656 C 365.992188 112.171875 366.003906 112 366.007812 111.824219 C 366.011719 111.648438 366.003906 111.472656 365.984375 111.296875 C 365.964844 111.125 365.933594 110.953125 365.890625 110.78125 C 365.847656 110.609375 365.792969 110.445312 365.730469 110.28125 C 365.664062 110.117188 365.589844 109.957031 365.503906 109.804688 C 365.421875 109.652344 365.324219 109.503906 365.222656 109.363281 C 365.117188 109.21875 365.003906 109.085938 364.882812 108.960938 C 364.761719 108.832031 364.632812 108.714844 364.492188 108.605469 C 364.355469 108.496094 364.210938 108.398438 364.0625 108.304688 C 363.910156 108.214844 363.757812 108.132812 363.59375 108.0625 C 363.433594 107.992188 363.269531 107.933594 363.101562 107.886719 L 276.214844 82.84375 C 275.644531 82.519531 275.027344 82.34375 274.367188 82.320312 L 103.078125 33.003906 C 102.414062 32.59375 101.695312 32.394531 100.914062 32.402344 L 14.089844 7.390625 C 13.71875 7.285156 13.335938 7.238281 12.949219 7.242188 Z M 18.566406 17.066406 L 93.015625 38.488281 L 37.132812 92.324219 Z M 106.535156 42.390625 L 179.597656 63.421875 L 124.769531 116.222656 Z M 98.691406 44.195312 L 116.972656 118.191406 L 43.714844 97.160156 Z M 193.027344 67.296875 L 266.300781 88.386719 L 211.292969 141.414062 Z M 185.214844 69.25 L 203.363281 142.855469 L 130.464844 121.945312 Z M 279.851562 92.292969 L 354.164062 113.683594 L 298.359375 167.371094 Z M 271.980469 94.097656 L 290.230469 168.089844 L 216.988281 147.089844 Z M 40.167969 104.550781 L 114.734375 125.941406 L 58.765625 179.808594 Z M 128.121094 129.667969 L 201.378906 150.695312 L 146.402344 203.675781 Z M 120.339844 131.726562 L 138.90625 207.085938 L 64.351562 185.578125 Z M 214.582031 154.78125 L 289.164062 176.1875 L 233.136719 230.054688 Z M 206.773438 156.691406 L 225.324219 231.976562 L 150.847656 210.496094 Z M 62.113281 193.3125 L 135.316406 214.433594 L 80.394531 267.355469 Z M 150.050781 218.652344 L 223.101562 239.730469 L 168.300781 292.453125 Z M 141.9375 219.253906 L 160.175781 293.265625 L 86.945312 272.234375 Z M 83.414062 279.640625 L 159.078125 301.300781 L 102.269531 355.949219 Z M 83.414062 279.640625 " fill-opacity="1" fill-rule="nonzero"/></g></svg>