<svg xmlns="http://www.w3.org/2000/svg" xmlns:xlink="http://www.w3.org/1999/xlink" width="500" zoomAndPan="magnify" viewBox="0 0 375 374.999991" height="500" preserveAspectRatio="xMidYMid meet" version="1.0"><defs><clipPath id="f79ec697b2"><path d="M 8.222656 8.222656 L 366.722656 8.222656 L 366.722656 366.722656 L 8.222656 366.722656 Z M 8.222656 8.222656 " clip-rule="nonzero"/></clipPath></defs><g clip-path="url(#f79ec697b2)"><path fill="#ffffff" d="M 187.496094 8.222656 C 88.613281 8.105469 8.34375 88.179688 8.222656 187.0625 L 8.222656 187.496094 C 8.222656 286.695312 88.285156 366.769531 187.496094 366.769531 C 286.695312 366.769531 366.769531 286.695312 366.769531 187.496094 C 366.769531 88.285156 286.695312 8.222656 187.496094 8.222656 Z M 187.496094 318.980469 C 115.101562 319.203125 56.238281 260.65625 56.015625 188.257812 L 56.015625 187.496094 C 55.804688 115.101562 114.339844 56.238281 186.734375 56.015625 L 187.496094 56.015625 C 259.910156 55.804688 318.753906 114.339844 318.980469 186.734375 L 318.980469 187.496094 C 319.203125 259.910156 260.65625 318.753906 188.257812 318.980469 Z M 268.769531 143.292969 C 268.769531 163.59375 252.035156 180.328125 231.703125 180.328125 C 211.296875 180.222656 194.773438 163.699219 194.667969 143.292969 C 194.667969 122.960938 211.402344 106.226562 231.703125 106.226562 C 252.035156 106.226562 268.769531 122.960938 268.769531 143.292969 Z M 268.769531 231.71875 C 268.769531 252.035156 252.035156 268.769531 231.703125 268.769531 C 211.28125 268.648438 194.757812 252.125 194.667969 231.71875 C 194.667969 211.414062 211.402344 194.683594 231.703125 194.683594 C 252.035156 194.667969 268.769531 211.414062 268.769531 231.71875 Z M 180.339844 231.71875 C 180.339844 252.035156 163.609375 268.769531 143.308594 268.769531 C 122.871094 268.664062 106.332031 252.140625 106.242188 231.71875 C 106.242188 211.414062 122.972656 194.683594 143.308594 194.683594 C 163.59375 194.667969 180.339844 211.414062 180.339844 231.71875 Z M 180.339844 143.292969 C 180.339844 163.59375 163.609375 180.328125 143.308594 180.328125 C 122.882812 180.222656 106.332031 163.714844 106.242188 143.292969 C 106.242188 122.960938 122.972656 106.226562 143.308594 106.226562 C 163.59375 106.226562 180.339844 122.960938 180.339844 143.292969 Z M 180.339844 143.292969 " fill-opacity="1" fill-rule="nonzero"/></g></svg>