<svg xmlns="http://www.w3.org/2000/svg" xmlns:xlink="http://www.w3.org/1999/xlink" width="500" zoomAndPan="magnify" viewBox="0 0 375 374.999991" height="500" preserveAspectRatio="xMidYMid meet" version="1.0"><defs><clipPath id="b6043fd61f"><path d="M 7.242188 7.242188 L 367.992188 7.242188 L 367.992188 367.992188 L 7.242188 367.992188 Z M 7.242188 7.242188 " clip-rule="nonzero"/></clipPath></defs><g clip-path="url(#b6043fd61f)"><path fill="#ffffff" d="M 24.140625 7.242188 C 14.78125 7.242188 7.242188 14.78125 7.242188 24.140625 L 7.242188 350.859375 C 7.242188 360.214844 14.78125 367.757812 24.140625 367.757812 L 350.859375 367.757812 C 360.214844 367.757812 367.757812 360.214844 367.757812 350.859375 L 367.757812 24.140625 C 367.757812 14.78125 360.214844 7.242188 350.859375 7.242188 Z M 284.957031 153.703125 C 294.152344 153.703125 302.292969 154.257812 309.398438 155.367188 C 316.121094 156.375 322.660156 158.078125 329.015625 160.476562 L 329.015625 197.398438 C 325.96875 195.289062 322.746094 193.480469 319.359375 191.976562 C 315.867188 190.40625 312.277344 189.101562 308.585938 188.070312 C 301.582031 186.117188 294.441406 185.117188 287.167969 185.066406 C 282.660156 185.066406 278.558594 185.488281 274.863281 186.359375 C 271.550781 187.066406 268.429688 188.277344 265.507812 189.992188 C 262.953125 191.554688 261 193.433594 259.601562 195.609375 C 258.167969 197.855469 257.464844 200.308594 257.5 202.972656 C 257.5 205.914062 258.296875 208.574219 259.84375 210.917969 C 261.40625 213.261719 263.628906 215.484375 266.496094 217.585938 C 269.367188 219.691406 272.851562 221.734375 276.953125 223.746094 C 281.054688 225.773438 285.695312 227.863281 290.863281 229.996094 C 297.921875 232.953125 304.261719 236.109375 309.878906 239.429688 C 315.496094 242.765625 320.320312 246.535156 324.34375 250.738281 C 328.371094 254.929688 331.433594 259.722656 333.570312 265.117188 C 335.703125 270.507812 336.78125 276.773438 336.78125 283.9375 C 336.78125 293.808594 334.90625 302.113281 331.179688 308.8125 C 329.359375 312.117188 327.164062 315.148438 324.589844 317.90625 C 322.019531 320.664062 319.148438 323.066406 315.976562 325.113281 C 309.085938 329.480469 301.640625 332.464844 293.640625 334.0625 C 285.140625 335.867188 276.171875 336.769531 266.753906 336.769531 C 257.464844 336.808594 248.25 335.988281 239.113281 334.304688 C 231.183594 332.933594 223.613281 330.464844 216.402344 326.898438 L 216.402344 287.394531 C 219.769531 290.257812 223.359375 292.808594 227.175781 295.046875 C 230.992188 297.28125 234.972656 299.167969 239.121094 300.703125 C 243.265625 302.242188 247.515625 303.40625 251.867188 304.199219 C 256.214844 304.988281 260.601562 305.398438 265.027344 305.417969 C 270.027344 305.417969 274.398438 304.96875 278.125 304.066406 C 281.863281 303.164062 284.972656 301.902344 287.484375 300.3125 C 289.976562 298.6875 291.839844 296.796875 293.085938 294.601562 C 293.773438 293.328125 294.273438 291.980469 294.582031 290.5625 C 294.886719 289.144531 294.992188 287.710938 294.894531 286.261719 C 294.796875 284.816406 294.5 283.410156 294 282.046875 C 293.503906 280.683594 292.828125 279.417969 291.972656 278.246094 C 289.726562 275.269531 287.035156 272.765625 283.90625 270.734375 C 280.050781 268.175781 276.007812 265.953125 271.785156 264.0625 C 266.785156 261.78125 261.742188 259.597656 256.660156 257.515625 C 242.867188 251.761719 232.59375 244.714844 225.820312 236.410156 C 219.058594 228.101562 215.664062 218.054688 215.664062 206.292969 C 215.664062 197.070312 217.511719 189.152344 221.207031 182.527344 C 224.902344 175.902344 229.921875 170.449219 236.289062 166.167969 C 243.082031 161.6875 250.441406 158.539062 258.371094 156.722656 C 267.113281 154.660156 275.976562 153.652344 284.960938 153.703125 Z M 57.9375 156.523438 L 201.589844 156.523438 L 201.589844 189.0625 L 150.035156 189.0625 L 150.035156 333.960938 L 109.222656 333.960938 L 109.222656 189.0625 L 57.9375 189.0625 Z M 57.9375 156.523438 " fill-opacity="1" fill-rule="nonzero"/></g></svg>