<svg xmlns="http://www.w3.org/2000/svg" xmlns:xlink="http://www.w3.org/1999/xlink" width="500" zoomAndPan="magnify" viewBox="0 0 375 374.999991" height="500" preserveAspectRatio="xMidYMid meet" version="1.0"><defs><clipPath id="71546d2fe2"><path d="M 6.820312 6.820312 L 368.320312 6.820312 L 368.320312 368.320312 L 6.820312 368.320312 Z M 6.820312 6.820312 " clip-rule="nonzero"/></clipPath></defs><g clip-path="url(#71546d2fe2)"><path fill="#ffffff" d="M 330.0625 109.578125 C 342.707031 132.71875 349.90625 159.265625 349.90625 187.496094 C 349.90625 247.402344 317.445312 299.753906 269.160156 327.894531 L 318.769531 184.453125 C 328.027344 161.265625 331.113281 142.734375 331.113281 126.277344 C 331.113281 120.179688 330.722656 114.53125 330.0625 109.5625 M 209.898438 111.144531 C 219.640625 110.691406 228.449219 109.5625 228.449219 109.5625 C 237.210938 108.433594 236.1875 95.5625 227.4375 96.027344 C 227.4375 96.027344 201.015625 98.0625 184.078125 98.0625 C 168.058594 98.0625 141.167969 95.800781 141.167969 95.800781 C 132.359375 95.351562 131.214844 108.675781 140.039062 109.128906 C 140.039062 109.128906 148.167969 110.046875 156.976562 110.480469 L 182.269531 179.816406 L 146.585938 286.414062 L 87.429688 110.707031 C 97.203125 110.257812 106.011719 109.203125 106.011719 109.203125 C 114.820312 108.074219 113.78125 95.199219 105.03125 95.710938 C 105.03125 95.710938 78.742188 97.789062 61.761719 97.789062 C 58.75 97.789062 55.167969 97.667969 51.371094 97.5625 C 80.761719 54.246094 130.808594 25.113281 187.496094 25.113281 C 229.789062 25.113281 268.269531 41.253906 297.195312 67.769531 C 296.5 67.722656 295.824219 67.632812 295.070312 67.632812 C 279.109375 67.632812 267.789062 81.53125 267.789062 96.449219 C 267.789062 109.851562 275.511719 121.1875 283.75 134.558594 C 289.9375 145.398438 297.148438 159.292969 297.148438 179.378906 C 297.148438 193.15625 291.820312 209.402344 284.789062 231.757812 L 268.601562 285.734375 L 209.882812 110.933594 Z M 187.496094 349.859375 C 171.550781 349.859375 156.164062 347.554688 141.601562 343.28125 L 190.339844 201.664062 L 240.25 338.476562 C 240.613281 339.277344 241.003906 340 241.425781 340.722656 C 224.5625 346.636719 206.421875 349.890625 187.496094 349.890625 M 25.054688 187.496094 C 25.054688 163.945312 30.113281 141.574219 39.132812 121.398438 L 116.582031 333.675781 C 62.4375 307.339844 25.070312 251.800781 25.054688 187.496094 M 187.496094 6.820312 C 87.898438 6.820312 6.820312 87.898438 6.820312 187.496094 C 6.820312 287.089844 87.898438 368.167969 187.496094 368.167969 C 287.089844 368.167969 368.167969 287.089844 368.167969 187.496094 C 368.167969 87.898438 287.089844 6.820312 187.496094 6.820312 " fill-opacity="1" fill-rule="nonzero"/></g></svg>