<svg xmlns="http://www.w3.org/2000/svg" xmlns:xlink="http://www.w3.org/1999/xlink" width="500" zoomAndPan="magnify" viewBox="0 0 375 374.999991" height="500" preserveAspectRatio="xMidYMid meet" version="1.0"><defs><clipPath id="a07012a5e5"><path d="M 10 7.804688 L 365 7.804688 L 365 367.054688 L 10 367.054688 Z M 10 7.804688 " clip-rule="nonzero"/></clipPath></defs><g clip-path="url(#a07012a5e5)"><path fill="#ffffff" d="M 293.21875 87.65625 C 299.984375 84.757812 304.816406 83.792969 309.644531 84.757812 C 317.378906 86.691406 321.242188 92.492188 324.140625 95.386719 C 327.039062 101.1875 337.667969 106.984375 342.503906 107.949219 C 346.367188 108.917969 353.132812 98.289062 357.964844 88.625 C 362.796875 79.925781 365.695312 68.332031 364.726562 65.429688 C 363.761719 62.53125 350.230469 56.734375 347.332031 56.734375 C 345.398438 56.734375 341.535156 58.667969 334.769531 57.699219 C 328.007812 56.734375 321.242188 49.003906 317.375 43.203125 C 310.613281 33.542969 300.949219 27.742188 292.25 22.910156 C 282.589844 18.078125 271.957031 15.179688 261.328125 13.246094 C 245.867188 9.382812 230.40625 6.484375 214.945312 8.414062 C 206.25 9.382812 195.621094 10.347656 187.886719 13.246094 C 186.921875 13.246094 184.988281 16.148438 186.921875 16.148438 C 188.855469 16.148438 195.621094 17.113281 195.621094 17.113281 C 195.621094 17.113281 186.921875 19.046875 186.921875 20.980469 C 186.921875 22.914062 187.890625 22.914062 188.855469 22.914062 C 189.824219 22.914062 211.082031 21.949219 219.777344 22.914062 C 229.441406 24.847656 240.074219 29.679688 246.835938 41.273438 C 258.433594 62.535156 253.601562 82.828125 250.703125 89.589844 C 236.207031 121.480469 121.214844 317.644531 115.414062 331.171875 C 109.617188 344.703125 107.683594 353.398438 124.109375 362.097656 C 140.539062 370.792969 149.234375 366.929688 154.066406 361.128906 C 159.867188 353.398438 259.398438 104.085938 293.21875 87.65625 Z M 239.105469 218.113281 L 262.296875 218.113281 C 277.757812 218.113281 280.65625 225.84375 280.65625 228.742188 C 281.621094 236.472656 277.757812 246.136719 262.296875 246.136719 L 247.800781 246.136719 L 259.398438 265.460938 C 266.160156 277.058594 263.261719 282.855469 259.398438 286.722656 C 253.597656 292.519531 241.039062 292.519531 234.273438 279.957031 L 220.746094 256.765625 C 211.082031 278.023438 201.417969 301.214844 189.824219 328.273438 L 249.734375 328.273438 C 278.722656 328.273438 302.882812 304.113281 302.882812 275.125 L 302.882812 106.019531 C 301.917969 104.085938 299.984375 105.050781 299.015625 106.019531 C 293.21875 112.78125 276.792969 135.972656 239.105469 218.113281 Z M 92.222656 337.9375 L 87.390625 337.9375 C 52.601562 337.9375 24.578125 309.914062 24.578125 275.125 L 24.578125 112.78125 C 24.578125 77.996094 52.601562 49.972656 87.390625 49.972656 L 227.507812 49.972656 C 224.609375 47.074219 213.015625 42.238281 201.417969 43.207031 C 196.585938 43.207031 186.921875 45.140625 181.125 41.273438 C 175.328125 36.441406 176.292969 33.542969 167.597656 33.542969 L 81.59375 33.542969 C 41.972656 33.542969 10.085938 65.429688 10.085938 105.050781 L 10.085938 280.921875 C 10.085938 320.542969 41.972656 352.433594 76.761719 351.464844 C 86.425781 351.464844 89.324219 343.734375 92.222656 337.9375 Z M 313.511719 111.816406 L 313.511719 275.125 C 313.511719 309.914062 285.488281 337.9375 250.703125 337.9375 L 185.957031 337.9375 C 185.957031 337.9375 180.15625 353.398438 198.519531 353.398438 L 256.5 353.398438 C 296.117188 353.398438 328.007812 321.507812 328.007812 281.890625 L 328.007812 139.839844 C 328.972656 126.3125 317.378906 117.613281 313.511719 111.816406 Z M 35.207031 112.78125 L 35.207031 275.125 C 35.207031 304.117188 59.367188 328.273438 88.355469 328.273438 L 97.054688 328.273438 C 97.054688 327.308594 108.648438 307.015625 133.773438 264.496094 C 136.671875 258.699219 140.539062 252.898438 144.402344 246.136719 L 73.863281 246.136719 C 65.164062 246.136719 60.335938 240.335938 59.367188 235.507812 C 57.433594 227.777344 62.265625 218.113281 72.894531 218.113281 L 108.648438 218.113281 L 154.066406 138.871094 C 154.066406 138.871094 143.4375 119.546875 140.539062 114.714844 C 136.671875 107.949219 138.605469 101.1875 142.472656 97.320312 C 148.269531 91.523438 157.933594 88.625 167.59375 104.085938 L 171.460938 109.882812 L 175.324219 104.085938 C 184.023438 91.523438 189.820312 92.488281 194.652344 93.457031 C 202.382812 95.390625 207.214844 104.085938 200.449219 117.613281 L 140.539062 218.113281 L 160.832031 218.113281 C 167.597656 206.515625 174.359375 194.917969 181.125 182.359375 C 180.160156 177.523438 179.191406 171.730469 180.160156 166.894531 C 181.125 159.164062 184.992188 152.402344 189.824219 146.601562 L 195.621094 156.265625 C 213.980469 124.378906 227.507812 97.320312 231.375 86.6875 C 233.308594 80.890625 236.207031 69.292969 233.308594 59.632812 L 88.359375 59.632812 C 58.402344 59.632812 35.207031 83.792969 35.207031 112.78125 Z M 76.761719 274.160156 C 76.761719 273.195312 88.359375 252.898438 88.359375 252.898438 C 106.71875 248.066406 115.414062 259.664062 116.382812 260.632812 C 116.382812 260.632812 103.820312 282.855469 99.953125 286.722656 C 96.089844 290.585938 91.257812 291.554688 86.425781 290.585938 C 78.691406 288.65625 73.863281 280.921875 76.761719 274.160156 Z M 76.761719 274.160156 " fill-opacity="1" fill-rule="nonzero"/></g></svg>